<?xml version="1.0" standalone="no"?><!DOCTYPE svg PUBLIC "-//W3C//DTD SVG 1.1//EN" "http://www.w3.org/Graphics/SVG/1.1/DTD/svg11.dtd"><svg t="1730537875118" class="icon" viewBox="0 0 1024 1024" version="1.1" xmlns="http://www.w3.org/2000/svg" p-id="6317" xmlns:xlink="http://www.w3.org/1999/xlink" width="200" height="200"><path d="M955.963733 278.755556L307.4304 273.066667c-17.066667 0-34.133333 17.066667-34.133333 34.133333s17.066667 34.133333 34.133333 34.133333l603.022222 5.688889-136.533333 233.244445H284.674844L227.785956 204.8c0-22.755556-22.755556-39.822222-79.644445-73.955556-5.688889-5.688889-11.377778-5.688889-17.066667-11.377777-17.066667-11.377778-34.133333-22.755556-56.888888-34.133334-11.377778-5.688889-22.755556-11.377778-22.755556-17.066666-17.066667-11.377778-34.133333-5.688889-45.511111 11.377777-11.377778 17.066667-5.688889 34.133333 11.377778 45.511112 5.688889 0 11.377778 5.688889 22.755555 11.377777l51.2 34.133334c5.688889 5.688889 11.377778 5.688889 17.066667 11.377777 17.066667 11.377778 34.133333 22.755556 45.511111 28.444445 5.688889 5.688889 5.688889 5.688889 11.377778 5.688889l91.022222 534.755555v11.377778c0 17.066667 17.066667 34.133333 34.133333 34.133333h28.444445c-28.444444 17.066667-45.511111 51.2-45.511111 85.333334 0 56.888889 45.511111 108.088889 108.088889 108.088889s108.088889-45.511111 108.088888-108.088889c0-34.133333-17.066667-68.266667-45.511111-85.333334h244.622223c-28.444444 17.066667-45.511111 51.2-45.511112 85.333334 0 56.888889 45.511111 108.088889 108.088889 108.088889 56.888889 0 108.088889-45.511111 108.088889-108.088889 0-34.133333-17.066667-68.266667-45.511111-85.333334h51.2c17.066667 0 34.133333-17.066667 34.133333-34.133333s-17.066667-34.133333-34.133333-34.133333H313.119289l-17.066667-85.333334H796.674844c11.377778 0 28.444444-11.377778 28.444445-22.755555l159.288889-295.822222c11.377778-22.755556-5.688889-45.511111-28.444445-45.511111zM375.697067 927.288889c-22.755556 0-45.511111-17.066667-45.511111-45.511111 0-22.755556 17.066667-45.511111 45.511111-45.511111 22.755556 0 45.511111 17.066667 45.511111 45.511111 0 22.755556-17.066667 45.511111-45.511111 45.511111z m375.466666 0c-22.755556 0-45.511111-17.066667-45.511111-45.511111 0-22.755556 17.066667-45.511111 45.511111-45.511111 22.755556 0 45.511111 17.066667 45.511111 45.511111 0 22.755556-22.755556 45.511111-45.511111 45.511111zM159.519289 210.488889l5.688889 5.688889 5.688889 5.688889c-5.688889-5.688889-11.377778-5.688889-11.377778-11.377778z" fill="#999999" p-id="6318"></path></svg>