<svg width="357" height="414" viewBox="0 0 357 414" fill="none" xmlns="http://www.w3.org/2000/svg">
<path fill-rule="evenodd" clip-rule="evenodd" d="M64.4385 276.48C77.0237 269.844 89.6084 263.208 102.193 256.572C114.126 283.14 144.086 300.187 172.882 293.901C179.901 292.369 186.859 288.905 190.228 282.219C192.763 277.191 192.859 271.287 191.711 265.869C190.744 261.304 188.944 256.486 185.999 252.812C182.298 248.195 176.61 244.65 172.006 241.028C164.873 235.414 157.675 229.882 150.458 224.377C149.512 223.656 146.877 222.359 146.347 221.25C145.903 220.321 146.347 218.065 146.347 217.047V212.259C156.818 216.074 168.497 218.173 179.626 217.601C198.154 216.648 213.03 203.252 226.244 191.354C228.6 189.233 230.916 187.066 233.177 184.843C233.61 184.417 234.706 182.842 235.311 182.724C236.119 182.564 238.245 183.901 238.988 184.2C241.56 185.232 244.132 186.265 246.704 187.298C252.966 189.811 259.261 191.865 264.915 195.557C288.909 211.227 314.435 230.386 325.342 257.837C331.541 273.44 335.238 290.101 337.495 306.716C337.802 308.982 338.591 311.803 338.198 314.067C337.477 318.217 335.118 322.614 333.694 326.564C331.885 331.583 330.076 336.602 328.267 341.622C328.067 342.175 327.82 343.574 327.357 343.922C326.391 344.647 323.166 344.4 322.006 344.527C315.345 345.258 308.666 346 301.973 346.367C295.957 346.697 290.346 345.16 284.609 343.448C281.415 342.495 278.245 341.464 275.092 340.388C274.383 340.146 270.914 339.494 270.51 338.782C270.332 338.469 270.929 337.002 271.011 336.659C271.534 334.472 272.016 332.276 272.472 330.075C275.691 314.535 278.061 298.247 276.703 282.357C275.287 265.802 266.085 252.723 254.492 241.399C250.226 237.233 245.689 233.337 240.939 229.737C240.107 229.106 238.587 227.461 237.535 227.251C236.689 227.081 236.054 227.786 235.211 228.337C232.769 229.93 230.327 231.523 227.885 233.115C227.229 233.543 224.669 234.672 224.432 235.426C224.232 236.061 225.275 238.162 225.45 238.773C226.191 241.36 226.852 243.97 227.449 246.594C231.365 263.781 233.194 282.594 228.383 299.784C223.841 316.018 213.348 330.627 199.272 339.87C184.71 349.433 167.775 351.799 150.873 348.507C120.813 342.649 89.9944 325.037 73.6228 298.494C69.4311 291.698 66.2644 284.267 64.4385 276.48Z" fill="#3758F9"/>
<path fill-rule="evenodd" clip-rule="evenodd" d="M334.816 313.107C333.649 322.349 329.512 331.131 324.391 338.817C323.716 337.481 324.532 336.377 322.663 336.123C321.408 335.952 319.748 336.838 318.51 337.049C313.918 337.829 309.097 337.229 304.51 336.738C305.698 335.45 307.27 334.407 306.678 332.312C306.23 330.73 304.288 330.115 303.53 328.653C304.564 328.205 307.406 330.464 308.401 330.846C307.908 329.605 306.229 327.383 306.59 326.02C306.854 325.018 308.155 325.211 307.072 323.926C306.578 324.367 304.995 326.497 304.132 325.968C304.967 325.216 304.357 324.805 304.724 324.048C305.008 323.464 305.26 323.18 305.654 322.67C306.672 321.351 307.34 319.665 306.045 318.117C305.612 317.599 304.87 317.709 304.464 317.124C304.072 316.56 304.154 315.898 304.048 315.264C303.928 314.552 303.986 313.752 303.79 313.055C303.383 311.616 303.226 311.639 303.922 310.155C303.208 310.767 302.494 311.379 301.78 311.991C301.425 310.489 301.162 308.898 300.429 307.524C300.181 307.059 298.856 305.833 298.914 305.348C298.743 306.759 297.611 305.096 297.149 304.98C295.694 304.614 293.124 306.048 292.015 306.933C288.95 309.378 287.122 314.037 285.187 317.373C283.061 321.038 280.926 325.106 280.367 329.318C280.227 330.367 280.194 332.572 279.007 333.101C278.368 333.386 275.706 332.621 275.047 332.241C273.437 331.309 274.001 329.914 274.625 328.437C275.434 326.526 276.161 324.887 276.534 322.814C276.979 320.335 277.3 317.827 277.686 315.336C278.496 310.114 279.309 304.868 279.725 299.597C279.859 297.912 279.646 296.233 279.71 294.586C279.766 293.148 280.87 291.487 280.258 289.773C280.048 289.186 279.611 289.049 279.64 288.551C279.659 288.242 280.447 288.532 280.553 288.126C280.757 287.334 280.001 286.525 279.808 285.792C279.501 284.633 279.736 283.563 279.913 282.402C280.631 277.684 279.302 272.718 278.034 268.18C276.664 263.276 274.803 258.559 272.894 253.847C271.213 249.699 270.506 245.197 268.527 241.169C266.817 237.69 264.949 234.236 261.867 231.984C260.455 230.952 259.435 229.392 258.091 228.252C257.29 227.573 256.431 226.843 255.468 226.407C254.537 225.986 253.424 226.231 252.576 225.833C251.397 225.28 250.09 223.891 248.83 223.348C247.742 222.879 246.494 222.559 245.477 221.576C244.097 220.244 243.84 219.356 241.902 219.1C240.781 218.953 239.669 219.018 238.874 217.905C235.727 213.499 244.215 207.138 240.285 202.542C238.721 204.118 238.053 206.359 237.297 208.386C236.308 211.04 234.915 213.277 233.349 215.629C230.608 219.747 226.52 223.923 225.342 228.835C223.423 226.153 222.342 224.556 219.445 227.207C218.9 226.006 219.618 223.719 218.535 222.947C216.63 221.59 212.996 224.969 211.957 226.195C207.889 230.997 205.616 236.842 203.383 242.682C202.397 245.261 201.337 248.527 202.594 251.196C203.706 253.557 206.352 254.852 208.606 255.865C211.797 257.298 214.438 257.223 217.829 257.582C219.385 257.745 220.788 258.424 222.271 257.634C223.556 256.95 224.472 255.584 225.588 254.677C225.85 255.53 226.531 256.279 227.397 255.524C228.665 260.845 229.928 266.052 229.622 271.566C229.341 276.625 228.899 281.705 227.995 286.694C227.063 291.839 225.973 297.068 223.944 301.906C221.936 306.694 218.858 310.911 216.054 315.245C215.201 313.506 214.184 314.364 212.95 315.181C212.46 314.14 213.089 313.346 212.408 312.423C211.97 312.166 211.578 311.848 211.232 311.468C211.113 310.728 210.945 309.998 210.731 309.28C209.636 309.726 209.171 310.255 208.671 311.302C207.022 308.402 205.854 308.77 202.785 308.957C198.673 309.206 197.359 312.76 195.999 316.098C195.675 316.893 195.076 317.894 195.005 318.775C194.954 319.397 195.507 320.439 195.432 320.76C195.277 321.421 194.679 320.87 194.517 321.196C193.924 322.394 193.772 324.091 193.456 325.39C192.613 328.863 192.357 334.477 188.932 336.453C186.066 338.107 181.952 338.498 178.737 339.121C173.68 340.101 168.326 340.278 163.187 340.306C158.594 340.331 153.103 340.883 148.743 339.154C148.104 338.901 145.081 337.481 145.785 336.758C146.091 336.444 147.747 336.963 148.086 337.144C147.856 337.022 147.685 335.613 147.569 335.295C147.138 334.108 146.806 334.067 145.987 333.169C144.169 331.177 146.623 332.096 146.458 330.667C146.426 330.392 144.481 331.104 144.535 331.085C144.598 330.651 144.999 329.751 144.793 329.315C144.943 329.634 143.671 326.955 143.822 327.565C143.528 326.381 144.354 325.213 144.184 324.069C143.941 322.446 142.753 322.77 141.823 321.81C141.504 321.48 141.377 320.811 141.063 320.434C140.927 320.269 140.429 320.241 140.378 320.152C140.038 319.562 140.06 319.464 140.417 318.222C139.727 318.524 137.912 319.772 137.209 319.092C136.364 318.272 138.138 317.311 136.67 316.747C136.079 316.519 135.74 317.155 135.212 317.176C134.858 317.189 134.789 316.316 134.347 316.546C133.557 316.956 133.353 318.677 133.004 319.423C131.033 314.398 124.676 322.657 123.503 324.596C122.415 326.391 122.354 329.937 119.67 329.662C118.261 329.517 116.643 327.978 115.519 327.224C113.871 326.119 112.109 325.2 110.405 324.181C102.843 319.656 95.7135 314.667 89.0178 308.934C86.5543 306.824 83.2574 304.206 82.9295 300.938C82.7981 299.629 82.6392 298.434 82.2758 297.109C81.5446 294.443 80.578 294.913 78.4441 293.461C79.2987 291.775 80.5193 291.688 80.445 289.648C80.3842 287.991 79.7488 286.337 79.1915 284.808C78.4797 282.858 78.1356 280.665 76.0496 280.124C73.828 279.547 73.4731 280.626 72.0026 282.184C72.1544 281.345 72.8334 279.216 71.8911 278.675C70.5789 277.921 69.8709 280.703 68.8408 281.004C67.954 279.026 64.9526 275.947 67.0531 273.982C68.1128 272.991 70.1719 272.61 71.4857 272.01C73.4387 271.118 75.3346 270.096 77.231 269.091C85.6605 264.626 93.8466 259.752 102.208 255.165C103.682 258.575 104.998 262.064 106.697 265.374C108.114 268.134 110.647 270.748 110.545 274.015C110.44 277.416 108.898 280.762 108.53 284.165C108.286 286.417 108.623 287.306 111.105 286.523C111.32 288.075 113.824 290.324 115.16 291.114C117.31 292.384 119.451 290.057 120.951 288.614C122.011 289.62 122.235 291.107 123.109 292.229C123.549 291.757 123.483 290.418 123.763 290.2C124.031 289.99 124.969 290.45 125.162 290.445C125.455 290.436 125.207 289.606 125.444 289.595C126.201 291.459 127.949 288.342 129.629 289.62C129.427 288.641 129.703 288.305 130.543 287.838C130.978 289.863 132.76 288.91 134.298 289.134C137.03 289.53 139.698 291.06 142.383 291.754C147.917 293.183 153.141 293.974 158.839 293.882C161.119 293.845 162.078 294.191 163.422 295.97C163.934 296.646 164.181 297.494 165.069 297.813C166.369 298.282 166.443 297.409 167.497 297.162C168.57 296.91 168.006 296.64 169.017 297.171C169.637 297.497 170.005 298.533 170.512 299.017C171.949 300.388 173.475 300.908 174.676 299.029C174.904 299.715 175.163 299.927 175.703 300.381C175.626 299.297 175.464 297.128 177.255 297.641C178.593 298.023 177.971 299.946 179.871 299.613C180.936 299.426 181.821 297.888 182.459 297.114C183.332 296.053 183.37 297.509 183.541 295.697C183.643 294.622 182.94 293.286 182.514 292.349C184.109 292.677 184.394 294.364 185.98 294.512C187.756 294.679 188.664 292.321 190.386 292.774C190.219 292.378 189.576 291.056 189.859 290.665C190.294 290.063 190.917 291.491 191.596 291.356C192.335 291.208 193.156 289.201 193.001 288.524C192.692 287.177 191.124 287.517 190.527 286.448C189.982 285.471 190.464 283.681 190.438 282.623C190.403 281.181 190.068 279.718 190.318 278.278C190.582 276.764 191.346 275.511 192.39 274.393C193.115 273.616 195.134 272.413 193.365 271.52C196.5 270.363 194.649 267.129 194.893 264.44C195.045 262.768 195.719 261.551 195.346 259.754C194.901 257.604 193.753 255.603 192.565 253.786C191.382 251.975 190.164 250.294 188.405 249.013C187.928 248.691 187.45 248.369 186.972 248.048C186.643 247.587 186.229 247.453 185.73 247.647C184.921 247.032 184.773 246.532 184.176 245.653C182.673 243.44 180.01 242.348 177.8 241.034C175.678 239.772 173.832 238.036 171.608 236.952C171.619 236.957 169.272 235.946 169.469 236.209C168.66 235.129 169.484 233.792 169.442 232.627C169.399 231.431 168.681 230.904 168.346 229.873C167.947 228.647 168.664 227.123 167.942 226.026C167.66 225.598 167.108 225.479 166.765 225.102C166.181 224.461 165.921 223.597 165.302 222.966C164.695 223.682 164.088 224.398 163.481 225.114C162.764 223.372 162.622 222.92 161.152 224.574C158.909 227.099 157.638 226.01 155.81 223.663C155.206 222.888 154.503 222.735 154.051 222.166C153.331 221.26 154.105 219.672 153.077 218.882C152.478 218.42 151.641 218.887 151.137 218.093C150.516 217.118 151.529 215.67 150.957 214.577C159.547 217.292 168.312 219.458 177.389 218.798C186.207 218.157 195.212 215.997 203.304 212.42C217.345 206.212 231.039 196.002 236.558 181.194C237.94 182.815 237.652 185.772 239.178 187.259C241.445 189.47 241.241 185.051 241.241 183.644C243.058 184.13 245.652 184.9 245.8 187.112C245.949 189.347 243.937 191.676 243.229 193.709C242.518 195.752 242.163 198.115 242.336 200.273C242.422 201.352 242.622 202.469 243.162 203.423C243.822 204.588 244.555 204.53 245.44 205.062C245.295 204.975 246.548 205.821 246.51 205.812C249.148 206.445 251.265 208.424 254.099 207.707C255.925 207.246 257.689 205.912 258.362 208.58C259.631 207.727 259.788 207.068 259.753 205.812C259.738 205.267 258.964 204.803 259.739 204.631C259.997 204.574 260.958 205.74 261.335 205.848C262.375 206.145 262.775 205.728 263.277 204.946C263.566 204.495 263.585 201.452 263.932 201.388C264.667 201.252 266.201 204.385 266.61 204.946C266.61 195.962 275.993 206.375 278.912 208.359C281.288 209.974 283.869 211.405 285.861 213.512C288.398 216.197 287.664 217.756 285.951 220.658C284.055 223.87 282.684 227.612 280.959 230.961C280.093 232.641 279.056 234.659 279.08 236.612C279.089 237.271 279.469 237.951 279.433 238.59C279.381 239.515 278.933 239.908 278.56 240.718C277.488 243.049 278.449 245.835 280.715 246.989C282.167 247.729 283.661 248.197 285.064 249.052C286.546 249.956 288.012 250.931 289.817 250.993C290.984 251.033 291.629 250.72 292.755 251.07C293.519 251.307 294.157 251.994 295.042 251.907C296.812 251.733 298.111 249.782 299.929 249.38C301.275 249.083 303.022 249.256 303.88 247.937C304.944 246.301 302.918 244.67 304.534 243.164C304.98 243.995 305.275 244.942 305.381 245.878C305.859 244.621 306.051 243.611 306.755 242.484C307.49 241.307 307.908 240.541 307.895 239.055C307.872 236.389 306.581 233.905 305.935 231.368C308.196 231.493 310.058 235.383 311.044 237.015C312.863 240.025 314.744 242.995 316.553 246.011C318.823 249.796 321.708 253.958 323.168 258.139C324.485 261.911 321.297 264.338 319.542 267.405C317.465 271.034 316.836 274.508 315.702 278.4C314.795 281.512 314.691 284.97 317.236 287.332C318.372 288.386 319.816 288.999 321.23 289.571C322.917 290.255 323.362 291.507 325.173 291.868C326.616 292.155 328.216 292.297 329.694 292.251C332.223 292.172 331.304 291.339 332.706 289.744C332.268 291.242 333.75 292.663 334.161 294.036C334.737 295.958 334.869 298.08 335.106 300.067C335.627 304.424 335.364 308.768 334.816 313.107ZM300.955 353.005C298.682 352.491 295.296 352.8 293.253 351.671C291.836 350.889 292.478 350.135 293.065 348.657C294.657 344.65 299.092 344.205 303.017 345.296C302.33 347.866 301.643 350.435 300.955 353.005ZM305.046 383.095C312.254 386.995 320.116 391.175 325.915 397.033C327.278 398.409 330.962 401.468 330.471 403.72C329.957 406.072 325.327 405.617 323.616 405.554C315.331 405.251 307.572 403.177 300.15 399.541C293.052 396.064 286.211 392.506 281.047 386.368C278.954 383.882 275.124 380.046 275.558 376.496C275.99 372.973 279.612 370.303 281.533 367.538C283.417 364.828 285.754 358.899 289.27 358.001C290.803 357.61 292.344 358.474 293.773 358.908C295.138 359.322 297.204 359.32 298.372 360.233C300.486 361.886 299.64 365.699 297.419 366.765C295.941 367.475 294.221 367.781 292.67 368.295C290.927 368.873 282.128 371.522 285.405 374.521C287.686 376.608 291.747 374.059 294.191 373.478C295.446 373.18 297.463 372.794 298.209 374.224C298.935 375.617 297.618 377.065 296.473 377.712C294.772 378.674 292.595 378.525 291.119 379.939C289.914 381.094 289.602 382.465 291.255 383.162C295.65 385.015 300.46 380.613 305.046 383.095ZM214.621 316.383C214.367 315.398 215.016 314.84 216.04 315.271C215.815 315.913 215.342 316.283 214.621 316.383ZM143.155 337.683C142.227 337.558 142.602 336.39 142.983 335.81C143.598 336.289 143.655 336.913 143.155 337.683ZM78.624 297.159C77.4453 295.847 79.2254 293.574 80.9953 294.637C80.4186 295.503 79.2577 296.152 78.624 297.159ZM74.3497 242.217C72.4425 238.825 72.3079 231.458 67.3509 231.009C65.5288 230.845 62.2862 233.126 60.722 232.048C59.3037 231.071 60.54 226.151 58.475 226.225C55.5652 226.329 57.0594 232.024 55.7461 233.435C54.9944 234.242 53.2983 234.566 52.2494 234.426C50.655 234.214 50.5177 233.494 50.4773 232C50.4466 230.895 51.2489 226.469 48.7602 227.204C46.9478 227.739 47.3855 231.626 47.2062 233.005C46.5401 238.138 39.0632 237.898 35.1454 238.333C32.7681 238.597 21.6258 240.371 24.1017 235.464C25.1484 233.388 27.7158 231.662 29.4631 230.218C32.4369 227.758 35.8346 225.819 39.3798 224.313C45.9732 221.512 53.4022 220.021 60.5518 220.998C68.6012 222.098 75.2296 226.064 80.6033 232.048C81.7136 233.285 84.8491 236.144 83.6483 237.906C82.9812 238.886 80.6706 239.129 79.6363 239.493C77.7635 240.154 75.9382 241.009 74.3497 242.217ZM86.1984 244.695C88.9338 243.661 89.5546 247.068 90.6078 248.91C91.5097 250.487 93.509 252.881 92.4596 254.733C91.506 256.418 88.5892 257.422 86.9474 258.132C84.7984 259.063 82.552 259.755 80.4073 260.693C79.2836 258.02 78.3101 255.28 77.1244 252.635C76.4556 251.143 75.0842 249.091 76.2607 247.6C78.2088 245.133 83.4825 245.722 86.1984 244.695ZM162.063 143.823C162.275 140.76 164.283 141.763 165.058 143.87C165.9 146.159 165.996 148.879 166.063 151.292C166.114 153.133 165.735 156.01 163.976 153.328C162.286 150.752 161.857 146.809 162.063 143.823ZM172.875 156.169C172.571 159.877 170.454 157.313 169.679 155.336C168.549 152.451 167.685 148.722 168.098 145.614C168.575 142.027 170.327 144.279 171.109 146.473C172.214 149.576 172.262 152.957 172.875 156.169ZM177.47 153.145C175.087 153.79 171.37 139.748 174.59 139.269C177.266 138.87 179.82 152.509 177.47 153.145ZM187.014 154.608C186.992 157.724 184.42 155.268 183.52 154.01C181.871 151.706 180.572 148.267 180.478 145.439C180.391 142.783 181.555 140.626 183.417 143.486C185.486 146.663 186.345 150.942 187.014 154.608ZM166.19 118.636C168.511 112.129 171.408 106.146 175.279 100.418C175.974 99.3899 176.671 98.2187 177.616 97.4009C178.382 96.7383 179.486 96.5723 180.206 95.9264C181.657 94.6281 180.548 93.3254 179.136 92.645C176.765 91.5013 172.545 91.6672 174.201 87.8665C176.489 82.6155 182.419 85.5424 184.753 89.1115C185.698 86.8828 187.358 87.4264 189.382 87.2739C192.408 87.0455 195.253 85.5969 198.309 85.648C201.142 85.6955 203.751 87.0724 206.591 87.1225C209.753 87.1791 212.394 87.31 215.471 88.1951C213.868 91.4383 211.879 94.6453 208.829 96.7119C209.377 95.6985 211.279 92.978 209.573 92.2264C208.42 91.7184 205.957 93.8464 204.976 94.3377C204.937 93.4106 204.597 92.4748 204.042 91.7324C201.046 93.8259 202.055 97.4192 204.611 99.3877C202.376 100.552 200.039 101.574 197.53 101.953C195.054 102.326 192.565 101.744 190.103 102.162C185.781 102.896 182.553 106.765 181.865 111.011C181.491 113.315 182.75 119.112 184.625 114.618C184.999 113.72 185.192 112.661 185.785 111.873C186.764 110.572 187.515 111.03 188.95 111.342C190.14 111.6 192.224 111.86 192.675 113.176C193.08 114.357 192.024 115.943 191.426 116.842C189.377 119.926 186.313 122.592 182.611 123.291C180.516 123.686 164.538 123.271 166.19 118.636ZM171.176 76.4019C169.832 75.5017 170.841 73.1566 171.001 71.9574C171.239 72.3964 171.477 72.835 171.715 73.274C171.548 70.4635 171.932 68.1928 172.532 65.4646C172.76 64.4287 172.677 63.5479 172.724 62.5103C172.751 61.9166 172.64 61.4953 172.886 61.1381C173.201 60.6797 173.577 62.0136 173.56 61.8961C174.993 60.1695 173.83 59.8037 174.249 58.0663C174.254 58.0442 175.567 56.6414 175.713 56.3769C176.405 55.1146 176.544 54.6282 177.74 53.8955C178.953 53.1526 178.544 53.8874 179.203 52.2987C179.837 50.7687 179.796 49.7123 180.164 48.1101C180.73 48.5233 181.302 48.5352 181.88 48.1467C181.344 47.9986 181.058 47.6479 181.022 47.093C182.5 46.9421 183.809 45.5097 185.153 46.0037C184.814 45.4235 184.581 42.0995 185.685 42.106C185.722 42.6269 185.722 43.1473 185.686 43.6678C186.619 42.2617 188.082 40.1817 189.232 39.1193C190.1 38.3171 189.855 38.5515 190.917 38.4383C191.83 38.3414 191.843 38.6845 192.626 37.8651C192.318 37.0204 192.549 36.4844 193.32 36.2586C193.558 36.1552 193.796 36.0518 194.033 35.9478C195.127 35.2841 195.531 34.5331 196.392 33.6539C197.061 32.9692 198.478 32.6772 198.981 31.9935C199.523 31.2587 199.122 29.6205 199.843 29.0623C200.632 28.4503 200.684 29.2477 201.453 29.1749C201.563 29.1647 202.676 28.5716 202.903 28.4956C204.546 27.9407 206.067 27.7177 207.456 26.4533C207.923 26.0288 208.252 25.2158 208.702 24.8877C209.447 24.3442 210.339 24.4508 211.099 23.9724C211.341 23.8205 211.706 23.1433 211.992 22.8939C212.832 22.158 213.985 21.7928 215.026 21.469C217.183 20.7988 219.213 20.1335 221.299 19.2316C225.778 17.2938 230.718 15.6518 235.47 14.5329C236.018 14.4041 237.424 14.479 237.831 14.2145C238.132 14.0184 238.393 13.352 238.467 13.3094C239.356 12.7928 240.787 12.2131 242.006 11.8662C245.584 10.8469 245.709 12.7933 243.428 14.855C241.404 16.6851 238.96 17.9624 236.881 19.7117C233.492 22.5642 231.29 26.7717 229.054 30.5131C232.057 31.9682 236.361 30.4943 239.41 29.8623C240.96 29.5418 242.605 29.5079 244.132 29.5084L244.623 29.2283C245.014 28.9643 245.267 29.072 245.384 29.552C245.441 30.1678 245.741 30.2664 246.286 29.8473C246.575 29.6485 246.876 29.4718 247.19 29.3172C247.749 28.9988 248.607 27.9779 249.324 28.1039C250.381 28.2898 249.747 28.8064 250.429 29.0683C251.998 29.6689 252.76 28.2392 254.223 28.0102C254.726 27.9315 255.44 28.3205 255.993 28.2607C256.448 28.0942 256.871 27.868 257.26 27.5825C257.65 27.5733 257.924 27.7608 258.081 28.1433C259.274 28.1513 261.476 27.8669 261.581 26.359C262.421 27.9466 262.905 27.4063 264.218 26.6682C264.218 28.5694 268.331 26.9489 269.458 26.9451C272.358 26.936 274.863 25.7912 277.614 27.2668C272.751 29.44 267.244 30.4038 262.535 32.8706C260.406 33.9863 257.665 37.1411 259.245 39.7033C260.183 41.2241 261.925 41.1379 263.465 40.9558C265.421 40.7247 267.047 41.4579 269.048 41.3766C273.108 41.2122 278.098 44.2954 281.602 41.0011C283.133 43.0843 284.941 43.0762 287.239 43.2039C288.305 43.2632 294.959 44.4198 294.685 45.7079C294.532 46.4325 291.351 47.5708 290.872 47.7836C289.068 48.5826 287.201 49.2096 285.289 49.6929C281.841 50.5662 278.448 50.5123 274.97 51.0515C272.44 51.4437 269.31 52.8843 270.002 56.0886C270.611 58.91 273.958 58.2743 276.128 58.0771C278.499 57.8616 280.782 57.5895 283.168 57.6946C285.083 57.7792 289.043 57.6596 290.249 59.543C284.935 63.3668 278.27 64.3586 271.935 65.1533C264.609 66.0713 257.341 67.2311 250.173 69.0262C250.713 67.9455 253.09 64.0117 252.152 62.8378C251.003 61.3994 247.556 67.2004 246.67 67.9805C239.129 74.6241 228.804 79.1316 219.563 82.816C222.606 79.0551 227.191 76.4875 230.908 73.4383C233.467 71.34 238.121 67.9126 236.428 64.0165C226.917 69.9442 218.916 80.6223 206.917 81.3215C211.204 78.2012 216.143 75.8017 219.669 71.7295C220.494 70.7776 223.214 67.1401 221.527 65.8326C220.199 64.8036 217.851 68.4287 216.925 69.2142C210.412 74.7367 201.466 79.4123 193.354 82.0009C190.439 82.9307 186.433 84.5119 183.756 82.4814C180.164 79.7571 177.365 79.6693 173.313 81.843C172.91 80.0706 172.857 77.5294 171.176 76.4019ZM256.883 201.739V203.988C255.665 203.868 256.211 202.584 255.478 201.993C255.947 201.909 256.415 201.823 256.883 201.739ZM255.35 199.134C255.721 200.445 255.721 200.445 254.166 200.297C254.707 199.765 254.996 199.481 255.35 199.134ZM261.226 200.97C262.115 200.482 261.357 203.407 259.945 201.893C260.372 201.585 260.799 201.278 261.226 200.97ZM264.37 196.745C264.204 197.711 264.039 198.676 263.873 199.641C263.354 199.212 262.835 198.783 262.316 198.354C263.001 197.818 263.685 197.282 264.37 196.745ZM331.896 286.429C333.012 285.756 333.238 288.332 333.357 288.821C332.624 288.417 330.142 287.488 331.896 286.429ZM110.679 90.6146C108.746 93.2796 106.817 95.9668 105.227 98.8549C104.344 100.46 103.699 102.805 102.095 103.878C100.666 104.833 98.3131 104.979 96.7101 105.379C93.4939 106.179 90.3041 107.092 87.1763 108.19C76.5014 111.94 66.3661 118.32 58.8627 126.857C55.248 130.97 52.2295 135.707 50.5312 140.939C48.5841 146.936 49.241 153.224 48.5271 159.397C48.3558 160.88 48.0441 166.168 46.2919 166.837C44.1354 167.66 43.5248 162.448 43.2647 161.084C42.9384 159.372 42.0333 147.657 38.6523 148.74C36.5906 149.4 36.5777 156.233 36.4517 157.862C36.1647 161.562 35.7425 165.234 35.0382 168.882C34.4885 171.724 33.7589 174.543 33.0766 177.357C32.4773 179.83 31.8269 182.798 29.9547 184.661C28.5789 177.127 28.3549 168.663 30.9336 161.36C31.639 159.361 36.0715 149.112 32.1516 148.12C29.8109 147.527 27.9543 153.111 27.3205 154.586C25.1974 159.525 23.5121 164.646 21.6792 169.696C20.4757 173.012 19.2561 178.992 16.3065 181.297C15.2317 172.972 17.5056 164.673 20.2722 156.899C20.7665 155.511 26.9113 141.672 21.5898 143.172C18.6848 143.991 16.6521 150.184 15.4578 152.576C12.5319 158.437 8.93608 164.53 4.04153 168.961C3.81107 164.322 6.78065 159.411 7.88448 154.955C9.15362 149.833 10.8288 145.069 13.5415 140.516C18.5642 132.086 25.1231 124.112 31.6007 116.763C38.2883 109.176 45.9123 102.42 54.2217 96.6537C62.5635 90.8651 71.3349 87.1926 81.2059 84.9369C92.2582 82.4119 104.251 80.9196 115.318 84.1735C113.772 86.3209 112.232 88.4731 110.679 90.6146ZM293.486 101.634C293.308 101.669 293.13 101.705 292.952 101.74C292.806 100.876 292.66 100.011 292.514 99.1464C293.618 99.7934 292.681 100.9 293.486 101.634ZM247.222 94.1637C260.291 88.4112 274.065 84.1639 288.003 81.1066C297.476 79.0282 308.217 78.0051 317.449 81.6491C328.107 85.8554 332.525 97.1364 332.993 107.92C333.539 120.49 329.263 132.41 323.1 143.185C321.62 145.773 313.711 161.41 310.387 159.669C311.509 156.605 319.37 139.328 314.163 137.799C311.168 136.92 308.846 145.422 307.815 147.335C307.116 148.632 302.34 157.712 300.747 156.935C302.251 152.094 304.087 147.1 303.943 141.95C303.834 138.061 301.802 136.231 299.656 140.259C294.971 149.055 290.043 158.077 283.225 165.431C282.582 159.978 285.504 153.957 287.281 148.925C288.676 144.975 290.542 141.039 290.987 136.829C291.228 134.549 291.158 130.043 287.751 130.834C284.784 131.522 282.391 134.915 280.044 136.67C281.819 133.325 283.529 129.936 285.564 126.739C287.309 123.998 289.399 121.499 291.13 118.751C291.901 117.528 292.33 116.339 292.819 115.047C293.301 113.772 294.026 113.064 294.847 111.904C295.458 111.041 295.791 110.309 295.977 109.359C296.046 109.005 295.801 108.476 295.838 108.074C295.905 107.37 296.644 107.182 296.398 106.373C297.696 108.172 297.337 104.636 297.313 103.98C297.227 101.674 298.159 99.1771 297.006 97.0324C294.577 92.5114 287.452 93.3885 283.241 93.7139C277.207 94.1799 269.656 95.5515 264.488 98.8145C263.167 99.6485 262.337 99.1722 260.904 99.8128C259.593 100.399 258.259 101.007 256.914 101.578C253.418 103.06 250.081 104.899 246.633 106.487C246.816 103.907 247.402 101.39 246.994 98.8124C246.821 97.7074 245.721 94.8242 247.222 94.1637ZM339.138 294.317C337.994 286.677 336.699 279.119 334.659 271.662C333.684 268.099 332.915 264.464 331.892 260.917C331.08 258.099 328.597 256.67 327.37 254.045C324.484 247.87 321.838 241.754 318.36 235.844C314.725 229.669 310.385 224.228 305.226 219.263C294.76 209.192 282.671 201.497 270.969 193.022C264.961 188.67 258.733 184.88 252.028 181.692C249.327 180.407 246.73 179.381 243.871 178.544C240.908 177.678 239.429 176.666 238.332 173.694C236.081 167.59 231.858 165.592 226.09 163.272C223.482 162.223 221.108 160.77 218.538 159.654C215.864 158.494 213.036 157.605 210.549 156.055C199.235 149.006 214.34 134.332 220.348 129.049C222.689 126.99 225.338 124.878 228.319 123.856C231.408 122.796 235.619 122.173 238.89 121.883C241.109 121.686 244.252 122.72 246.096 120.958C247.583 119.539 247.008 117.266 246.826 115.471C246.314 110.434 250.455 110.041 254.624 109.151C261.139 107.76 267.229 104.835 273.752 103.373C277.916 102.44 289.475 99.6458 289.543 106.663C289.594 111.983 285.61 117.334 283.106 121.682C281.147 125.081 279.058 128.367 276.987 131.695C275.438 134.183 274.035 136.913 274.059 139.92C274.078 142.296 275.033 144.642 277.824 144.291C280.961 143.896 283.311 140.794 285.916 139.292C286.023 142.542 283.561 146.176 282.616 149.236C281.502 152.844 280.522 156.595 279.892 160.321C279.491 162.698 278.386 171.854 283.204 170.68C286.452 169.888 289.25 165.706 291.142 163.237C293.135 160.635 294.922 157.897 296.727 155.165C297.853 158.509 290.845 164.977 294.402 167.99C298.197 171.206 304.77 159.82 306.619 157.717C306.94 160.271 303.33 165.93 307.414 167.101C310.304 167.931 314.244 163.997 316.064 162.145C319.391 158.761 319.797 153.984 321.872 149.888C324.248 145.199 327.294 140.925 329.495 136.128C336.432 121.011 339.958 98.6141 329.021 84.354C321.637 74.7259 308.828 73.0596 297.502 73.9501C284.613 74.9635 272.006 78.8822 259.948 83.3741C251.851 86.3904 243.886 89.7677 235.966 93.2182C230.123 95.7648 224.306 98.3771 218.508 101.028C215.703 102.31 212.97 103.697 210.241 105.132C207.99 106.316 205.314 107.693 202.692 107.018C204.578 104.155 208.33 103.207 211.041 101.373C214.249 99.2046 216.025 95.4987 217.2 91.9129C218.464 88.0508 219.585 87.1285 223.47 86.12C227.353 85.112 230.988 83.4867 234.458 81.4767C242.595 76.7628 251.587 74.0681 260.835 72.6065C269.018 71.3136 277.67 70.7312 285.31 67.2726C290.998 64.698 298.156 59.0005 291.231 53.2765C296.132 49.716 304.822 43.7696 297.213 37.9459C291.316 33.4319 282.408 33.7816 275.375 33.7816C276.387 31.7414 279.625 31.04 281.446 29.9308C283.691 28.5624 286.464 27.0814 287.244 24.384C288.52 19.9735 283.699 18.6875 280.338 18.2452C267.558 16.5644 253.197 17.8277 241.091 22.2701C241.723 20.0457 244.87 18.4069 246.633 17.2136C248.981 15.6238 251.303 13.8848 253.017 11.5882C253.921 10.3766 254.595 9.06695 254.775 7.55313C254.968 5.92133 254.794 6.6109 254.302 6.1783C252.488 4.58044 249.934 3.57463 247.47 3.46743C240.369 3.15766 234.058 6.49507 227.32 8.13334C224.341 8.85739 221.561 9.15477 218.708 10.4396C215.269 11.989 211.725 13.3428 208.322 14.9628C206.741 15.7159 205.253 16.6156 203.657 17.331C202.209 17.9796 201.874 18.7937 200.706 19.7801C199.635 20.6851 198.446 20.2375 197.231 20.9146C195.551 21.8504 193.951 23.4827 192.39 24.6469C186.312 29.1803 180.572 34.3855 175.753 40.2538C167.434 50.3841 159.169 66.0788 164.846 79.3557C166.171 82.4556 169.3 83.4527 170.077 86.8354C170.758 89.8 170.866 92.7431 171.741 95.6694C172.628 98.6346 169.073 101.415 167.555 103.83C165.18 107.606 164.146 111.879 162.809 116.084C162.392 114.953 162.25 113.045 161.085 112.379C159.672 111.572 159.653 113.255 158.638 112.497C157.444 111.605 156.476 108.124 155.782 106.737C154.857 104.888 153.905 103.049 152.84 101.276C148.491 94.0339 141.791 88.4381 134.519 84.2603C119.669 75.7295 101.788 74.8159 85.2437 77.9152C68.6286 81.0274 54.2002 89.2904 41.3511 100.06C34.2348 106.024 27.9581 112.632 22.3097 120.002C16.7614 127.242 11.0296 134.293 6.94865 142.5C4.65699 147.108 2.58178 151.884 1.29972 156.882C0.304655 160.761 -0.662409 165.47 0.603498 169.403C1.68687 172.769 4.81798 174.577 7.97817 172.39C10.7507 170.469 11.988 167.001 13.8813 164.344C14.2614 168.747 8.89893 184.955 16.7124 185.718C22.482 186.282 24.5976 173.013 25.8199 169.171C26.6389 174.342 25.0924 179.928 27.0368 184.922C27.9796 187.345 30.925 191.732 33.4185 188.251C34.5348 186.692 34.6171 184.469 35.0167 182.655C35.5191 180.37 36.149 178.113 36.6471 175.826C37.9023 170.061 38.6017 164.208 39.5715 158.392C41.2024 162.17 40.895 169.05 44.9382 171.39C49.0386 173.763 50.8822 166.977 51.3502 164.231C52.1363 159.614 51.7605 154.883 52.4378 150.248C53.1249 145.552 54.7979 141.318 57.3297 137.314C66.3381 123.07 83.2315 112.309 100.23 111.599C99.3136 115.121 94.0809 124.197 100.913 124.346C102.454 124.38 103.866 124.104 105.427 124.272C107.348 124.477 109.633 125.46 111.552 125.322C112.716 125.237 112.672 124.752 113.865 125.448C115.116 126.177 115.281 127.257 116.649 125.556C117.679 127.469 120.082 127.979 121.901 128.813C121.922 128.319 121.944 127.825 121.965 127.33C123.092 128.933 124.314 129.221 126.041 130.005C127.147 130.507 127.927 130.352 128.923 130.611C130.129 130.925 130.732 131.591 131.818 132.207C132.997 132.876 135.062 132.794 135.967 133.842C137.567 135.696 135.093 138.827 134.202 140.412C131.695 144.867 130.042 150.029 128.955 155.002C128.678 156.27 128.413 157.166 128.617 158.424C128.795 159.519 129.122 158.728 128.921 159.806C128.849 160.188 128.139 160.991 128.012 161.265C126.938 163.595 127.097 166.683 127.041 169.195C126.905 175.201 127.668 180.881 129.305 186.656C130.024 189.189 130.658 191.829 131.564 194.301C132.406 196.596 133.681 197.999 133.232 200.481C132.27 205.804 137.844 207.248 140.887 210.583C142.264 212.094 142.511 214.023 142.821 215.969C143.267 218.774 144.192 221.352 145.335 223.953C147.336 228.509 150.079 234.457 153.841 237.821C155.534 239.334 157.087 241.008 159.012 242.137C159.911 242.665 161.036 243.957 162.039 244.206C162.988 244.44 162.649 243.432 163.68 244.266C164.469 244.904 164.427 245.855 165.523 246.579C166.575 247.274 167.708 247.854 168.815 248.454C171.064 249.673 173.494 250.826 175.542 252.366C177.525 253.858 179.5 255.429 181.492 256.935C183.325 258.321 184.613 260.045 185.206 262.291C187.809 272.157 178.682 280.494 170.897 284.62C160.821 289.959 149.401 288.832 139.038 284.946C128.294 280.918 117.686 273.527 111.286 263.888C109.695 261.492 108.082 258.926 106.876 256.312C106.082 254.592 105.855 252.477 104.787 250.898C102.394 247.358 97.2518 252.434 94.7625 253.763C91.0973 238.292 84.0597 220.826 67.6977 215.289C52.188 210.041 32.7546 216.276 22.6775 229.05C20.3023 232.061 16.9031 236.939 18.5028 240.971C19.8947 244.477 24.4759 245.27 27.7793 245.621C32.4886 246.123 37.4451 245.52 41.9902 244.243C43.1576 243.915 45.1574 242.98 46.3958 243.341C48.3197 243.903 48.2471 246.7 49.2184 248.157C50.2011 249.631 51.6269 249.475 51.9592 247.584C52.2758 245.778 50.613 244.08 52.02 242.476C52.8029 241.583 55.4457 240.845 56.5457 241.54C57.4659 242.122 57.5483 243.949 58.2795 244.789C60.2955 247.106 60.5147 243.351 60.9277 241.767C61.548 239.385 64.2585 237.533 66.8894 238.598C68.536 239.265 68.9474 241.793 69.3739 243.32C70.2451 246.439 70.8449 249.451 72.0247 252.49C72.925 254.809 76.7405 261.268 74.9108 263.53C73.7806 264.927 70.9273 265.71 69.2872 266.249C67.0014 267 64.2591 267.449 62.1613 268.631C61.1748 269.187 58.9989 270.704 58.6942 271.853C58.1783 273.8 60.5481 273.887 61.6508 272.9C65.1002 283.128 69.1736 293.188 75.5096 302.004C81.8671 310.851 90.1216 318.186 98.8214 324.662C115.836 337.327 135.849 345.765 157.046 347.774C167.887 348.802 179.096 347.898 189.358 344.14C190.515 343.716 191.689 343.224 192.913 343.024C194.022 342.844 195.16 343.227 196.233 343.049C197.625 342.818 197.251 342.281 198.136 341.537C198.952 340.851 200.228 340.613 201.132 340.021C205.638 337.067 209.726 332.913 213.248 328.868C219.867 321.27 226.425 311.797 229.543 302.139C232.676 292.436 232.824 282.127 233.767 272.066C234.35 265.844 232.475 260.062 231.452 253.981C230.405 247.753 229.181 241.628 227.74 235.488C227.17 233.06 227.166 231.303 229.072 229.535C230.557 228.159 232.412 227.076 234.387 228.014C236.454 228.996 238.328 231.14 240.216 232.472C242.162 233.845 243.074 235.676 245.012 233.39C245.012 235.375 245.97 235.972 247.642 236.624C249.886 237.5 251.981 238.437 254.011 239.769C258.401 242.65 261.718 247.01 264.195 251.588C266.837 256.47 269.877 261.465 271.712 266.715C273.712 272.438 273.963 278.888 274.164 284.899C274.376 291.181 274.438 297.509 274.079 303.787C273.741 309.724 273.408 316.393 271.657 322.098C269.725 328.389 263.471 335.519 271.931 339.715C277.864 342.659 285.055 341.949 290.893 344.978C290.139 346.183 289.634 347.546 288.814 348.71C287.78 350.178 286.861 350.165 285.266 350.753C282.342 351.831 283.757 353.585 283.457 355.897C283.19 357.948 280.444 360.286 279.134 361.792C277.161 364.061 275.122 366.31 273.531 368.874C270.081 374.431 270.082 380.488 273.243 386.168C276.021 391.161 279.989 396.838 284.869 399.937C290.196 403.321 296.475 406.242 302.322 408.591C307.579 410.702 313.141 412.053 318.764 412.734C322.979 413.245 328.779 413.739 332.153 410.568C335.245 407.661 335.978 403.038 334.529 399.176C331.13 390.12 320.75 384.67 313.201 379.542C315.594 378.707 318.745 378.426 320.603 376.523C322.926 374.145 320.781 372.105 318.113 372.132C315.799 372.156 313.44 372.909 311.24 373.577C309.286 374.17 305.695 375.829 303.714 374.634C301.096 373.053 303.96 371.46 305.373 370.746C308.026 369.406 307.879 367.701 305.311 366.304C301.164 364.049 307.108 363.951 307.728 361.917C308.512 359.347 305.246 356.873 305.474 354.068C305.691 351.39 306.519 346.687 308.61 344.772C310.055 343.45 312.526 343.567 314.337 343.274C317.269 342.8 320.138 341.928 322.964 341.029C323.824 346.077 327.844 341.539 329.43 339.524C332.417 335.728 333.653 331.133 335.229 326.649C337.004 321.598 338.513 316.639 339.453 311.357C340.477 305.6 339.997 300.061 339.138 294.317Z" fill="#111928"/>
<path fill-rule="evenodd" clip-rule="evenodd" d="M140.838 354.82C140.016 355.746 136.082 354.465 135.002 354.331C131.796 353.931 128.791 354.033 125.619 353.233C123.189 352.62 119.628 351.268 117.261 351.629C117.062 351.66 117.294 352.32 116.955 352.316C116.515 352.31 116.28 351.987 115.84 351.818C114.797 351.417 113.974 350.514 112.877 351.302C112.359 348.855 111.464 350.999 110.234 350.981C108.936 350.962 109.411 349.418 108.051 349.219C106.971 349.061 106.52 349.731 105.326 349.27C103.671 348.632 102.497 347.704 100.681 347.261C98.6263 346.76 97.2684 346.041 95.3775 345.203C93.7243 344.471 91.8921 344.239 90.2158 343.55C85.8785 341.766 81.6311 339.559 77.511 337.327C69.6738 333.081 61.9361 329.086 54.8921 323.549C52.3139 321.523 50.4957 319.277 48.4526 316.754C47.0656 315.04 44.6789 311.752 42.0862 312.297C42.6929 310.619 41.0752 309.161 40.0104 308.125C38.3658 306.526 36.9627 304.837 35.6021 302.978C34.3216 301.23 33.4224 299.464 32.6281 297.466C32.0258 295.951 31.637 294.437 29.9849 295.953C26.6941 298.972 30.919 304.93 32.7443 307.584C35.7634 311.972 38.7681 316.432 42.3616 320.375C49.0625 327.728 56.6991 334.422 65.2924 339.454C69.733 342.054 74.4112 344.354 79.2287 346.166C83.5321 347.784 87.7823 348.634 92.1986 349.792C94.8301 350.482 97.3335 351.394 100.019 351.875C101.063 352.062 102.09 352.315 103.151 352.368C103.426 352.383 103.88 352.021 104.055 352.037C104.477 352.076 104.8 352.462 105.418 352.597C106.154 352.759 106.884 352.689 107.457 352.935C107.691 353.035 108.267 353.76 108.877 353.985C109.87 354.352 110.639 354.522 111.657 354.213C112.52 353.951 113.22 353.051 114.188 353.142C114.053 353.72 113.917 354.298 113.782 354.876C114.766 354.498 115.226 354.841 116.129 354.666C115.954 354.7 118.021 354.225 117.813 354.169C117.956 354.207 118.489 355.182 119.002 355.425C121.119 356.428 123.703 355.681 125.94 355.85C128.237 356.023 130.49 356.36 132.805 356.527C134.508 356.649 142.512 357.68 142.687 354.766C142.066 354.622 141.45 354.64 140.838 354.82Z" fill="#111928"/>
<path fill-rule="evenodd" clip-rule="evenodd" d="M356.581 87.0081C357.243 81.3575 355.362 76.6402 353.898 71.3301C352.698 66.9787 351.212 62.6445 348.173 59.1542C345.413 55.9846 341.237 51.9328 336.764 51.7178C333.286 51.5507 330.911 54.2699 333.944 56.787C336.971 59.2976 339.721 60.9207 342.115 64.1954C344.873 67.9681 346.952 72.2268 348.495 76.624C351.305 84.6344 352.9 94.0808 350.243 102.31C349.979 103.126 348.939 105.459 349.98 106.114C351.172 106.864 352.093 105.07 352.42 104.301C352.725 103.584 354.09 96.8054 355.303 97.7102C355.227 96.7774 354.824 96.3409 354.882 95.4189C354.915 94.8859 355.375 94.1288 355.417 93.4385C355.555 91.1763 356.321 89.2272 356.581 87.0081Z" fill="#111928"/>
<path fill-rule="evenodd" clip-rule="evenodd" d="M147.426 57.4561C151.076 57.5349 151.203 49.3552 152.339 47.1362C152.873 46.0945 153.428 44.8411 154.019 43.8696C154.478 43.1158 155.04 43.0021 155.377 42.4033C156.498 40.4148 155.718 38.8343 155.215 36.9118C156.541 36.6989 156.991 36.7043 157.467 35.3806C157.608 34.9898 157.271 34.2805 157.55 33.9861C157.934 33.5814 158.583 33.8006 158.974 33.4607C159.076 33.3717 159.037 32.5188 159.161 32.1987C159.44 31.4755 159.663 31.1983 160.2 30.6455C160.923 29.9009 162.89 29.4961 162.238 28.1933C162.724 28.1729 163.187 28.0598 163.628 27.8539C163.77 27.2036 162.445 27.4508 162.552 27.0771C162.781 26.2842 164.027 25.2409 164.815 25.0789C164.143 24.7289 163.47 24.3782 162.797 24.0276C164.488 23.6722 164.44 22.6696 166.161 23.8078C165.972 22.2193 168.141 20.7615 169.081 19.7386C170.849 17.8161 172.827 16.1852 174.781 14.4546C176.481 12.9502 178.052 11.3461 179.638 9.72754C180.449 8.89923 181.274 8.08324 182.206 7.39057C183.158 6.68289 183.902 6.82174 184.778 6.33816C186.176 5.56614 187.022 4.00012 188.428 3.21308C189.061 2.85817 189.332 3.25973 189.793 2.81528C190.223 2.39978 190.613 1.02998 190.362 0.499754C189.308 -1.7316 181.687 4.18722 180.491 4.95656C165.96 14.3055 154.261 27.1918 147.896 43.3608C147.031 45.5579 142.101 57.3392 147.426 57.4561Z" fill="#111928"/>
<path fill-rule="evenodd" clip-rule="evenodd" d="M143.265 356.228C144.256 356.012 145.252 355.795 146.717 355.477C144.098 354.043 143.883 354.115 143.265 356.228Z" fill="#111928"/>
<path fill-rule="evenodd" clip-rule="evenodd" d="M194.601 97.6647C196.55 97.4807 200.802 95.4717 200.158 92.7328C199.565 90.2049 197.269 92.9289 195.697 92.6438C194.019 92.3399 193.239 88.7584 191.828 92.4112C191.071 94.3727 192.188 97.8929 194.601 97.6647Z" fill="#111928"/>
</svg>
