<?xml version="1.0" standalone="no"?><!DOCTYPE svg PUBLIC "-//W3C//DTD SVG 1.1//EN" "http://www.w3.org/Graphics/SVG/1.1/DTD/svg11.dtd"><svg t="1753591332183" class="icon" viewBox="0 0 1024 1024" version="1.1" xmlns="http://www.w3.org/2000/svg" p-id="5015" xmlns:xlink="http://www.w3.org/1999/xlink" width="200" height="200"><path d="M767.818667 409.173333C867.338667 444.266667 938.666667 539.136 938.666667 650.666667c0 42.709333-10.496 83.978667-30.261334 120.842666-1.792 3.338667-4.992 8.928-9.696 16.96l14.613334 53.557334c6.506667 23.893333-15.402667 45.813333-39.296 39.296l-53.642667-14.634667-6.229333 3.669333A254.933333 254.933333 0 0 1 682.666667 906.666667c-77.994667 0-147.84-34.88-194.805334-89.888a352.608 352.608 0 0 1-56.64 4.554666c-63.338667 0-124.266667-16.853333-177.472-48.298666-1.834667-1.088-6.410667-3.733333-13.632-7.893334l-80.544 21.653334c-23.914667 6.432-45.76-15.573333-39.146666-39.434667l21.792-78.752a961.205333 961.205333 0 0 1-15.904-27.317333A336.384 336.384 0 0 1 85.333333 480c0-188.618667 154.965333-341.333333 345.888-341.333333 159.914667 0 297.984 108.010667 335.818667 259.296 0.949333 3.765333 1.173333 7.552 0.778667 11.2z m-68.106667-13.952C662.88 282.037333 555.178667 202.666667 431.221333 202.666667 275.434667 202.666667 149.333333 326.933333 149.333333 480c0 46.272 11.498667 90.837333 33.194667 130.698667 2.88 5.290667 10.176 17.706667 21.621333 36.746666a32 32 0 0 1 3.413334 25.013334l-10.517334 37.994666 39.232-10.549333a32 32 0 0 1 24.234667 3.146667c14.272 8.192 22.773333 13.098667 25.802667 14.890666A283.882667 283.882667 0 0 0 431.221333 757.333333c6.154667 0 12.288-0.192 18.389334-0.576A255.061333 255.061333 0 0 1 426.666667 650.666667c0-141.386667 114.613333-256 256-256 5.728 0 11.413333 0.192 17.045333 0.554666z m133.706667 397.056a32 32 0 0 1 3.338666-24.725333 996.672 996.672 0 0 0 15.242667-26.293333A190.997333 190.997333 0 0 0 874.666667 650.666667c0-106.037333-85.962667-192-192-192s-192 85.962667-192 192 85.962667 192 192 192a190.933333 190.933333 0 0 0 98.570666-27.2c2.208-1.322667 8.288-4.874667 18.517334-10.837334a32 32 0 0 1 24.522666-3.210666l12.565334 3.424-3.424-12.565334zM330.666667 426.666667a42.666667 42.666667 0 1 1 0-85.333334 42.666667 42.666667 0 0 1 0 85.333334z m192 0a42.666667 42.666667 0 1 1 0-85.333334 42.666667 42.666667 0 0 1 0 85.333334z m85.333333 202.666666a32 32 0 1 1 0-64 32 32 0 0 1 0 64z m149.333333 0a32 32 0 1 1 0-64 32 32 0 0 1 0 64z" fill="#000000" p-id="5016"></path></svg>