<svg width="50" height="50" viewBox="0 0 50 50" fill="none" xmlns="http://www.w3.org/2000/svg">
<rect x="0.625" y="0.625" width="48.75" height="48.75" rx="14.375" fill="black" stroke="white" stroke-width="1.25"/>
<path d="M18.0876 23.1894L24.7284 18.7483L31.7252 23.2522C32.5632 23.2522 33.4011 23.0009 34.1134 22.5609L39.9791 18.7902L24.1208 11.5L9.75 19.6281L16.3489 22.7914C16.8935 23.0428 17.501 23.1685 18.0876 23.1894V23.1894ZM26.4881 36.1776L12.222 29.3483L9.75 30.7519L26.3624 38.6915L40 29.914L37.7794 28.9084L26.4881 36.1776Z" fill="white"/>
<path d="M26.4881 32.2602L12.222 25.4519L9.75 26.8345L26.3624 34.7741L40 26.0175L37.7794 24.991L26.4881 32.2602Z" fill="white"/>
<path d="M34.8257 23.5874C33.9249 24.174 32.8565 24.4882 31.7881 24.4882H31.7671L18.2552 24.4254C17.4382 24.4254 16.6002 24.2368 15.8461 23.8807L11.6354 21.8696L9.75 22.938L26.3624 30.8567L40 22.1001L38.345 21.3459L34.8257 23.5874V23.5874Z" fill="white"/>
</svg>
