<?xml version="1.0" standalone="no"?><!DOCTYPE svg PUBLIC "-//W3C//DTD SVG 1.1//EN" "http://www.w3.org/Graphics/SVG/1.1/DTD/svg11.dtd"><svg t="1716013001545" class="icon" viewBox="0 0 1024 1024" version="1.1" xmlns="http://www.w3.org/2000/svg" p-id="1668" xmlns:xlink="http://www.w3.org/1999/xlink" width="200" height="200"><path d="M829.550419 668.861405m-105.162229 0a105.162228 105.162228 0 1 0 210.324457 0 105.162228 105.162228 0 1 0-210.324457 0Z" fill="#FAE1DC" p-id="1669"></path><path d="M191.556826 668.861405m-105.162228 0a105.162228 105.162228 0 1 0 210.324457 0 105.162228 105.162228 0 1 0-210.324457 0Z" fill="#FAE1DC" p-id="1670"></path><path d="M519.778689 638.663865m-352.598615 0a352.598615 352.598615 0 1 0 705.19723 0 352.598615 352.598615 0 1 0-705.19723 0Z" fill="#FAE1DC" p-id="1671"></path><path d="M769.931443 395.390223V282.81972c0-137.582251-112.570503-250.117477-250.117477-250.117477-137.582251 0-250.117477 112.570503-250.117477 250.117477v112.570503h500.234954z" fill="#6E401E" p-id="1672"></path><path d="M101.951976 395.390223c39.263858 134.371998 211.382782 235.547869 417.826713 235.547869s378.562855-101.175871 417.826713-235.547869H101.951976z" fill="#6E401E" p-id="1673"></path><path d="M554.033142 208.560582l75.811348 12.770455L573.612154 273.718125l11.253523 76.023013-67.203638-37.288318-68.791126 34.219175 14.67544-75.458573-53.798187-54.856513 76.305233-9.348537 35.55972-68.120853z" fill="#EFCA42" p-id="1674"></path><path d="M584.407069 733.031178h-106.996658c-58.27843 0-105.973611 47.69518-105.973611 105.973611v42.05078h129.997589c15.345713-13.087953 29.20977-34.219175 33.266682-68.438351 3.986358 15.275158 8.219658 46.319358 27.516451 68.438351H690.38068v-42.05078c0-58.27843-47.69518-105.973611-105.973611-105.973611z" fill="#6E401E" p-id="1675"></path></svg>