<?xml version="1.0" standalone="no"?><!DOCTYPE svg PUBLIC "-//W3C//DTD SVG 1.1//EN" "http://www.w3.org/Graphics/SVG/1.1/DTD/svg11.dtd"><svg t="1716013020661" class="icon" viewBox="0 0 1024 1024" version="1.1" xmlns="http://www.w3.org/2000/svg" p-id="2146" xmlns:xlink="http://www.w3.org/1999/xlink" width="200" height="200"><path d="M105.867778 417.403383h814.628036v539.816309H105.867778zM920.495814 417.403383C902.751232 236.888414 726.36373 95.143418 513.181796 95.143418S123.612361 236.888414 105.867778 417.403383h814.628036z" fill="#D64A29" p-id="2147"></path><path d="M513.181796 539.251869m-344.34368 0a344.34368 344.34368 0 1 0 688.68736 0 344.34368 344.34368 0 1 0-688.68736 0Z" fill="#FAE2DD" p-id="2148"></path><path d="M244.896407 190.851276h536.535501v271.95425H244.896407z" fill="#D64A29" p-id="2149"></path><path d="M703.750853 177.198884l-75.846626-128.551211-101.951976 150.246873L675.211355 225.070452l82.196576 130.879526 100.117545-147.565784z" fill="#D0A523" p-id="2150"></path><path d="M828.880146 557.560892m-111.653288 0a111.653288 111.653288 0 1 0 223.306576 0 111.653288 111.653288 0 1 0-223.306576 0Z" fill="#FAE2DD" p-id="2151"></path><path d="M195.084576 557.560892m-111.653288 0a111.653288 111.653288 0 1 0 223.306577 0 111.653288 111.653288 0 1 0-223.306577 0Z" fill="#FAE2DD" p-id="2152"></path></svg>