<?xml version="1.0" standalone="no"?><!DOCTYPE svg PUBLIC "-//W3C//DTD SVG 1.1//EN" "http://www.w3.org/Graphics/SVG/1.1/DTD/svg11.dtd"><svg t="1716013013374" class="icon" viewBox="0 0 1024 1024" version="1.1" xmlns="http://www.w3.org/2000/svg" p-id="1989" xmlns:xlink="http://www.w3.org/1999/xlink" width="200" height="200"><path d="M238.828677 570.825232S51.716815 308.854515 272.307024 100.082268l86.676819 86.676818 169.402556-161.500396 155.573776 167.427016 90.592621-94.5437s224.506012 198.929824 15.733765 498.294691" fill="#EAEAEA" p-id="1990"></path><path d="M778.009991 725.446515m-89.604851 0a89.604851 89.604851 0 1 0 179.209701 0 89.604851 89.604851 0 1 0-179.209701 0Z" fill="#FAE2DD" p-id="1991"></path><path d="M234.454267 725.446515m-89.604851 0a89.604851 89.604851 0 1 0 179.209701 0 89.604851 89.604851 0 1 0-179.209701 0Z" fill="#FAE2DD" p-id="1992"></path><path d="M514.099011 699.729218m-300.423192 0a300.423192 300.423192 0 1 0 600.846384 0 300.423192 300.423192 0 1 0-600.846384 0Z" fill="#FAE2DD" p-id="1993"></path><path d="M396.41327 763.722603c-26.52868 0-51.469873-10.336308-70.237503-29.103938-18.76763-18.76763-29.103938-43.708823-29.103937-70.237503 0-26.52868 10.336308-51.469873 29.103937-70.237503 18.76763-18.76763 43.708823-29.103938 70.237503-29.103937s51.469873 10.336308 70.237503 29.103937c18.76763 18.76763 29.103938 43.708823 29.103938 70.237503 0 26.52868-10.336308 51.469873-29.103938 70.237503-18.76763 18.76763-43.708823 29.103938-70.237503 29.103938z m0-189.052124c-49.494333 0-89.745961 40.251628-89.74596 89.745961s40.251628 89.745961 89.74596 89.745961 89.745961-40.251628 89.745961-89.745961-40.286905-89.745961-89.745961-89.745961zM631.784752 763.722603c-26.52868 0-51.469873-10.336308-70.237503-29.103938-18.76763-18.76763-29.103938-43.708823-29.103938-70.237503 0-26.52868 10.336308-51.469873 29.103938-70.237503 18.76763-18.76763 43.708823-29.103938 70.237503-29.103937s51.469873 10.336308 70.237503 29.103937c18.76763 18.76763 29.103938 43.708823 29.103938 70.237503 0 26.52868-10.336308 51.469873-29.103938 70.237503s-43.708823 29.103938-70.237503 29.103938z m0-189.052124c-49.494333 0-89.745961 40.251628-89.745961 89.745961s40.251628 89.745961 89.745961 89.745961 89.745961-40.251628 89.745961-89.745961-40.251628-89.745961-89.745961-89.745961z" fill="#FFFFFF" p-id="1994"></path><path d="M537.629104 669.708065h-47.024908v-16.192373H537.629104v16.192373z m-46.28408-0.776105h45.507975v-14.67544h-45.507975v14.67544zM633.09002 852.233851H395.108003c-0.670273 0-1.164158-0.529163-1.164158-1.164157V806.090881c0-0.670273 0.493885-1.164158 1.164158-1.164158h237.982017c0.670273 0 1.164158 0.493885 1.164157 1.164158v44.978813c0 0.670273-0.493885 1.164158-1.164157 1.164157z" fill="#FFFFFF" p-id="1995"></path></svg>