<?xml version="1.0" standalone="no"?><!DOCTYPE svg PUBLIC "-//W3C//DTD SVG 1.1//EN" "http://www.w3.org/Graphics/SVG/1.1/DTD/svg11.dtd"><svg t="1716013006940" class="icon" viewBox="0 0 1024 1024" version="1.1" xmlns="http://www.w3.org/2000/svg" p-id="1826" xmlns:xlink="http://www.w3.org/1999/xlink" width="200" height="200"><path d="M737.221434 558.672472a76.904951 72.001378 12.873 1 0 32.082481-140.383433 76.904951 72.001378 12.873 1 0-32.082481 140.383433Z" fill="#002536" p-id="1827"></path><path d="M702.579621 666.547703a76.904951 72.001378 12.873 1 0 32.082481-140.383432 76.904951 72.001378 12.873 1 0-32.082481 140.383432Z" fill="#002536" p-id="1828"></path><path d="M677.211994 734.450483a68.085575 63.78172 12.873 1 0 28.419954-124.357299 68.085575 63.78172 12.873 1 0-28.419954 124.357299Z" fill="#002536" p-id="1829"></path><path d="M658.026457 785.552541a51.328763 48.083233 12.873 1 0 21.424998-93.749446 51.328763 48.083233 12.873 1 0-21.424998 93.749446Z" fill="#002536" p-id="1830"></path><path d="M637.641742 818.89975a38.94636 36.476935 12.873 1 0 16.253447-71.120269 38.94636 36.476935 12.873 1 0-16.253447 71.120269Z" fill="#002536" p-id="1831"></path><path d="M620.883669 862.96708a32.349468 30.303373 12.873 1 0 13.502622-59.083473 32.349468 30.303373 12.873 1 0-13.502622 59.083473Z" fill="#002536" p-id="1832"></path><path d="M604.843996 899.159634a24.83536 23.247873 12.873 1 0 10.358822-45.327134 24.83536 23.247873 12.873 1 0-10.358822 45.327134Z" fill="#002536" p-id="1833"></path><path d="M582.466807 886.911634s-34.536673 11.888518-44.202708 62.688118c-1.023048 30.126985-6.91439 50.023495-23.071485 58.313708 35.665553 3.210253 103.433631-26.140628 104.280291-109.501361-13.581838-23.071485-19.437903-25.82313-19.437903-25.82313l-17.568195 14.322665z" fill="#002536" p-id="1834"></path><path d="M513.252351 380.785338m-310.089227 0a310.089227 310.089227 0 1 0 620.178455 0 310.089227 310.089227 0 1 0-620.178455 0Z" fill="#FAE2DD" p-id="1835"></path><path d="M840.839219 327.516312c-36.759155-176.034726-169.508389-306.38509-327.586868-306.385089S222.459917 151.481586 185.665484 327.516312h655.173735z" fill="#002536" p-id="1836"></path><path d="M806.725876 410.100941m-82.549351 0a82.549351 82.549351 0 1 0 165.098702 0 82.549351 82.549351 0 1 0-165.098702 0Z" fill="#FAE2DD" p-id="1837"></path><path d="M217.274124 410.100941m-82.549351 0a82.549351 82.549351 0 1 0 165.098702 0 82.549351 82.549351 0 1 0-165.098702 0Z" fill="#FAE2DD" p-id="1838"></path></svg>