<?xml version="1.0" standalone="no"?><!DOCTYPE svg PUBLIC "-//W3C//DTD SVG 1.1//EN" "http://www.w3.org/Graphics/SVG/1.1/DTD/svg11.dtd"><svg t="1716012984868" class="icon" viewBox="0 0 1024 1024" version="1.1" xmlns="http://www.w3.org/2000/svg" p-id="1436" id="mx_n_1716012984869" xmlns:xlink="http://www.w3.org/1999/xlink" width="200" height="200"><path d="M113.805216 533.889689a419.837531 401.034623 90 1 0 802.069246 0 419.837531 401.034623 90 1 0-802.069246 0Z" fill="#002538" p-id="1437"></path><path d="M514.839839 482.631481m-337.71151 0a337.71151 337.71151 0 1 0 675.42302 0 337.71151 337.71151 0 1 0-675.42302 0Z" fill="#FAE2DD" p-id="1438"></path><path d="M514.169566 138.499466c-168.485341 0-312.241155 105.515003-369.03793 254.033279 14.81655 2.68109 30.05643 4.162745 45.649085 4.162745 125.270403 0 229.515417-90.416233 251.987185-209.901126 8.537155 134.830606 119.837668 241.545044 255.973542 241.545044 65.89837 0 126.011231-25.047025 171.448651-66.145313-63.816998-132.396458-199.247321-223.694629-356.020533-223.694629zM520.307851 667.732525c-99.023943 0-179.280256 54.962345-179.280256 122.730423s80.256313 122.730423 179.280256 122.730424 179.280256-54.962345 179.280257-122.730424-80.256313-122.730423-179.280257-122.730423z m3.633583 136.770868c-54.539015 0-68.191408-61.770903-68.191408-61.770903h136.382816s-13.652393 61.770903-68.191408 61.770903z" fill="#002538" p-id="1439"></path></svg>