<?xml version="1.0" standalone="no"?><!DOCTYPE svg PUBLIC "-//W3C//DTD SVG 1.1//EN" "http://www.w3.org/Graphics/SVG/1.1/DTD/svg11.dtd"><svg t="1716012996374" class="icon" viewBox="0 0 1024 1024" version="1.1" xmlns="http://www.w3.org/2000/svg" p-id="1511" xmlns:xlink="http://www.w3.org/1999/xlink" width="200" height="200"><path d="MNaN NaNaNaN NaN NaN 1 0 NaN NaN NaN NaN NaN 1 0 NaN NaNZ" fill="#98383A" p-id="1512"></path><path d="M571.989389 655.067902m-298.341819 0a298.34182 298.34182 0 1 0 596.683639 0 298.34182 298.34182 0 1 0-596.683639 0Z" fill="#FAE1DC" p-id="1513"></path><path d="M777.868881 346.777828l-259.889345-57.149551-168.802838 57.184828-119.731836 189.934061 5.397457 115.498536s65.439763-50.764323 170.178661-83.607675c-2.151928-21.554553-5.432735-77.363558 16.227651-95.778414 6.279395 50.764323 7.231888 66.60392 12.911565 87.382369 89.816516-23.353705 203.621731-31.0442 327.798532 12.6999 5.009405-12.311848 11.14769-35.171668 6.20884-66.709753 7.937438 23.9887 16.36876 40.07524 14.463775 74.400248 37.25304 14.710718 75.352741 34.183898 113.946326 59.301478 8.219658-145.413856-118.708788-293.156027-118.708788-293.156027z" fill="#98383A" p-id="1514"></path><path d="M40.298799 524.050142a214.275537 398.282978 66.334 1 0 729.575518-319.745033 214.275537 398.282978 66.334 1 0-729.575518 319.745033Z" fill="#63BCBC" p-id="1515"></path><path d="M150.007616 337.339519a173.247804 225.881834 64.26 1 0 406.936989-196.195563 173.247804 225.881834 64.26 1 0-406.936989 196.195563Z" fill="#508D92" p-id="1516"></path><path d="M599.011954 753.774348l-36.088882 27.79867-36.900266-24.41203-57.57288 49.317945c0.42333 26.10535 28.92755 94.720088 100.964206 92.144831 91.545113-6.279395 91.933166-101.140593 91.933165-101.140593L599.011954 753.774348z m-28.680607 97.577566c-23.247873 1.481655-30.021153-26.66979-30.021153-26.66979l56.126503-2.610535s-2.857478 27.79867-26.10535 29.280325z" fill="#E15B48" p-id="1517"></path></svg>