<?xml version="1.0" encoding="UTF-8"?>
<svg
  version="1.1"
  xmlns="http://www.w3.org/2000/svg"
  xmlns:xlink="http://www.w3.org/1999/xlink"
  viewBox="0 0 14 14"
>
  <path d="M2.5638852,4.00389099 C1.97751564,4.00389099 1.85394185,4.02775419 1.73055258,4.09374349 C1.66602937,4.12825089 1.62435989,4.16992036 1.5898525,4.23444358 C1.5238632,4.35783284 1.5,4.48140663 1.5,5.06777619 L1.5,11.4361148 C1.5,12.0224844 1.5238632,12.1460581 1.5898525,12.2694474 C1.62435989,12.3339706 1.66602937,12.3756401 1.73055258,12.4101475 C1.85394185,12.4761368 1.97751564,12.5 2.5638852,12.5 L11.4361148,12.5 C12.0224844,12.5 12.1460581,12.4761368 12.2694474,12.4101475 C12.3339706,12.3756401 12.3756401,12.3339706 12.4101475,12.2694474 C12.4761368,12.1460581 12.5,12.0224844 12.5,11.4361148 L12.5,5.06777619 C12.5,4.48140663 12.4761368,4.35783284 12.4101475,4.23444358 C12.3756401,4.16992036 12.3339706,4.12825089 12.2694474,4.09374349 C12.1460581,4.02775419 12.0224844,4.00389099 11.4361148,4.00389099 L2.5638852,4.00389099 Z M2.5638852,0 L11.4361148,0 C12.3276335,0 12.6509198,0.0928256111 12.9768457,0.267132704 C13.3027716,0.441439796 13.5585602,0.697228371 13.7328673,1.0231543 C13.9071744,1.34908022 14,1.67236646 14,2.5638852 L14,11.4361148 C14,12.3276335 13.9071744,12.6509198 13.7328673,12.9768457 C13.5585602,13.3027716 13.3027716,13.5585602 12.9768457,13.7328673 C12.6509198,13.9071744 12.3276335,14 11.4361148,14 L2.5638852,14 C1.67236646,14 1.34908022,13.9071744 1.0231543,13.7328673 C0.697228371,13.5585602 0.441439796,13.3027716 0.267132704,12.9768457 C0.0928256111,12.6509198 0,12.3276335 0,11.4361148 L0,2.5638852 C0,1.67236646 0.0928256111,1.34908022 0.267132704,1.0231543 C0.441439796,0.697228371 0.697228371,0.441439796 1.0231543,0.267132704 C1.34908022,0.0928256111 1.67236646,0 2.5638852,0 Z M6.60827243,7.88013208 C6.78677948,7.99017068 6.92632446,8.13586302 7.02563114,8.31608625 C7.12516029,8.49671323 7.17444478,8.71027933 7.17444478,8.9554024 C7.17444478,9.26042304 7.09458389,9.55304765 6.93566937,9.83174103 C6.77538519,10.1128364 6.54407932,10.3297606 6.24381138,10.4810861 C5.94540062,10.6314756 5.55879429,10.7056433 5.08405217,10.7056433 C4.62315853,10.7056433 4.25679776,10.6510666 3.98380762,10.5399797 C3.70934324,10.4282929 3.48240403,10.2640606 3.30440443,10.0478329 C3.12805817,9.83361358 2.99343194,9.56612479 2.9000001,9.24612071 L2.98283969,9.11896253 L4.35355,8.93709925 L4.46485161,9.01707949 C4.51509639,9.274584 4.59088114,9.44802427 4.6861205,9.53760584 C4.78031584,9.62620542 4.89992613,9.67041934 5.05037379,9.67041934 C5.20638667,9.67041934 5.33271256,9.61489147 5.43606184,9.50111245 C5.54064959,9.38596997 5.59363096,9.23042835 5.59363096,9.02949485 C5.59363096,8.82421978 5.54282963,8.67133198 5.44386571,8.56577046 C5.34581006,8.46117777 5.21246981,8.40877739 5.03690243,8.40877739 C4.940102,8.40877739 4.8002636,8.43420255 4.61981985,8.48575791 L4.49260711,8.38240774 L4.56333172,7.40236671 L4.67762175,7.31062857 C4.7495572,7.32120731 4.80463865,7.32640368 4.84156779,7.32640368 C4.99603629,7.32640368 5.12107828,7.27863483 5.22217495,7.1822623 C5.32279379,7.08634528 5.37135361,6.97651838 5.37135361,6.84713544 C5.37135361,6.722085 5.33602621,6.62758421 5.26592939,6.55748739 C5.1960994,6.4876574 5.09821525,6.45206316 4.96617782,6.45206316 C4.82951843,6.45206316 4.72325489,6.4915714 4.64164292,6.57046298 C4.55936951,6.64999394 4.49865583,6.80177812 4.4656423,7.0266828 L4.34906155,7.11059121 L3.05244369,6.87821034 L2.97332297,6.75453648 C3.08679789,6.31954925 3.30702416,5.98294325 3.63313024,5.74881581 C3.95868951,5.51508094 4.41255466,5.4 4.99312053,5.4 C5.65877252,5.4 6.14637512,5.52571922 6.45490983,5.78363496 C6.76483892,6.0427163 6.92185689,6.37269938 6.92185689,6.76630731 C6.92185689,6.99943375 6.85758381,7.21202929 6.72960167,7.40154132 C6.63860335,7.53628882 6.51541935,7.65798876 6.36055846,7.76690917 C6.45917626,7.80107221 6.54169576,7.83870598 6.60827243,7.88013208 Z M8.35473185,7.73466014 C8.13924866,7.8429779 7.87085874,7.94598469 7.54923148,8.0440696 L7.42006133,7.94841866 L7.42006133,6.82356057 L7.48940117,6.72837677 C7.94541079,6.58148906 8.29715313,6.40616238 8.54458609,6.20391284 C8.79116591,6.00236063 8.98398529,5.75383787 9.12361714,5.45738873 L9.21408414,5.4 L10.3490457,5.4 L10.4490457,5.5 L10.4490457,10.5214473 L10.3490457,10.6214473 L8.96149625,10.6214473 L8.86149625,10.5214473 L8.86149625,7.42808474 C8.68861763,7.54952106 8.51971893,7.65172546 8.35473185,7.73466014 Z"></path>
</svg>