<?xml version="1.0" encoding="UTF-8"?>
<svg
  version="1.1"
  xmlns="http://www.w3.org/2000/svg"
  xmlns:xlink="http://www.w3.org/1999/xlink"
  viewBox="0 0 14 14"
>
  <path d="M2,2.22044605e-16 L12,0 C13.1045695,7.78148667e-16 14,0.8954305 14,2 L14,12 C14,13.1045695 13.1045695,14 12,14 L2,14 C0.8954305,14 1.11632554e-15,13.1045695 0,12 L0,2 C-1.3527075e-16,0.8954305 0.8954305,2.02906125e-16 2,2.22044605e-16 Z M5.75,5.67000008 L5.75,8.33000016 L12.5,8.33000016 L12.5,5.67000008 L5.75,5.67000008 Z M5.75,9.84000015 L5.75,12.5000002 L11.5,12.5000002 C12.0522847,12.5000002 12.5,12.052285 12.5,11.5000002 L12.5,9.84000015 L5.75,9.84000015 Z M1.5,5.67000008 L1.5,8.33000016 L4.25,8.33000016 L4.25,5.67000008 L1.5,5.67000008 Z M1.5,9.84000015 L1.5,11.5000002 C1.5,12.052285 1.94771525,12.5000002 2.5,12.5000002 L4.25,12.5000002 L4.25,9.84000015 L1.5,9.84000015 Z M2.5,1.5 C1.94771525,1.5 1.5,1.94771525 1.5,2.5 L1.5,4.16000009 L4.25,4.16000009 L4.25,1.5 L2.5,1.5 Z M5.75,1.5 L5.75,4.16000009 L12.5,4.16000009 L12.5,2.5 C12.5,1.94771525 12.0522847,1.5 11.5,1.5 L5.75,1.5 Z"></path>
</svg>