<?xml version="1.0" encoding="UTF-8"?>
<svg
  version="1.1"
  xmlns="http://www.w3.org/2000/svg"
  xmlns:xlink="http://www.w3.org/1999/xlink"
  viewBox="0 0 14 14"
>
  <path
    d="M9.625,10.8465 C8.91187,10.2891 8.12088,9.926 7,9.26013 L7,8.71938 C7.21175,8.47612 7.392,8.176 7.53813,7.83213 C7.94587,7.7315 8.3125,7.33425 8.3125,7 C8.3125,6.51788 8.1095,6.32713 7.8715,6.17137 C7.8715,6.15562 7.875,6.14162 7.875,6.125 C7.875,5.41362 7.4375,3.5 5.25,3.5 C3.0625,3.5 2.625,5.4145 2.625,6.125 C2.625,6.14162 2.6285,6.15562 2.6285,6.17137 C2.3905,6.32713 2.1875,6.51788 2.1875,7 C2.1875,7.33425 2.55413,7.7315 2.96187,7.833 C3.108,8.176 3.28825,8.47612 3.5,8.71938 L3.5,9.26013 C2.37912,9.92513 1.58812,10.2882 0.875,10.8465 C0.041125,11.4984 0,12.4688 0,14 L10.5,14 C10.5,12.4688 10.4589,11.4984 9.625,10.8465 Z M13.125,7.3465 C12.4119,6.78912 11.6209,6.426 10.5,5.76013 L10.5,5.21938 C10.7118,4.97613 10.892,4.676 11.0381,4.33213 C11.4459,4.2315 11.8125,3.83425 11.8125,3.5 C11.8125,3.01787 11.6095,2.82713 11.3715,2.67138 C11.3715,2.65562 11.375,2.64162 11.375,2.625 C11.375,1.91363 10.9375,0 8.75,0 C6.5625,0 6.125,1.9145 6.125,2.625 C6.125,2.64162 6.1285,2.65562 6.1285,2.67138 C6.11188,2.68275 6.09787,2.69588 6.08125,2.70725 C7.83212,3.066 8.59688,4.54825 8.72813,5.74787 C8.97575,6.00863 9.1875,6.39625 9.1875,7 C9.1875,7.60288 8.771,8.20312 8.18388,8.51462 C8.127,8.624 8.06662,8.729 8.00275,8.82962 C8.155,8.91537 8.30025,8.99675 8.44025,9.07463 C9.08075,9.4325 9.63375,9.74137 10.164,10.1561 C10.3022,10.2638 10.4204,10.3801 10.5289,10.4991 L14,10.4991 C14,8.96875 13.9589,7.99837 13.125,7.3465 Z"
  ></path>
</svg>