<?xml version="1.0" encoding="UTF-8"?>
<svg
  version="1.1"
  xmlns="http://www.w3.org/2000/svg"
  xmlns:xlink="http://www.w3.org/1999/xlink"
  viewBox="0 0 16 16"
>
  <path
    d="M8.75488 1.02344C8.75488 0.613281 8.41309 0.264648 8.00293 0.264648C7.59277 0.264648 7.25098 0.613281 7.25098 1.02344V3.11523C7.25098 3.51855 7.59277 3.86719 8.00293 3.86719C8.41309 3.86719 8.75488 3.51855 8.75488 3.11523V1.02344ZM3.91504 5.0293C4.20215 5.31641 4.69434 5.32324 4.97461 5.03613C5.26855 4.74902 5.26855 4.25684 4.98145 3.96973L3.53906 2.52051C3.25195 2.2334 2.7666 2.21973 2.47949 2.50684C2.19238 2.79395 2.18555 3.28613 2.47266 3.57324L3.91504 5.0293ZM10.9629 4.01758C10.6826 4.30469 10.6826 4.79688 10.9697 5.08398C11.2568 5.37109 11.749 5.36426 12.0361 5.07715L13.4854 3.62793C13.7725 3.34082 13.7725 2.84863 13.4785 2.55469C13.1982 2.27441 12.7061 2.27441 12.4189 2.56152L10.9629 4.01758ZM15.0234 8.78906C15.4336 8.78906 15.7822 8.44727 15.7822 8.03711C15.7822 7.62695 15.4336 7.28516 15.0234 7.28516H12.9385C12.5283 7.28516 12.1797 7.62695 12.1797 8.03711C12.1797 8.44727 12.5283 8.78906 12.9385 8.78906H15.0234ZM0.975586 7.28516C0.56543 7.28516 0.223633 7.62695 0.223633 8.03711C0.223633 8.44727 0.56543 8.78906 0.975586 8.78906H3.07422C3.48438 8.78906 3.83301 8.44727 3.83301 8.03711C3.83301 7.62695 3.48438 7.28516 3.07422 7.28516H0.975586ZM12.0361 10.9902C11.749 10.71 11.2568 10.71 10.9629 10.9971C10.6826 11.2842 10.6826 11.7764 10.9697 12.0635L12.4258 13.5127C12.7129 13.7998 13.2051 13.793 13.4922 13.5059C13.7793 13.2256 13.7725 12.7266 13.4854 12.4395L12.0361 10.9902ZM2.52051 12.4395C2.22656 12.7266 2.22656 13.2188 2.50684 13.5059C2.79395 13.793 3.28613 13.7998 3.57324 13.5127L5.02246 12.0703C5.31641 11.7832 5.31641 11.291 5.03613 11.0039C4.74902 10.7168 4.25684 10.71 3.96973 10.9971L2.52051 12.4395ZM8.75488 12.9658C8.75488 12.5557 8.41309 12.207 8.00293 12.207C7.59277 12.207 7.25098 12.5557 7.25098 12.9658V15.0576C7.25098 15.4609 7.59277 15.8096 8.00293 15.8096C8.41309 15.8096 8.75488 15.4609 8.75488 15.0576V12.9658Z"
  ></path>
</svg>
