<?xml version="1.0" encoding="UTF-8"?>
<svg
  version="1.1"
  xmlns="http://www.w3.org/2000/svg"
  xmlns:xlink="http://www.w3.org/1999/xlink"
  viewBox="0 0 14 14"
>
  <path
    d="M3.73333,3.86667 L7.46667,3.86667 C8.49613,3.86667 9.33333,4.70387 9.33333,5.73333 C9.33333,6.7628 8.49613,7.6 7.46667,7.6 L6.53333,7.6 C6.01813,7.6 5.6,8.0186 5.6,8.53333 C5.6,9.04807 6.01813,9.46667 6.53333,9.46667 L7.46667,9.46667 C9.5284,9.46667 11.2,7.79507 11.2,5.73333 C11.2,3.6716 9.5284,2 7.46667,2 L3.73333,2 C1.6716,2 0,3.6716 0,5.73333 C0,7.124 0.762067,8.33453 1.88953,8.97713 C1.87553,8.83107 1.86667,8.6836 1.86667,8.53333 C1.86667,7.92013 1.98753,7.33447 2.2036,6.7978 C1.99267,6.4954 1.86667,6.12953 1.86667,5.73333 C1.86667,4.70387 2.70387,3.86667 3.73333,3.86667 Z M12.1095,5.28907 C12.1231,5.4356 12.1333,5.58307 12.1333,5.73333 C12.1333,6.34607 12.0101,6.9294 11.7931,7.46513 C12.0059,7.768 12.1333,8.13573 12.1333,8.53333 C12.1333,9.5628 11.2961,10.4 10.2667,10.4 L6.53333,10.4 C5.50387,10.4 4.66667,9.5628 4.66667,8.53333 C4.66667,7.50387 5.50387,6.66667 6.53333,6.66667 L7.46667,6.66667 C7.98187,6.66667 8.4,6.24807 8.4,5.73333 C8.4,5.2186 7.98187,4.8 7.46667,4.8 L6.53333,4.8 C4.4716,4.8 2.8,6.4716 2.8,8.53333 C2.8,10.59507 4.4716,12.2667 6.53333,12.2667 L10.2667,12.2667 C12.3284,12.2667 14,10.59507 14,8.53333 C14,7.14267 13.2375,5.93167 12.1095,5.28907 Z"
  ></path>
</svg>