<?xml version="1.0" encoding="UTF-8"?>
<svg
  version="1.1"
  xmlns="http://www.w3.org/2000/svg"
  xmlns:xlink="http://www.w3.org/1999/xlink"
  viewBox="0 0 14 14"
>
  <path d="M7.77892,7.06304 L4.62218,11.2875 C4.58556,11.3416 4.55285,11.4392 4.5504,11.5052 C4.5504,11.7022 4.7047,11.8619 4.89562,11.8619 L11.1383,11.8619 C11.6139,11.8619 11.9996,12.2598 11.9996,12.7507 L11.9996,13.1111 C11.9996,13.602 11.6139,14 11.1383,14 L1.861927,14 C1.385853,14 1.00011061,13.602 1.00011061,13.1111 L1.00011061,12.6858 C0.99718092,12.4783 1.0523567,12.3098 1.176868,12.1466 L4.39269,7.79888 C4.74816,7.31841 4.74572,6.65139 4.38683,6.17354 L1.400013,2.19436 C1.27306,2.03028 1.216419,1.85993 1.219349,1.65006 L1.219349,0.888889 C1.219349,0.397968 1.605091,0 2.08117,0 L10.91906,0 C11.3946,0 11.7804,0.397968 11.7804,0.888889 L11.7804,1.24925 C11.7804,1.74017 11.3946,2.13814 10.91906,2.13814 L5.13634,2.13814 C4.94542,2.13814 4.79064,2.29801 4.79064,2.49522 C4.79308,2.56049 4.82482,2.65709 4.86095,2.71087 L7.78038,6.68628 C7.8297,6.74847 7.84435,6.7934 7.84142,6.87363 C7.84435,6.95493 7.82921,7.00048 7.77892,7.06304 Z"></path>
</svg>