<?xml version="1.0" encoding="UTF-8"?>
<svg
  version="1.1"
  xmlns="http://www.w3.org/2000/svg"
  xmlns:xlink="http://www.w3.org/1999/xlink"
  viewBox="0 0 14 14"
>
  <path
    d="M5.94578,14 C4.62416,14 3.38248,13.4963 2.44892,12.585 C1.514641,11.6736 1,10.4639 1,9.17405 C1.00086108,7.88562 1.514641,6.67434 2.44892,5.76378 L7.45612,0.985988 C8.80142,-0.327216 11.1777,-0.332396 12.5354,0.992848 C13.9369,2.36163 13.9369,4.58722 12.5354,5.95418 L8.03046,10.2414 C7.16278,11.0877 5.73682,11.0894 4.86024,10.2345 C3.98394,9.37789 3.98394,7.98769 4.86024,7.1327 L6.60422,5.4317 L7.87576,6.67196 L6.13177,8.37297 C6.01668,8.48539 6.00003,8.61545 6.00003,8.68335 C6.00003,8.75083 6.01668,8.88103 6.13177,8.99429 C6.36197,9.21689 6.53749,9.21689 6.76768,8.99429 L11.2707,4.70622 C11.9645,4.03016 11.9645,2.91757 11.2638,2.23311 C10.5843,1.57007 9.40045,1.57007 8.72077,2.23311 L3.71342,7.0109 C3.12602,7.58406 2.79837,8.35435 2.79837,9.17405 C2.79837,9.99459 3.12602,10.7654 3.72045,11.3446 C4.90947,12.5062 6.98195,12.5062 8.17096,11.3446 L10.41911,9.15165 L11.6906,10.3919 L9.4425,12.585 C8.50808,13.4963 7.2664,14 5.94578,14 Z"
  ></path>
</svg>