<?xml version="1.0" encoding="UTF-8"?>
<svg
  version="1.1"
  xmlns="http://www.w3.org/2000/svg"
  xmlns:xlink="http://www.w3.org/1999/xlink"
  viewBox="0 0 14 14"
>
  <path
    d="M7,4.56818 C7,4.29204 6.77614,4.06818 6.5,4.06818 L0.5,4.06818 C0.223858,4.06818 0,4.29204 0,4.56818 L0,5.61364 C0,5.88978 0.223858,6.11364 0.5,6.11364 L6.5,6.11364 C6.77614,6.11364 7,5.88978 7,5.61364 L7,4.56818 Z M0.5,1 C0.223858,1 0,1.223858 0,1.5 L0,2.54545 C0,2.8216 0.223858,3.04545 0.5,3.04545 L12.5,3.04545 C12.7761,3.04545 13,2.8216 13,2.54545 L13,1.5 C13,1.223858 12.7761,1 12.5,1 L0.5,1 Z M0,8.68182 C0,8.95796 0.223858,9.18182 0.5,9.18182 L11.5,9.18182 C11.7761,9.18182 12,8.95796 12,8.68182 L12,7.63636 C12,7.36022 11.7761,7.13636 11.5,7.13636 L0.5,7.13636 C0.223858,7.13636 0,7.36022 0,7.63636 L0,8.68182 Z M0,11.75 C0,12.0261 0.223858,12.25 0.5,12.25 L9.5,12.25 C9.77614,12.25 10,12.0261 10,11.75 L10,10.70455 C10,10.4284 9.77614,10.20455 9.5,10.20455 L0.5,10.20455 C0.223858,10.20455 0,10.4284 0,10.70455 L0,11.75 Z"
  ></path>
</svg>