<?xml version="1.0" encoding="UTF-8"?>
<svg
  version="1.1"
  xmlns="http://www.w3.org/2000/svg"
  xmlns:xlink="http://www.w3.org/1999/xlink"
  viewBox="0 0 14 14"
>
  <path
    d="M4.46191,0 C3.8667,0 3.38428,0.482422 3.38428,1.07751 L3.38428,3.38425 L1.07764,3.38425 C0.482422,3.38425 0,3.86667 0,4.46179 C0,5.05688 0.482422,5.53931 1.07764,5.53931 L3.38428,5.53931 L3.38428,8.46063 L1.07764,8.46063 C0.482422,8.46063 0,8.94308 0,9.53818 C0,10.1333 0.482422,10.6157 1.07764,10.6157 L3.38428,10.6157 L3.38428,12.9224 C3.38428,13.5175 3.8667,13.9999 4.46191,13.9999 C5.05664,13.9999 5.53906,13.5175 5.53906,12.9224 L5.53906,10.6157 L8.46045,10.6157 L8.46045,12.9224 C8.46045,13.5175 8.94287,13.9999 9.53809,13.9999 C10.1333,13.9999 10.6157,13.5175 10.6157,12.9224 L10.6157,10.6157 L12.9224,10.6157 C13.5176,10.6157 14,10.1333 14,9.53818 C14,8.94308 13.5176,8.46063 12.9224,8.46063 L10.6157,8.46063 L10.6157,5.53931 L12.9224,5.53931 C13.5176,5.53931 14,5.05688 14,4.46179 C14,3.86667 13.5176,3.38425 12.9224,3.38425 L10.6157,3.38425 L10.6157,1.07751 C10.6157,0.482422 10.1333,0 9.53809,0 C8.94287,0 8.46045,0.482422 8.46045,1.07751 L8.46045,3.38425 L5.53906,3.38425 L5.53906,1.07751 C5.53906,0.482422 5.05664,0 4.46191,0 Z M5.53906,8.46063 L5.53906,5.53931 L8.46045,5.53931 L8.46045,8.46063 L5.53906,8.46063 Z"
  ></path>
</svg>