<?xml version="1.0" encoding="UTF-8"?>
<svg
  version="1.1"
  xmlns="http://www.w3.org/2000/svg"
  xmlns:xlink="http://www.w3.org/1999/xlink"
  viewBox="0 0 14 14"
>
  <path
    d="M4,3 C4,2.447715 4.447715,2 5,2 L12,2 C12.5523,2 13,2.447716 13,3 C13,3.55228 12.5523,4 12,4 L5,4 C4.447715,4 4,3.55228 4,3 Z M4,7 C4,6.447715 4.447715,6 5,6 L12,6 C12.5523,6 13,6.447716 13,7 C13,7.55228 12.5523,8 12,8 L5,8 C4.447715,8 4,7.55228 4,7 Z M4,11 C4,10.447715 4.447715,10 5,10 L12,10 C12.5523,10 13,10.447716 13,11 C13,11.55228 12.5523,12 12,12 L5,12 C4.447715,12 4,11.55228 4,11 Z M2,4 C1.44771525,4 1,3.55228475 1,3 C1,2.44771525 1.44771525,2 2,2 C2.55228475,2 3,2.44771525 3,3 C3,3.55228475 2.55228475,4 2,4 Z M2,8 C1.44771525,8 1,7.55228475 1,7 C1,6.44771525 1.44771525,6 2,6 C2.55228475,6 3,6.44771525 3,7 C3,7.55228475 2.55228475,8 2,8 Z M2,12 C1.44771525,12 1,11.5522847 1,11 C1,10.4477153 1.44771525,10 2,10 C2.55228475,10 3,10.4477153 3,11 C3,11.5522847 2.55228475,12 2,12 Z"
  ></path>
</svg>