<?xml version="1.0" encoding="UTF-8"?>
<svg
  version="1.1"
  xmlns="http://www.w3.org/2000/svg"
  xmlns:xlink="http://www.w3.org/1999/xlink"
  viewBox="0 0 14 14"
>
  <path d="M6.98643729,14.0000972 C5.19579566,14.0000972 3.40419152,13.3106896 2.04245843,11.9323606 C-0.681017475,9.21200555 -0.680780251,4.76029539 2.04293482,2.04012507 C4.76664406,-0.68004331 9.22427509,-0.68004331 11.9480135,2.04013479 C13.272481,3.36277455 14,5.1330091 14,6.99552762 C14,8.87640182 13.2721894,10.6285043 11.9480135,11.9509302 C10.5679344,13.3105924 8.77756503,14.0000972 6.98643729,14.0000972 Z M10.2705296,7.00913883 L10.2705296,8.46099754 L10.2705296,8.65543362 L10.076181,8.65543362 L8.6543739,8.65543362 L5.72059514,8.65543362 L5.52619796,8.65543362 L5.52619796,8.46099754 L5.52619796,5.52541044 L5.52619796,3.37946773 L5.52619796,3.18502193 L5.72059514,3.18502193 L7.17253164,3.18502193 L7.36692883,3.18502193 L7.36692883,3.37946773 L7.36692883,6.81467358 L10.076181,6.81467358 L10.2705296,6.81467358 L10.2705296,7.00913883 Z M12.1601539,6.99552762 C12.1601539,5.61697497 11.6190112,4.32597154 10.6393933,3.34769528 C8.63253764,1.34336744 5.35197452,1.34061603 3.34153136,3.33944106 C3.33868273,3.34219247 3.33607716,3.34494388 3.33322852,3.34769528 C1.32397148,5.35459953 1.32372842,8.63641682 3.33322852,10.6433794 C5.34295224,12.6504489 8.62968901,12.6504489 10.6393933,10.6433794 C11.6190112,9.66506426 12.1601539,8.37408027 12.1601539,6.99552762 Z"></path>
</svg>