<svg fill="none" height="48" viewBox="0 0 49 48" width="49" xmlns="http://www.w3.org/2000/svg"><path d="m24.5 48c13.2548 0 24-10.7452 24-24s-10.7452-24-24-24-24 10.7452-24 24 10.7452 24 24 24z" fill="#3056d3"/><path clip-rule="evenodd" d="m15.5 20.9998c1.1998-4.7998 4.2002-7.2 9-7.2 7.2 0 8.1 5.4 11.7 6.3 2.4002.6002 4.5-.2998 6.3-2.7-1.1998 4.7998-4.2002 7.2-9 7.2-7.2 0-8.1-5.4-11.7-6.3-2.4002-.6002-4.5.2998-6.3 2.7zm-9 10.8c1.19981-4.7998 4.2002-7.2 9-7.2 7.2 0 8.1 5.4 11.7 6.3 2.4002.6002 4.5-.2998 6.3-2.7-1.1998 4.7998-4.2002 7.2-9 7.2-7.2 0-8.1-5.4-11.7-6.3-2.4002-.6002-4.5.2998-6.3 2.7z" fill="#fff" fill-rule="evenodd"/></svg>