<svg width="132" height="46" viewBox="0 0 132 46" fill="none" xmlns="http://www.w3.org/2000/svg">
<g clip-path="url(#clip0_2005_10874)">
<path d="M54.9519 12.0439C56.8799 12.0439 58.5538 12.3618 59.9734 12.9974C61.4142 13.633 62.5159 14.5441 63.2787 15.7306C64.0415 16.9172 64.4228 18.3261 64.4228 19.9576C64.4228 21.5679 64.0415 22.9769 63.2787 24.1846C62.5159 25.3712 61.4142 26.2822 59.9734 26.9178C58.5538 27.5535 56.8799 27.8713 54.9519 27.8713H49.9303V34.2912H45.7987V12.0439H54.9519ZM54.7612 24.3753C56.5621 24.3753 57.9287 23.9939 58.861 23.2311C59.7933 22.4684 60.2594 21.3772 60.2594 19.9576C60.2594 18.5381 59.7933 17.4469 58.861 16.6841C57.9287 15.9213 56.5621 15.5399 54.7612 15.5399H49.9303V24.3753H54.7612ZM68.967 12.0439H73.0986V30.7952H84.7308V34.2912H68.967V12.0439ZM104.668 29.1426H93.5439L91.351 34.2912H87.0922L97.1035 12.0439H101.172L111.215 34.2912H106.892L104.668 29.1426ZM103.301 25.9008L99.1058 16.1756L94.9423 25.9008H103.301ZM122.726 26.4411V34.2912H118.594V26.5047L109.854 12.0439H114.272L120.787 22.8815L127.366 12.0439H131.434L122.726 26.4411Z" fill="white"/>
<path d="M16.7273 39.309C25.9655 39.309 33.4545 31.82 33.4545 22.5818C33.4545 13.3435 25.9655 5.85449 16.7273 5.85449C7.48905 5.85449 0 13.3435 0 22.5818C0 31.82 7.48905 39.309 16.7273 39.309Z" fill="white"/>
<path fill-rule="evenodd" clip-rule="evenodd" d="M10.5175 25.6612C8.74328 22.7044 9.0391 20.0428 11.4046 17.6774C14.9529 14.1289 18.0578 16.3467 20.2756 15.0161C21.7542 14.1289 22.3456 12.6506 22.0497 10.5806C23.8239 13.5374 23.5282 16.1989 21.1627 18.5644C17.6142 22.1128 14.5094 19.8951 12.2917 21.2257C10.813 22.1128 10.2217 23.5912 10.5175 25.6612ZM11.4046 35.4193C9.63041 32.4625 9.92614 29.801 12.2917 27.4354C15.8401 23.887 18.9449 26.1047 21.1627 24.7742C22.6413 23.887 23.2326 22.4086 22.9369 20.3387C24.711 23.2955 24.4152 25.957 22.0497 28.3225C18.5014 31.8709 15.3965 29.6532 13.1788 30.9838C11.7001 31.8709 11.1088 33.3493 11.4046 35.4193Z" fill="#3056D3"/>
</g>
<defs>
<clipPath id="clip0_2005_10874">
<rect width="131.309" height="46" fill="white"/>
</clipPath>
</defs>
</svg>
