<?xml version="1.0" standalone="no"?><!DOCTYPE svg PUBLIC "-//W3C//DTD SVG 1.1//EN" "http://www.w3.org/Graphics/SVG/1.1/DTD/svg11.dtd"><svg t="1711049457132" class="icon" viewBox="0 0 1024 1024" version="1.1" xmlns="http://www.w3.org/2000/svg" p-id="4629" xmlns:xlink="http://www.w3.org/1999/xlink" width="50" height="50"><path d="M343.2 177.46C324.6 129.78 278.2 96 224 96c-70.7 0-128 57.3-128 128 0 54.2 33.78 100.6 81.46 119.2l76.94 101c-10 3.2-20 3.8-30.4 3.8C100.28 448 0 347.8 0 224 0 100.28 100.28 0 224 0c123.8 0 224 100.28 224 224 0 10.4-0.6 20.6-3.8 30.4l-101-76.94zM426.6 320h170.8l139.2-104.4c4-31.38 31-55.6 63.4-55.6 35.4 0 64 28.66 64 64 0 32.4-24.2 59.4-55.6 63.4L704 426.6v170.8l104.4 139.2c31.4 4 55.6 31 55.6 63.4 0 35.4-28.6 64-64 64-32.4 0-59.4-24.2-63.4-55.6L597.4 704h-170.8l-139.2 104.4c-4 31.4-31 55.6-63.4 55.6-35.34 0-64-28.6-64-64 0-32.4 24.22-59.4 55.6-63.4l104.4-139.2v-170.8l-104.4-139.2C184.22 283.4 160 256.4 160 224c0-35.34 28.66-64 64-64 32.4 0 59.4 24.22 63.4 55.6l139.2 104.4zM224 1024C100.28 1024 0 923.8 0 800s100.28-224 224-224c10.4 0 20.4 0.6 30.4 2l-76.94 102.8C129.78 699.4 96 745.8 96 800c0 70.6 57.3 128 128 128 54.2 0 100.6-33.8 119.2-81.4l101-77c3.2 10 3.8 20 3.8 30.4 0 123.8-100.2 224-224 224z m354-769.6c-1.4-10-2-20-2-30.4C576 100.28 676.2 0 800 0s224 100.28 224 224c0 123.8-100.2 224-224 224-10.4 0-20.4-0.6-30.4-3.8l77-101c47.6-18.6 81.4-65 81.4-121 0-68.9-57.4-128-128-128-54.2 0-100.6 35.58-119.2 83.26L578 254.4zM576 800c0-10.4 0.6-20.4 2-30.4l102.8 77c18.6 47.6 65 81.4 119.2 81.4 70.6 0 128-57.4 128-128 0-54.2-33.8-100.6-81.4-119.2L769.6 578c10-1.4 20-3.8 30.4-3.8 123.8 0 224 102 224 225.8 0 123.8-100.2 224-224 224s-224-100.2-224-224z" p-id="4630" fill="#3758f9"></path></svg>