<svg t="1717415638359" class="icon" viewBox="0 0 1024 1024" version="1.1" xmlns="http://www.w3.org/2000/svg" p-id="10898" data-spm-anchor-id="a313x.search_index.0.i3.59213a81SI0VAr" width="25" height="25"><path d="M537.407 898.774l0 0c-12.725 0-19.065 0-25.407 0-6.298 0-12.681 0-19.024 0l-6.342 0c-6.342 0-19.024 0-25.365 6.298-25.365 25.407-69.753 38.09-126.825 38.09-38.047 0-69.753-6.383-101.462-19.024-25.365-12.681-38.047-25.407-38.047-44.39 0-19.024 12.681-31.705 44.39-44.432 19.024-6.298 25.365-12.639 25.365-25.407 0-12.639 0-25.323-6.342-31.705-12.681-12.556-19.024-31.622-31.705-44.262-6.342-12.681-19.024-19.065-31.705-19.065l0 0c-12.681 0-19.024 6.383-31.705 12.768-12.681 12.639-19.024 18.939-25.365 18.939l0 0c-6.342 0-12.639-18.939-12.639-50.646s6.299-69.796 12.598-107.887c12.681-38.005 31.705-69.711 63.412-101.418 6.342-6.298 12.681-19.024 12.681-31.705 0-6.298 0-6.298 0-12.639 0-19.065 6.342-38.047 19.024-57.072 6.342-6.342 6.342-12.681 6.342-19.024l0-6.342c0.042-76.138 25.365-139.55 82.479-196.622 50.731-57.114 114.142-82.437 190.238-82.437 76.095 0 139.508 25.365 196.579 82.437 50.772 57.072 82.479 120.484 82.479 196.537 0 0 0 0 0 6.342 0 6.342 0 12.681 6.298 19.024 12.681 19.024 19.024 38.005 19.024 57.072 0 6.342 0 6.342 0 12.639 0 12.681 0 25.407 12.681 31.705 31.705 31.705 50.731 63.412 63.412 101.418 12.681 38.09 19.024 76.179 12.681 107.887 0 31.705-6.342 44.345-18.983 50.646-6.342 0-12.725-6.299-25.407-18.939-6.299-6.342-19.024-12.768-31.705-12.768l-6.299 0c-12.725 0-25.407 6.383-31.705 19.065-6.342 19.024-19.065 31.705-31.705 44.345-6.342 6.383-12.725 19.065-6.342 31.705 0 12.768 12.681 19.065 18.983 25.407 31.665 12.768 44.39 25.45 44.39 44.473 0 18.982-12.725 31.705-38.047 44.39-25.365 12.639-63.412 19.024-101.462 19.024-57.072 0-95.119-12.725-126.825-38.09 6.342 0-6.342-6.342-12.639-6.342l0 0zM683.215 1019.301c63.412 0 114.142-12.681 152.19-38.005 38.047-25.407 63.412-57.114 63.412-101.462 0-25.365-6.299-44.432-18.982-63.412 6.342 0 18.982 0 25.365-6.383 38.047-12.639 57.072-44.345 63.412-95.119 6.342-44.345 0-95.119-18.982-152.149-12.725-44.432-38.047-82.437-69.753-120.484l0 0c0-31.705-6.342-57.072-19.024-88.777 0-95.119-31.705-177.556-101.418-247.352-69.882-69.753-152.317-101.462-247.435-101.462-95.119 0-177.556 31.705-247.31 101.418-63.455 69.796-101.462 152.233-101.462 247.352-12.681 25.365-19.024 57.072-19.024 88.777l0 6.342c-38.047 31.705-57.072 76.095-69.753 114.142-19.024 57.029-25.365 107.802-19.024 152.149 6.342 50.772 31.705 82.479 63.412 95.119 6.342 0 19.024 6.383 25.365 6.383-12.681 18.982-19.024 38.047-19.024 63.412 0 38.047 19.024 76.095 63.412 101.462 38.047 25.365 88.777 38.047 145.848 38.047 63.412 0 120.484-12.681 158.532-44.39l31.705 0c44.432 31.705 95.119 44.39 158.532 44.39l0 0z" fill="#f4ea2a" p-id="10899"></path></svg>