<svg width="120" height="120" viewBox="0 0 36 36" xmlns="http://www.w3.org/2000/svg" xmlns:xlink="http://www.w3.org/1999/xlink" aria-hidden="true" role="img" class="iconify iconify--twemoji" preserveAspectRatio="xMidYMid meet"><path fill="#F4900C" d="M13.431 9.802c.658 2.638-8.673 10.489-11.244 4.098C.696 10.197-.606 2.434.874 2.065c1.48-.368 11.9 5.098 12.557 7.737z"></path><path fill="#A0041E" d="M11.437 10.355c.96 1.538-1.831 4.561-3.368 5.522c-1.538.961-2.899-.552-4.414-4.414c-.662-1.689-1.666-6.27-1.103-6.622c.562-.351 7.924 3.976 8.885 5.514z"></path><path fill="#F4900C" d="M22.557 9.802C21.9 12.441 31.23 20.291 33.802 13.9c1.49-3.703 2.792-11.466 1.312-11.835c-1.48-.368-11.899 5.098-12.557 7.737z"></path><path fill="#A0041E" d="M24.552 10.355c-.96 1.538 1.831 4.561 3.368 5.522c1.537.961 2.898-.552 4.413-4.414c.662-1.688 1.666-6.269 1.104-6.621c-.563-.352-7.924 3.975-8.885 5.513z"></path><path fill="#F18F26" d="M32.347 26.912c0-.454-.188-1.091-.407-1.687c.585.028 1.519.191 2.77.817a4.003 4.003 0 0 0-.273-1.393c.041.02.075.034.116.055c-1.103-3.31-3.309-5.517-3.309-5.517h2.206c-2.331-4.663-4.965-8.015-8.075-9.559c-1.39-.873-3.688-1.338-7.373-1.339h-.003c-3.695 0-5.996.468-7.385 1.346c-3.104 1.547-5.734 4.896-8.061 9.552H4.76s-2.207 2.206-3.311 5.517c.03-.015.055-.025.084-.04a2.685 2.685 0 0 0-.282 1.377c1.263-.632 2.217-.792 2.813-.818c-.189.513-.343 1.044-.386 1.475a3.146 3.146 0 0 0-.135 1.343C6.75 26.584 8.25 26.792 10 27.667C11.213 31.29 14.206 34 18.001 34c3.793 0 6.746-2.794 7.958-6.416c1.458-1.25 3.708-.875 6.416.416a2.843 2.843 0 0 0-.036-1.093l.008.005z"></path><path fill="#FFD983" d="M31.243 23.601c.006 0 1.108.003 3.309 1.103c-1.249-2.839-7.525-4.07-9.931-3.291c-1.171 1.954-1.281 5.003-3.383 6.622c-1.741 1.431-4.713 1.458-6.479 0c-2.345-1.924-2.559-5.813-3.382-6.622c-2.407-.781-8.681.454-9.931 3.291c2.201-1.101 3.304-1.103 3.309-1.103c0 .001-1.103 2.208-1.103 3.311l.001-.001v.001c2.398-1.573 5.116-2.271 7.429-.452c1.666 7.921 12.293 7.545 13.833 0c2.314-1.818 5.03-1.122 7.429.452v-.001l.001.001c.002-1.103-1.101-3.311-1.102-3.311z"></path><path fill="#272B2B" d="M11 17s0-1.5 1.5-1.5S14 17 14 17v1.5s0 1.5-1.5 1.5s-1.5-1.5-1.5-1.5V17zm11 0s0-1.5 1.5-1.5S25 17 25 17v1.5s0 1.5-1.5 1.5s-1.5-1.5-1.5-1.5V17zm-7.061 10.808c-1.021.208 2.041 3.968 3.062 3.968c1.02 0 4.082-3.76 3.062-3.968c-1.021-.208-5.103-.208-6.124 0z"></path></svg>