<?xml version="1.0" standalone="no"?>
<!DOCTYPE svg PUBLIC "-//W3C//DTD SVG 20010904//EN"
 "http://www.w3.org/TR/2001/REC-SVG-20010904/DTD/svg10.dtd">
<svg version="1.0" xmlns="http://www.w3.org/2000/svg"
 width="788.000000pt" height="788.000000pt" viewBox="0 0 788.000000 788.000000"
 preserveAspectRatio="xMidYMid meet">

<g transform="translate(0.000000,788.000000) scale(0.100000,-0.100000)"
fill="#000000" stroke="none">
<path d="M7010 6540 c-12 -8 -11 -10 8 -10 12 0 22 5 22 10 0 13 -11 13 -30 0z"/>
<path d="M7205 6480 c-3 -5 -1 -10 4 -10 6 0 11 5 11 10 0 6 -2 10 -4 10 -3 0
-8 -4 -11 -10z"/>
<path d="M7137 6425 c-22 -19 -51 -44 -65 -55 -19 -14 -22 -19 -11 -20 17 0
54 26 96 68 39 39 22 44 -20 7z"/>
<path d="M7319 6373 c28 -3 51 -12 62 -24 19 -22 29 -24 29 -6 0 19 -49 37
-94 35 l-41 -1 44 -4z"/>
<path d="M6853 6353 c-7 -2 -13 -11 -13 -18 0 -7 -6 -15 -12 -18 -7 -2 -10 -7
-7 -11 3 -3 18 7 32 24 26 29 26 34 0 23z"/>
<path d="M7012 6224 c-8 -9 -22 -12 -33 -9 -11 4 -19 2 -19 -4 0 -6 -9 -11
-20 -11 -11 0 -20 -4 -20 -10 0 -13 37 -13 42 0 2 5 19 11 38 13 24 2 36 8 38
20 4 21 -8 22 -26 1z"/>
<path d="M6276 6175 c-13 -10 -23 -12 -30 -5 -13 13 -26 13 -26 0 0 -5 7 -10
15 -10 8 0 21 -15 29 -32 l14 -33 1 36 c1 19 6 40 13 47 16 16 7 15 -16 -3z"/>
<path d="M6850 6100 c-26 -16 -4 -21 26 -5 23 12 25 15 9 15 -11 0 -27 -4 -35
-10z"/>
<path d="M6420 6090 c-12 -8 -10 -10 8 -10 13 0 20 4 17 10 -7 12 -6 12 -25 0z"/>
<path d="M6120 6070 c0 -5 14 -10 30 -10 30 0 36 -10 30 -49 -1 -8 4 -18 12
-22 10 -7 10 -9 0 -9 -7 0 -17 -12 -22 -26 -7 -18 -15 -24 -26 -20 -27 10 -36
-4 -19 -31 15 -23 15 -25 -4 -42 l-21 -18 30 -32 c19 -20 30 -41 30 -60 0 -17
5 -33 10 -36 6 -3 10 -19 10 -35 0 -16 5 -32 10 -35 6 -3 10 -22 10 -41 0 -19
5 -34 10 -34 24 0 9 147 -22 216 -6 12 -7 31 -3 43 5 15 2 21 -9 21 -9 0 -16
7 -16 15 0 21 49 9 72 -18 11 -12 24 -17 34 -13 14 5 10 12 -20 37 -38 33 -46
56 -21 65 19 8 59 -18 105 -67 60 -64 64 -70 50 -79 -8 -5 -5 -15 14 -33 15
-15 29 -40 32 -57 4 -16 10 -30 15 -30 18 0 8 -66 -18 -122 -14 -32 -30 -58
-34 -58 -5 0 -15 -15 -24 -32 -8 -18 -31 -50 -50 -70 -19 -20 -35 -44 -35 -52
0 -22 13 -20 30 4 8 11 20 20 27 20 7 0 13 4 13 9 0 5 7 12 16 15 13 5 15 2 9
-16 -4 -13 -13 -52 -21 -88 -8 -36 -18 -74 -23 -85 -27 -64 -29 -73 -18 -84 9
-9 8 -16 -1 -31 -6 -11 -12 -27 -12 -35 0 -8 -7 -15 -14 -15 -25 0 -66 -46
-66 -74 0 -14 3 -26 6 -26 9 0 34 28 34 38 0 12 34 42 48 42 8 0 12 -29 12
-94 0 -52 4 -97 10 -101 5 -3 17 -33 26 -65 17 -62 22 -68 41 -49 15 15 33 3
33 -22 0 -10 5 -19 10 -19 6 0 10 -13 10 -30 0 -16 -4 -30 -10 -30 -5 0 -10
-7 -10 -16 0 -8 -7 -22 -15 -31 -8 -8 -12 -19 -9 -25 3 -5 15 4 25 22 11 18
26 30 36 28 12 -2 20 11 30 52 8 30 17 57 19 59 2 3 20 -12 39 -32 19 -20 39
-37 45 -37 5 0 10 -9 10 -20 0 -11 -4 -20 -10 -20 -5 0 -10 5 -10 10 0 6 -4
10 -10 10 -5 0 -10 -9 -10 -20 0 -11 5 -20 10 -20 6 0 10 -8 10 -17 0 -26 43
-83 63 -83 23 0 22 -9 -4 -31 -11 -10 -18 -23 -14 -28 6 -11 -23 -73 -37 -79
-5 -2 -8 -8 -8 -13 0 -5 -12 -27 -26 -49 -25 -38 -54 -53 -54 -29 0 7 -8 19
-17 28 -10 9 -23 25 -29 36 -6 11 -21 21 -33 23 -11 2 -21 7 -21 12 0 8 -20
16 -72 30 -20 5 -25 4 -21 -6 3 -8 10 -14 15 -14 6 0 8 -9 5 -19 -2 -11 4 -33
14 -50 l18 -30 -34 -7 c-18 -3 -38 -3 -44 1 -15 9 -14 33 3 42 9 5 12 18 9 36
-5 25 -23 39 -23 17 0 -5 -4 -10 -10 -10 -5 0 -10 12 -10 28 0 16 -8 32 -20
40 -14 8 -20 23 -20 46 0 29 11 44 67 100 36 36 61 66 54 66 -7 0 -26 -13 -41
-30 -35 -37 -60 -39 -60 -5 0 14 3 25 8 25 11 0 32 51 32 79 0 19 -3 22 -11
14 -7 -7 -26 -10 -43 -7 -27 4 -28 3 -8 -5 17 -8 22 -19 22 -45 0 -19 -4 -38
-10 -41 -5 -3 -10 -21 -10 -39 0 -25 -10 -43 -37 -73 -56 -57 -77 -83 -177
-220 -66 -90 -79 -84 -52 21 17 63 45 126 56 126 9 0 33 54 66 150 13 35 28
66 33 68 6 2 11 19 11 37 0 19 5 37 10 40 6 3 10 15 10 26 0 10 -4 19 -10 19
-5 0 -10 -9 -10 -21 0 -29 -23 -49 -51 -43 -21 5 -22 4 -6 -6 18 -12 24 -70 7
-70 -5 0 -10 -6 -10 -13 0 -8 -18 -50 -40 -95 -22 -44 -40 -87 -40 -96 0 -9
-4 -16 -10 -16 -5 0 -10 -13 -10 -30 0 -16 -4 -30 -9 -30 -4 0 -16 -20 -25
-45 -17 -43 -20 -45 -57 -45 -38 0 -39 1 -39 35 0 19 5 35 10 35 6 0 10 13 10
29 0 16 4 31 8 33 13 5 23 78 11 78 -5 0 -11 -6 -13 -12 -2 -7 -9 -33 -16 -58
-6 -25 -16 -53 -21 -62 -5 -10 -9 -34 -9 -53 0 -19 -4 -35 -10 -35 -5 0 -10
-7 -10 -15 0 -20 30 -19 45 2 18 24 44 10 38 -21 -3 -15 -9 -29 -14 -32 -5 -3
-9 -24 -9 -48 0 -27 -7 -49 -18 -62 -10 -10 -21 -28 -25 -38 -4 -10 -10 -16
-14 -13 -9 10 -63 -25 -63 -41 0 -22 -30 -46 -42 -34 -13 13 -38 -8 -38 -32 0
-8 -4 -18 -10 -21 -5 -3 -10 -19 -10 -36 0 -16 -5 -29 -11 -29 -5 0 -7 -5 -3
-12 10 -15 12 -58 3 -63 -13 -9 -11 -283 3 -304 10 -16 10 -25 1 -40 -6 -10
-12 -56 -12 -101 0 -67 -3 -85 -18 -95 -15 -11 -19 -32 -21 -122 -2 -59 -1
-105 3 -101 4 4 7 32 6 62 0 30 6 68 14 83 8 15 15 36 15 45 0 9 5 20 10 23 6
3 10 26 10 50 0 24 5 47 10 50 6 3 10 21 10 40 0 19 5 37 10 40 6 3 10 17 10
31 0 23 17 62 31 74 6 5 15 51 25 140 5 42 13 70 35 112 5 10 9 34 9 53 0 19
5 35 10 35 6 0 10 9 10 20 0 11 4 20 8 20 4 0 14 16 21 35 7 20 21 41 32 48
11 7 19 23 19 39 0 16 5 28 10 28 6 0 10 9 10 19 0 11 4 21 8 23 4 2 20 24 35
49 21 37 32 47 53 47 32 0 44 17 37 53 -3 15 0 30 6 33 6 4 11 16 11 27 0 10
5 19 10 19 6 0 10 6 10 13 0 7 9 18 20 25 11 7 20 19 20 26 0 8 8 17 18 20 9
3 23 20 31 38 15 33 34 58 45 58 3 0 6 -20 6 -44 0 -25 5 -48 10 -51 18 -11
10 -33 -14 -39 -13 -3 -31 -9 -40 -12 -11 -4 -16 0 -16 14 0 41 -17 30 -30
-19 -8 -28 -18 -52 -22 -55 -17 -10 -7 -25 12 -19 14 5 20 2 20 -9 0 -20 7
-20 27 -1 23 24 38 12 36 -29 -3 -43 22 -51 37 -11 7 19 17 25 39 25 16 0 33
-4 36 -10 3 -5 14 -10 24 -10 40 0 71 -25 82 -65 12 -42 6 -113 -11 -145 -16
-30 -63 -26 -80 5 -7 14 -17 25 -22 25 -4 0 -8 7 -8 15 0 22 -67 86 -92 88
-12 1 -23 9 -26 19 -6 25 -22 23 -22 -3 0 -21 -1 -21 -46 -3 -6 3 -10 -11 -11
-33 -1 -21 -6 -39 -12 -41 -6 -2 -11 -11 -11 -19 0 -10 6 -13 16 -9 9 3 18 6
20 6 2 0 4 7 4 15 0 19 14 19 34 0 8 -8 18 -15 21 -15 14 0 125 -119 125 -134
0 -9 5 -16 10 -16 6 0 10 -7 10 -15 0 -8 5 -15 10 -15 6 0 10 -7 10 -15 0 -8
-4 -15 -10 -15 -5 0 -10 5 -10 12 0 9 -3 9 -12 0 -9 -9 -8 -15 4 -24 11 -9 14
-24 11 -50 -3 -21 -9 -38 -14 -38 -5 0 -9 -9 -9 -20 0 -11 -4 -20 -10 -20 -5
0 -10 4 -10 9 0 5 -13 14 -30 21 -16 7 -30 16 -30 20 0 4 -13 13 -30 20 -16 7
-30 16 -30 21 0 5 -9 9 -20 9 -11 0 -20 -4 -20 -10 0 -5 4 -10 9 -10 5 0 12
-9 16 -19 3 -11 22 -37 41 -58 19 -21 37 -48 40 -60 4 -13 12 -23 20 -23 16 0
19 -46 4 -55 -5 -3 -10 -17 -10 -30 0 -13 -4 -27 -10 -30 -5 -3 -10 -15 -10
-26 0 -12 -7 -19 -19 -19 -17 0 -18 3 -7 39 6 22 15 43 19 47 10 11 9 34 -3
34 -5 0 -10 -9 -10 -20 0 -11 -4 -20 -10 -20 -5 0 -10 -9 -10 -20 0 -24 -21
-26 -79 -5 -35 12 -41 12 -41 0 0 -8 5 -17 10 -20 6 -3 10 -14 10 -24 0 -10 9
-26 20 -36 14 -13 20 -31 20 -62 0 -23 -4 -43 -10 -43 -5 0 -10 -11 -10 -25 0
-23 -16 -62 -30 -75 -3 -3 -12 -25 -20 -50 -7 -25 -17 -49 -22 -54 -4 -6 -8
-20 -8 -32 0 -13 -4 -25 -9 -29 -16 -9 -41 25 -41 54 0 16 -12 59 -26 97 -15
38 -30 85 -34 104 -11 53 -21 80 -31 80 -5 0 -9 6 -9 14 0 26 -28 68 -54 81
-24 13 -26 12 -26 -5 0 -10 5 -22 10 -25 14 -9 12 -52 -2 -58 -7 -3 -4 -6 7
-6 19 -1 35 -27 48 -76 3 -11 17 -53 31 -92 41 -114 43 -111 -71 -105 -54 2
-99 9 -101 13 -7 19 -42 9 -42 -11 0 -22 15 -27 24 -7 5 10 7 10 12 0 3 -7 19
-13 35 -13 16 0 29 -4 29 -10 0 -5 11 -10 24 -10 31 0 67 -19 123 -66 25 -22
50 -42 55 -45 8 -5 -8 -50 -31 -89 -16 -26 -35 -100 -28 -107 4 -3 8 -4 10 -2
13 17 67 134 67 145 0 43 86 -14 119 -79 8 -15 18 -27 23 -27 4 0 8 -13 8 -30
0 -16 5 -30 10 -30 13 0 13 26 -1 52 -8 16 -8 22 2 28 9 6 9 15 -4 43 -9 19
-23 40 -32 47 -8 7 -15 19 -15 26 0 8 -10 24 -22 36 -12 12 -21 33 -21 48 0
29 24 90 35 90 5 0 8 7 8 15 0 9 11 28 25 43 14 15 28 37 31 50 8 30 24 28 24
-3 0 -31 7 -31 30 -3 l17 22 19 -40 c10 -21 21 -41 24 -44 25 -19 30 -62 30
-255 0 -131 4 -214 11 -227 8 -15 8 -22 -1 -28 -17 -11 -50 0 -50 16 0 8 -4
14 -10 14 -5 0 -10 -13 -10 -29 0 -22 -6 -31 -22 -36 -13 -4 -32 -16 -44 -26
-17 -16 -31 -18 -95 -14 -41 3 -84 6 -95 8 -23 3 -54 29 -54 46 0 5 -8 12 -18
15 -9 3 -28 24 -42 46 -14 22 -28 40 -31 40 -4 0 -10 19 -13 43 -15 114 -20
134 -39 162 -51 72 -64 71 -48 -5 6 -28 11 -63 11 -77 0 -22 -3 -25 -30 -21
-27 4 -30 2 -30 -21 0 -16 15 -43 41 -71 58 -63 79 -95 79 -119 0 -12 4 -29 9
-39 6 -9 13 -30 18 -47 7 -27 8 -24 11 22 2 43 6 53 21 53 19 0 61 -35 61 -50
0 -12 56 -41 64 -33 7 7 86 -29 86 -39 0 -5 6 -8 13 -8 6 0 24 -11 40 -24 23
-20 25 -25 11 -30 -25 -10 -82 -7 -89 4 -4 6 -64 10 -147 10 l-141 0 6 58 c5
41 2 66 -8 86 -8 16 -15 37 -15 47 0 11 -4 19 -9 19 -5 0 -11 10 -13 22 -2 14
-11 24 -23 26 -12 2 -16 0 -9 -5 23 -17 31 -96 19 -195 -8 -61 -17 -68 -58
-47 -16 9 -22 9 -25 0 -2 -6 -11 -11 -20 -11 -27 0 -82 24 -82 36 0 21 22 74
31 74 5 0 9 8 9 19 0 10 7 24 15 31 8 7 15 19 15 27 0 8 8 29 18 45 13 23 14
32 5 35 -15 6 -17 39 -3 48 6 3 10 23 10 43 0 20 9 64 20 96 11 33 20 79 20
103 0 36 -3 43 -20 43 -16 0 -20 -7 -20 -34 0 -19 -5 -38 -11 -41 -5 -4 -14
-18 -19 -31 -6 -14 -18 -27 -27 -31 -23 -9 -33 -23 -33 -50 0 -14 -6 -23 -15
-23 -8 0 -15 -4 -15 -10 0 -5 7 -10 16 -10 13 0 15 -7 11 -30 -5 -22 -3 -30 8
-30 8 0 15 -6 15 -14 0 -9 -7 -12 -20 -9 -15 4 -20 0 -20 -15 0 -26 -29 -33
-102 -25 -35 3 -58 2 -58 -4 0 -5 16 -27 35 -49 38 -42 31 -43 103 4 20 13 22
13 22 -2 0 -9 -8 -33 -17 -54 -9 -20 -21 -55 -27 -77 -9 -32 -16 -41 -38 -45
-15 -3 -37 -13 -48 -22 -26 -23 -34 -23 -27 2 4 17 0 20 -28 20 -18 0 -35 3
-37 8 -1 4 -15 17 -30 29 -23 17 -25 23 -14 32 11 10 16 8 21 -8 11 -37 26
-22 24 23 -2 25 3 51 10 59 7 9 12 46 12 91 0 57 4 76 14 76 8 0 17 -5 21 -11
3 -6 19 -9 35 -5 22 4 29 2 29 -9 0 -19 24 -20 39 -2 7 9 8 24 1 46 -5 18 -6
39 -3 47 3 8 0 21 -6 28 -7 8 -11 20 -10 28 1 7 1 28 0 46 -1 29 -4 33 -23 28
-13 -3 -17 -3 -10 0 20 9 14 41 -12 61 -13 10 -26 28 -30 40 -4 12 -24 40 -46
62 -61 62 -90 131 -55 131 8 0 15 -4 15 -8 0 -5 13 -23 28 -40 28 -32 52 -42
52 -22 0 6 5 10 10 10 6 0 10 -9 10 -20 0 -11 4 -20 9 -20 5 0 11 -12 13 -27
2 -22 9 -29 31 -31 15 -2 27 1 27 7 0 6 -4 11 -8 11 -12 0 -42 55 -42 77 0 10
-16 49 -35 87 -19 39 -35 80 -35 92 0 13 -4 26 -10 29 -13 8 -13 92 0 100 6 4
-7 24 -30 47 -23 22 -39 42 -37 45 8 7 57 -22 97 -56 19 -17 42 -31 50 -31 28
-1 50 -27 50 -58 0 -35 18 -45 64 -37 25 5 35 15 49 48 20 49 23 133 5 150 -7
7 -25 18 -40 26 -16 8 -28 18 -28 23 0 4 -7 8 -15 8 -8 0 -15 5 -15 10 0 6 -5
10 -10 10 -6 0 -20 9 -32 20 -12 11 -30 20 -40 20 -10 0 -18 4 -18 8 0 5 -33
17 -72 26 -108 26 -137 29 -151 18 -10 -8 -22 -5 -48 10 -75 47 -116 65 -163
71 -34 5 -54 14 -68 32 -11 14 -30 25 -44 25 -13 0 -24 5 -24 10 0 6 -9 10
-20 10 -11 0 -29 5 -40 10 -11 6 -29 15 -40 20 -11 6 -24 10 -30 10 -5 0 -10
-4 -10 -10 0 -5 7 -10 16 -10 9 0 29 -12 43 -27 15 -16 40 -34 56 -41 24 -11
26 -15 14 -24 -11 -8 -10 -9 4 -4 23 7 87 -42 87 -66 0 -10 -4 -18 -10 -18 -5
0 -10 7 -10 16 0 15 -23 44 -34 44 -3 0 -6 -7 -6 -15 0 -8 5 -15 10 -15 6 0
10 -9 10 -20 0 -11 5 -20 10 -20 6 0 10 -9 10 -20 0 -11 -4 -20 -10 -20 -5 0
-10 7 -10 16 0 9 -9 18 -20 21 -14 4 -20 14 -20 32 0 19 -9 32 -33 46 -46 28
-55 31 -29 8 12 -11 22 -25 22 -31 0 -6 6 -13 13 -15 9 -4 9 -8 -1 -15 -11 -7
-8 -15 12 -35 14 -14 26 -36 25 -49 0 -13 -3 -17 -6 -10 -2 6 -13 12 -24 12
-13 0 -19 7 -19 23 0 13 -6 29 -12 35 -10 10 -10 15 2 23 13 9 13 11 0 16 -8
4 -34 26 -57 51 -34 35 -41 48 -32 58 9 11 8 14 -3 14 -12 0 -48 33 -48 45 0
3 10 5 23 5 21 1 21 1 3 12 -15 8 -21 8 -24 0 -5 -17 -22 -15 -70 8 -22 11
-48 20 -57 20 -8 0 -15 5 -15 10 0 6 -7 10 -15 10 -8 0 -15 -4 -15 -9 0 -5 7
-16 15 -25 8 -8 15 -19 15 -24 0 -6 6 -13 13 -15 6 -3 2 -6 -10 -6 -12 -1 -23
-6 -25 -12 -2 -7 -22 -2 -56 15 -28 14 -64 25 -79 25 -21 -1 -23 -3 -8 -6 19
-5 185 -163 185 -176 0 -7 75 -90 139 -155 24 -24 46 -39 50 -34 4 7 13 5 25
-3 13 -10 17 -21 12 -39 -5 -21 -3 -26 13 -26 20 0 35 -13 25 -22 -18 -19
-144 56 -144 85 0 12 -86 97 -99 97 -6 0 -15 9 -21 20 -11 21 -30 27 -30 11 0
-5 6 -16 13 -23 20 -20 37 -54 37 -75 -1 -17 -1 -17 -15 1 -8 11 -26 32 -41
48 -19 22 -24 36 -19 55 5 23 4 24 -10 10 -17 -18 -20 -53 -5 -62 6 -3 10 -15
10 -26 0 -10 5 -19 10 -19 6 0 10 -9 10 -20 0 -11 5 -20 10 -20 6 0 10 -9 10
-20 0 -11 4 -20 8 -20 5 0 15 -12 23 -27 8 -16 22 -37 31 -47 13 -14 15 -23 7
-33 -12 -14 -29 -9 -29 10 0 7 -9 19 -20 27 -11 8 -20 20 -20 28 0 7 -9 22
-20 34 -11 12 -20 32 -20 45 0 13 -4 23 -10 23 -5 0 -10 -9 -10 -19 0 -10 -9
-29 -20 -42 l-19 -24 -1 23 c0 15 -6 22 -20 22 -17 0 -19 -3 -10 -19 15 -29
12 -39 -12 -43 -20 -3 -23 -8 -20 -38 2 -19 8 -39 13 -44 5 -6 9 -20 9 -32 0
-13 4 -26 10 -29 13 -8 9 -118 -4 -127 -8 -6 -6 -11 4 -18 13 -9 13 -12 0 -23
-17 -13 -15 -68 2 -78 19 -12 -2 -30 -22 -19 -21 11 -41 47 -81 145 -15 39
-29 64 -30 58 -1 -7 -2 -17 -3 -23 -2 -20 -21 -10 -25 12 -5 34 -41 54 -41 23
0 -8 -4 -15 -10 -15 -5 0 -10 18 -10 39 0 40 -16 56 -45 45 -11 -5 -13 -10 -5
-19 13 -16 -7 -65 -27 -65 -7 0 -13 -6 -13 -14 0 -7 -11 -21 -25 -30 -14 -9
-25 -12 -25 -6 0 5 -9 10 -20 10 -16 0 -20 -7 -20 -30 0 -21 5 -30 16 -30 12
0 14 -5 9 -17 -4 -10 -10 -28 -12 -41 -3 -12 -10 -25 -15 -28 -14 -9 40 -34
73 -34 27 0 29 3 29 40 0 22 5 40 10 40 6 0 10 9 10 20 0 21 15 27 25 10 12
-19 31 -10 42 20 15 40 33 38 34 -2 3 -67 -1 -171 -6 -176 -9 -9 -34 32 -35
56 0 23 -26 59 -36 50 -2 -3 -1 -44 4 -92 4 -48 4 -89 0 -92 -4 -3 -8 -14 -8
-25 0 -10 -4 -19 -10 -19 -5 0 -10 -9 -10 -20 0 -11 5 -20 10 -20 6 0 10 -26
10 -59 0 -33 -4 -63 -10 -66 -17 -11 -11 -88 10 -122 11 -18 16 -33 11 -33 -5
0 -9 -27 -8 -60 0 -50 3 -61 20 -66 14 -4 16 -9 8 -17 -9 -9 -17 -8 -31 1 -11
6 -29 12 -40 12 -11 0 -20 5 -20 10 0 6 5 10 10 10 6 0 10 22 10 48 0 26 5 53
12 60 9 9 9 15 0 24 -7 7 -12 19 -12 28 0 9 -8 34 -18 56 -25 51 -49 241 -33
257 6 6 11 19 11 28 0 10 5 19 12 21 9 3 9 6 1 11 -12 8 -113 -67 -113 -84 0
-6 -9 -22 -20 -36 -26 -33 -25 -43 2 -43 17 0 19 -3 10 -12 -7 -7 -12 -20 -12
-30 0 -10 -4 -18 -10 -18 -18 0 -11 -18 10 -23 19 -5 18 -6 -5 -56 -14 -28
-25 -57 -25 -65 0 -8 -11 -27 -24 -41 -14 -15 -22 -33 -19 -41 3 -9 -1 -14
-12 -14 -10 0 -25 -8 -34 -18 -17 -20 -68 -29 -198 -38 -80 -5 -253 19 -287
40 -20 13 -117 27 -216 31 -62 2 -67 4 -50 15 8 5 44 6 80 3 83 -7 89 -7 190
7 134 18 125 19 123 -13 -1 -21 4 -31 23 -39 23 -11 28 -9 50 20 25 31 57 42
69 23 3 -5 1 -12 -5 -16 -5 -3 -10 -13 -10 -22 0 -11 5 -13 18 -7 9 4 29 7 44
6 18 -1 39 10 62 31 75 70 87 78 109 77 40 -4 45 0 44 28 -2 32 -20 55 -34 41
-17 -17 -63 13 -63 41 0 31 8 41 42 59 41 21 42 71 1 71 -19 0 -5 61 18 82 23
19 25 38 5 38 -33 0 -24 19 11 26 21 4 43 13 50 20 17 17 43 93 37 109 -3 7
-1 16 5 20 6 3 14 -1 17 -9 6 -17 44 -23 44 -7 0 5 -13 14 -30 21 -29 12 -41
30 -20 30 13 0 13 57 0 65 -6 3 -14 -4 -18 -16 -7 -18 -10 -19 -15 -7 -7 19
19 58 38 58 11 0 14 16 12 70 -1 39 -3 66 -5 60 -2 -5 -10 -10 -18 -10 -8 0
-14 -4 -14 -8 0 -5 -11 -15 -25 -22 -26 -14 -33 -36 -13 -42 9 -3 8 -19 -5
-62 -9 -31 -13 -64 -10 -72 4 -10 -2 -14 -21 -14 -25 0 -26 -3 -26 -50 0 -46
-12 -66 -23 -37 -3 7 -9 2 -14 -13 -10 -24 -10 -24 -21 -3 -7 12 -9 35 -6 52
5 25 3 31 -10 31 -13 0 -16 5 -11 20 4 11 2 20 -4 20 -6 0 -11 5 -11 10 0 6 8
10 19 10 21 0 34 33 19 48 -6 6 -6 12 1 16 14 9 14 28 -1 63 -6 15 -10 34 -9
41 4 23 -24 12 -56 -23 -29 -31 -30 -35 -13 -40 18 -6 17 -8 -8 -36 -19 -22
-33 -29 -49 -26 -21 4 -23 1 -23 -39 0 -37 -3 -44 -20 -44 -16 0 -20 7 -20 35
0 19 9 50 20 70 11 20 20 46 20 58 0 29 37 55 42 29 2 -11 6 -13 11 -6 8 13
-44 74 -62 74 -6 0 -11 -15 -11 -33 0 -18 -6 -45 -12 -60 -11 -23 -18 -26 -41
-21 -20 4 -29 1 -34 -13 -6 -14 -9 -11 -13 15 -5 33 -25 46 -25 16 0 -16 -40
-54 -56 -54 -5 0 -9 11 -9 25 0 14 -4 25 -10 25 -5 0 -10 -4 -10 -9 0 -15 -53
-71 -67 -71 -17 0 -17 72 -1 88 7 7 8 12 3 12 -6 0 -16 4 -24 9 -11 7 -1 23
49 71 47 48 59 64 49 71 -18 11 -26 11 -34 -1 -3 -6 -27 -19 -52 -31 -31 -14
-42 -23 -33 -29 9 -6 4 -17 -20 -44 -35 -38 -64 -46 -74 -20 -5 14 -7 14 -22
0 -15 -15 -34 -21 -34 -11 0 2 10 13 22 25 17 16 19 23 10 32 -7 7 -12 16 -12
22 0 6 5 5 12 -2 9 -9 16 -8 30 5 14 12 21 13 32 4 12 -10 18 -6 32 18 10 17
26 31 35 31 19 0 31 23 23 45 -4 8 -1 15 5 15 6 0 11 6 11 13 0 27 26 67 43
67 12 0 17 8 17 31 l0 31 -31 -31 c-17 -17 -37 -31 -45 -31 -8 0 -26 -11 -40
-25 -14 -14 -31 -22 -40 -18 -17 6 -64 -15 -64 -29 0 -5 9 -6 20 -3 14 5 20 2
20 -9 0 -9 -8 -16 -19 -16 -11 0 -22 -6 -25 -12 -5 -10 -7 -10 -12 0 -9 19
-24 14 -24 -8 0 -17 -7 -20 -38 -20 -37 0 -40 -3 -66 -55 -14 -30 -31 -55 -36
-55 -6 0 -10 -11 -10 -24 0 -14 -4 -28 -10 -31 -5 -3 -10 -15 -10 -26 0 -10
-4 -19 -9 -19 -5 0 -13 -9 -16 -20 -7 -21 -39 -27 -50 -10 -8 13 -45 13 -45 0
0 -5 6 -10 13 -10 16 0 62 -41 70 -62 3 -10 16 -18 27 -18 26 0 61 -31 42 -38
-15 -5 -16 -44 0 -60 10 -10 7 -16 -10 -28 -25 -17 -29 -56 -10 -96 22 -47 68
-41 68 8 0 13 4 25 9 28 4 3 11 19 14 36 8 35 36 41 55 10 9 -15 19 -19 38
-14 24 6 26 5 19 -17 -4 -13 -11 -28 -16 -33 -5 -6 -9 -17 -9 -25 0 -9 -9 -27
-20 -41 -11 -14 -20 -36 -19 -50 0 -24 0 -25 15 -5 13 17 16 18 24 5 7 -10 12
-11 18 -4 4 6 15 13 25 17 13 5 17 18 17 62 0 50 12 73 22 43 3 -9 9 -8 21 4
19 18 22 38 7 38 -5 0 -10 6 -10 13 0 7 -9 19 -20 27 -26 19 -25 46 1 90 35
58 59 66 59 20 0 -16 5 -30 10 -30 15 0 12 -47 -2 -53 -7 -3 -3 -6 10 -6 24
-1 30 -18 10 -26 -10 -4 -12 -30 -10 -95 2 -59 0 -90 -7 -90 -6 0 -11 -13 -11
-30 0 -23 -5 -30 -20 -31 -11 -1 -35 -3 -52 -4 -18 -1 -45 2 -61 8 -22 7 -31
6 -46 -7 -11 -10 -35 -16 -63 -16 -39 0 -46 -3 -57 -27 -9 -19 -9 -29 -2 -31
16 -5 13 -49 -6 -78 -13 -20 -21 -24 -42 -19 -49 12 -80 62 -51 80 15 9 12 44
-5 62 -11 10 -19 12 -28 5 -21 -17 -325 -35 -376 -22 -26 6 -115 -7 -143 -21
-10 -5 -29 -9 -43 -9 -14 0 -25 -5 -25 -11 0 -7 -27 -9 -82 -5 -46 4 -127 9
-182 12 -78 4 -103 9 -119 25 -22 20 -47 25 -47 9 0 -5 -18 -10 -39 -10 -22 0
-43 -4 -46 -10 -3 -5 -28 -10 -55 -10 -27 0 -52 -4 -55 -10 -11 -17 -50 -11
-63 10 -11 18 -23 20 -120 20 -111 -1 -142 -10 -142 -44 0 -9 -8 -16 -20 -16
-24 0 -26 -26 -5 -54 8 -11 15 -27 15 -35 0 -9 9 -27 20 -41 11 -14 20 -37 20
-52 0 -17 8 -31 21 -39 16 -8 18 -14 10 -22 -9 -9 -17 -8 -32 1 -11 7 -24 10
-29 7 -5 -3 -11 -1 -15 5 -9 15 -45 12 -45 -4 0 -8 3 -16 8 -18 4 -1 25 -37
46 -78 22 -41 50 -85 63 -98 22 -22 27 -23 49 -12 13 8 24 22 24 32 0 27 10
23 75 -32 33 -28 69 -50 81 -50 13 0 26 -4 29 -10 3 -5 26 -10 50 -10 27 0 45
-5 48 -14 4 -10 20 -13 58 -10 29 2 57 0 63 -5 6 -4 58 -14 116 -21 58 -7 110
-16 115 -20 11 -8 78 -18 205 -30 102 -9 167 -27 195 -53 17 -16 29 -17 87
-12 80 8 227 16 285 15 23 0 44 3 47 9 4 5 21 5 43 1 24 -6 42 -5 51 2 9 8 16
8 23 1 7 -7 25 -7 54 -1 76 16 335 -2 335 -23 0 -16 77 -10 91 7 8 10 21 13
36 9 36 -9 29 21 -9 39 -29 14 -176 29 -263 27 -36 -1 -147 25 -189 43 -17 8
-53 17 -81 20 -27 3 -68 8 -91 12 -37 6 -42 4 -47 -16 -5 -20 -11 -22 -42 -17
-19 3 -50 13 -67 21 -17 9 -40 16 -50 16 -11 0 -28 5 -39 10 -10 6 -40 11 -67
12 -26 0 -51 3 -57 7 -21 12 -81 31 -103 31 -13 0 -31 4 -40 9 -10 5 -42 10
-72 12 -30 1 -66 6 -80 10 -14 4 -65 10 -115 13 -93 5 -135 12 -170 25 -57 23
-99 48 -109 66 -6 11 -16 23 -22 27 -40 26 -55 45 -49 61 8 20 55 24 55 4 0
-16 52 -67 68 -67 7 0 20 -4 30 -9 50 -25 105 -34 201 -32 58 1 109 5 115 10
37 28 196 40 278 21 24 -5 78 -15 121 -22 42 -6 77 -16 77 -20 0 -4 23 -8 50
-8 28 0 50 -4 50 -10 0 -13 77 -13 82 0 2 7 16 4 37 -6 23 -11 69 -19 133 -22
54 -3 101 -9 104 -13 3 -5 20 -9 39 -9 19 0 37 -4 40 -10 3 -5 27 -10 52 -10
26 0 62 -5 80 -12 30 -11 35 -10 48 9 17 25 52 33 159 40 49 3 87 0 100 -7 15
-7 35 -8 61 -3 22 5 58 6 80 2 56 -11 195 -9 195 2 0 5 9 9 21 9 15 0 19 4 15
16 -8 21 11 44 36 44 23 0 75 -46 64 -57 -5 -4 -11 -2 -13 5 -6 16 -31 15 -49
-2 -21 -21 -4 -27 73 -25 45 2 76 -2 92 -12 18 -11 25 -11 28 -1 7 19 37 14
62 -9 15 -14 31 -19 47 -16 13 2 27 1 30 -4 7 -12 134 1 171 17 40 18 48 30
31 49 -32 35 -37 45 -43 77 -7 35 -22 43 -55 31 -48 -18 -103 -7 -123 24 -4 7
-14 10 -22 7 -10 -4 -15 0 -15 11 0 21 22 43 38 37 19 -6 42 18 42 44 0 24 14
30 44 18 10 -4 16 -18 16 -41 0 -19 6 -41 14 -48 16 -16 26 -10 26 17 0 10 6
18 13 18 26 0 77 -31 77 -47 0 -24 96 -109 150 -134 28 -12 50 -26 50 -31 0
-4 9 -8 19 -8 11 0 23 -4 26 -10 3 -5 26 -10 50 -10 24 0 47 -5 50 -10 7 -12
115 -10 115 2 0 4 10 8 23 8 13 0 28 5 35 12 8 8 15 8 27 -2 12 -10 19 -10 27
-2 7 7 27 12 45 12 18 0 33 5 33 11 0 11 34 9 152 -7 47 -6 86 -33 61 -41 -19
-7 -16 -23 5 -23 9 0 23 9 30 21 12 19 19 20 75 14 145 -15 300 -16 308 -3 6
10 15 10 41 0 37 -13 166 -14 174 -1 3 5 48 9 100 9 l94 0 0 -109 c0 -116 4
-141 25 -141 9 0 15 23 19 73 10 127 17 157 35 158 81 3 187 -4 193 -14 5 -8
13 -6 27 7 19 17 21 17 66 -8 25 -14 59 -26 75 -26 17 0 30 -4 30 -10 0 -5 20
-10 45 -10 l45 0 1 -62 c1 -47 3 -55 8 -33 17 73 32 95 63 95 29 0 30 2 24 33
-9 50 8 66 28 27 9 -18 16 -41 16 -52 0 -10 5 -18 10 -18 6 0 10 -15 10 -34 0
-19 5 -38 10 -41 6 -4 10 -53 10 -116 0 -66 4 -109 10 -109 6 0 10 -25 10 -56
0 -34 4 -53 10 -49 6 3 10 37 10 75 0 38 4 72 10 75 5 3 10 15 10 26 0 16 9
38 28 68 1 3 9 -5 18 -17 15 -22 54 -31 54 -12 0 21 37 9 48 -15 9 -19 9 -31
0 -50 -9 -19 -9 -28 0 -37 20 -20 43 10 42 56 0 23 3 64 6 92 3 28 0 70 -6 95
l-12 44 -15 -35 c-32 -75 -47 -100 -58 -100 -16 0 -45 76 -45 117 0 17 -6 33
-12 36 -10 3 -10 12 0 43 14 42 29 79 43 106 12 24 11 68 -1 68 -5 0 -10 8
-10 17 0 14 -3 14 -19 -4 -13 -13 -21 -39 -23 -69 l-3 -48 -18 27 c-14 22 -15
30 -5 47 11 18 10 23 -4 31 -14 8 -16 18 -11 57 3 26 9 49 13 52 3 3 17 21 30
40 47 67 215 242 270 280 34 24 71 53 94 76 22 21 75 44 89 38 8 -3 49 -43 92
-90 42 -46 82 -84 89 -84 7 0 21 -9 31 -20 38 -42 54 -7 19 43 -13 20 -24 43
-24 52 0 39 -70 121 -111 130 -25 6 -27 9 -16 26 6 10 17 19 24 19 7 0 13 5
13 10 0 6 7 10 15 10 8 0 24 4 35 10 11 5 29 14 40 20 11 6 29 10 40 10 11 0
20 5 20 10 0 6 14 10 31 10 23 0 30 4 27 17 -4 23 -61 34 -87 17 -10 -8 -34
-15 -52 -16 -19 -2 -36 -6 -39 -10 -3 -3 -23 -8 -45 -10 -39 -3 -40 -2 -43 32
-2 19 -8 39 -13 44 -5 6 -9 22 -9 36 0 14 -5 31 -11 37 -5 5 -10 48 -10 94 0
51 -4 86 -11 90 -8 5 -6 12 5 24 15 15 19 14 43 -8 21 -20 28 -38 36 -106 9
-65 14 -81 26 -79 8 2 16 12 17 23 1 11 5 31 10 44 l7 24 19 -24 c10 -13 19
-28 19 -33 0 -5 8 -16 18 -25 25 -24 42 -58 42 -86 0 -18 5 -25 20 -25 18 0
20 7 20 60 0 33 -4 60 -10 60 -5 0 -10 8 -10 19 0 10 -7 24 -15 31 -9 7 -22
27 -31 45 -13 28 -13 36 -2 54 16 27 42 23 46 -7 2 -12 8 -22 13 -22 5 0 9 -9
9 -19 0 -11 5 -23 10 -26 6 -3 10 2 10 12 0 11 5 24 12 31 9 9 9 15 0 24 -9 9
-12 9 -12 0 0 -7 -5 -12 -11 -12 -8 0 -8 4 1 15 9 11 8 20 -10 45 -12 16 -30
35 -41 40 -16 9 -19 22 -19 82 0 39 -5 88 -11 109 -9 30 -9 42 1 54 10 12 10
15 0 15 -12 0 -11 14 6 113 3 20 10 40 15 43 5 3 9 16 9 29 0 13 4 26 9 29 5
3 11 23 14 43 3 21 9 52 12 70 6 26 2 37 -18 59 -22 23 -28 25 -41 15 -9 -8
-16 -23 -16 -35 0 -12 -4 -26 -9 -32 -12 -12 -21 -75 -28 -192 -5 -101 -15
-116 -55 -88 -25 18 -68 22 -68 6 0 -5 6 -10 14 -10 16 0 66 -55 66 -73 0 -7
-10 -23 -23 -37 -13 -14 -26 -33 -30 -44 -5 -12 -14 -17 -27 -13 -13 3 -20 0
-20 -9 0 -8 8 -14 18 -14 26 0 33 -10 21 -31 -7 -13 -7 -25 0 -37 9 -14 10
-11 11 16 0 17 5 32 10 32 6 0 10 7 10 15 0 25 30 76 40 70 6 -4 10 -15 10
-26 0 -21 16 -26 23 -6 7 17 28 -40 30 -83 2 -32 0 -35 -22 -32 -18 3 -22 0
-18 -12 4 -9 4 -23 1 -31 -5 -13 -9 -13 -26 -1 -10 8 -27 12 -38 9 -10 -3 -21
0 -24 6 -4 6 -16 11 -27 11 -26 0 -35 26 -19 55 24 44 -18 62 -58 25 -37 -35
-73 -17 -39 19 10 11 10 14 0 18 -7 3 -13 13 -13 24 0 10 -4 19 -10 19 -5 0
-10 9 -10 21 0 22 -66 96 -76 86 -8 -7 18 -67 28 -67 5 0 8 -9 8 -20 0 -11 3
-20 8 -20 26 0 47 -180 22 -195 -5 -3 -10 -15 -10 -26 0 -10 -13 -27 -28 -37
-17 -10 -27 -23 -24 -32 2 -9 -2 -7 -12 5 -19 24 -21 101 -3 108 10 4 10 6 0
6 -7 1 -13 9 -13 19 0 29 -23 70 -48 83 -12 7 -25 23 -28 35 -6 23 -29 38 -45
28 -16 -10 -10 -50 11 -69 11 -10 20 -25 20 -33 0 -9 5 -30 12 -49 11 -29 10
-35 -8 -48 -10 -8 -27 -15 -38 -15 -15 0 -17 5 -12 25 7 26 -11 55 -34 55 -27
0 -40 30 -40 89 0 33 -4 63 -10 66 -16 10 -12 57 7 77 16 18 17 18 27 -13 12
-35 36 -51 36 -24 0 27 32 13 49 -22 29 -59 61 -31 61 54 1 51 17 83 44 83 17
0 23 36 6 42 -6 2 -12 26 -13 53 -2 28 -7 58 -11 67 -6 13 0 26 20 48 16 16
34 30 40 30 6 0 17 13 23 28 7 16 21 35 33 43 11 8 26 19 32 24 26 25 77 57
106 66 27 10 33 8 54 -14 19 -21 25 -23 30 -12 3 8 16 16 28 16 21 1 21 2 3 6
-26 6 -54 42 -55 70 0 12 -4 25 -10 28 -5 3 -10 17 -10 31 0 17 5 24 20 24 11
0 20 -4 20 -10 0 -5 5 -10 11 -10 5 0 24 -13 42 -30 18 -16 37 -30 44 -30 6 0
13 -6 16 -12 2 -7 8 -10 11 -6 10 9 -81 98 -100 98 -8 0 -14 5 -14 10 0 6 -7
10 -16 10 -8 0 -22 7 -30 15 -8 8 -21 18 -28 22 -7 5 -27 29 -44 55 -35 51
-42 98 -16 98 9 0 27 9 41 20 14 11 34 20 44 20 15 0 17 -5 13 -29 -6 -29 23
-84 54 -104 18 -12 15 -38 -5 -35 -27 5 -22 -25 7 -39 23 -11 26 -10 33 12 11
31 27 32 28 3 l0 -23 11 23 c13 26 25 28 32 5 3 -10 3 0 0 22 -10 69 -9 88 4
92 6 3 12 -2 12 -11 0 -17 17 -20 44 -10 24 9 21 61 -4 69 -11 3 -20 15 -20
26 0 10 -4 19 -10 19 -5 0 -10 9 -10 20 0 16 7 20 30 20 17 0 30 5 30 10 0 6
-13 10 -29 10 -16 0 -31 5 -33 11 -3 9 -10 9 -26 0 -19 -10 -26 -8 -46 12 -12
13 -28 36 -34 53 -10 27 -10 25 -11 -25 -1 -48 -5 -57 -37 -87 -19 -19 -40
-34 -46 -34 -18 0 -88 -33 -88 -42 0 -4 -9 -8 -20 -8 -11 0 -20 6 -20 14 0 34
-177 80 -188 48 -2 -7 1 -12 7 -12 26 0 131 -123 117 -137 -2 -3 -51 -5 -108
-4 -83 1 -105 4 -115 18 -12 15 -13 15 -19 0 -5 -13 -19 -17 -59 -17 -30 0
-57 -5 -60 -11 -4 -5 -12 -8 -18 -6 -13 4 -10 100 4 105 15 6 10 38 -13 81
-25 47 -21 56 15 42 30 -11 107 -120 107 -150 0 -14 6 -21 20 -21 11 0 20 7
20 15 0 9 8 39 18 68 12 33 17 74 16 112 -2 37 3 72 12 92 15 34 13 82 -8 135
-13 34 12 90 50 109 15 8 50 35 77 61 59 57 85 62 85 18 0 -16 5 -30 10 -30 6
0 10 -16 10 -35 0 -19 5 -35 10 -35 6 0 10 26 10 59 0 33 -4 63 -10 66 -20 13
-9 40 32 77 23 21 50 41 60 44 10 3 18 10 18 15 0 5 8 9 18 9 9 0 31 13 47 28
17 15 47 36 68 45 20 10 37 22 37 27 0 15 37 12 54 -5 8 -8 17 -15 20 -15 3 0
6 7 6 15 0 8 -4 15 -10 15 -20 0 -9 26 20 45 16 11 30 26 30 33 0 15 0 15 -52
-6 -48 -21 -75 -16 -140 25 -21 12 -42 23 -48 23 -5 0 -10 4 -10 8 0 4 -21 14
-47 21 -27 7 -61 17 -77 22 -30 9 -76 12 -76 4 0 -12 54 -57 58 -47 4 14 35
16 60 3 48 -25 150 -70 170 -76 30 -9 28 -33 -3 -45 -14 -5 -28 -17 -31 -25
-4 -8 -12 -15 -19 -15 -6 0 -20 -9 -30 -20 -10 -11 -24 -20 -32 -20 -7 0 -13
-4 -13 -10 0 -5 -6 -10 -14 -10 -7 0 -33 -18 -56 -41 -23 -22 -43 -39 -44 -37
-2 2 -14 23 -27 48 -29 55 -67 90 -96 90 -12 0 -23 7 -25 16 -2 12 -15 17 -51
18 -51 1 -59 -6 -43 -41 13 -28 50 -40 70 -24 10 8 16 9 21 1 3 -5 15 -10 26
-10 10 0 19 -4 19 -10 0 -5 9 -10 20 -10 13 0 20 -7 20 -20 0 -11 5 -20 10
-20 6 0 10 -9 10 -20 0 -11 5 -20 11 -20 5 0 8 -4 4 -10 -3 -5 -12 -7 -20 -3
-10 3 -13 1 -10 -9 9 -22 -48 -78 -79 -78 -17 0 -26 -5 -26 -16 0 -23 -52 -84
-72 -84 -11 0 -18 8 -18 19 0 11 -4 23 -10 26 -5 3 -10 17 -10 31 0 13 -4 24
-10 24 -5 0 -10 9 -10 20 0 11 -4 20 -10 20 -14 0 -13 -267 1 -272 6 -2 10
-41 10 -101 0 -53 4 -97 9 -97 13 0 22 -32 11 -43 -6 -6 -6 -19 -1 -33 6 -15
5 -26 -1 -30 -15 -9 -39 15 -39 39 0 11 -7 28 -15 37 -11 12 -12 24 -6 46 4
16 6 35 4 42 -7 18 -23 4 -23 -19 0 -10 -4 -19 -8 -19 -13 0 -40 54 -35 70 9
32 29 66 47 83 11 9 16 20 13 23 -10 10 -37 -4 -44 -23 -4 -10 -19 -30 -34
-45 -24 -24 -30 -25 -53 -15 -14 7 -26 18 -26 25 0 7 -8 16 -18 20 -40 15
-142 88 -153 109 -10 19 -8 28 13 60 14 21 41 56 61 78 20 22 37 44 37 48 0 9
66 77 75 77 3 0 5 -9 5 -19 0 -11 5 -23 10 -26 6 -4 10 13 10 45 0 37 5 57 20
72 29 31 16 35 -15 4 -14 -14 -30 -26 -35 -26 -6 0 -10 -9 -10 -21 0 -12 -8
-23 -20 -26 -11 -3 -20 -11 -20 -18 0 -6 -13 -26 -30 -43 -16 -18 -30 -36 -30
-42 0 -5 -4 -10 -10 -10 -5 0 -21 -20 -35 -44 -14 -24 -38 -52 -52 -61 -25
-17 -26 -16 -49 9 -13 14 -24 31 -24 39 0 7 -10 23 -21 36 -19 20 -20 26 -9
47 8 13 22 24 32 24 12 0 18 7 18 22 0 17 -3 19 -12 10 -15 -15 -48 -16 -48
-2 0 6 -7 10 -16 10 -18 0 -91 -38 -112 -57 -7 -7 -17 -13 -22 -13 -18 0 -18
-45 1 -79 10 -19 19 -44 19 -53 0 -10 6 -18 13 -18 7 0 21 -12 32 -27 11 -15
33 -42 49 -60 21 -25 27 -39 22 -58 -4 -14 -11 -25 -16 -25 -6 0 -10 -7 -10
-15 0 -8 -4 -15 -10 -15 -5 0 -10 4 -10 9 0 5 -15 25 -33 45 -33 35 -67 48
-67 24 0 -19 43 -108 52 -108 4 0 8 -13 8 -28 0 -20 -8 -32 -30 -45 -17 -10
-30 -27 -30 -38 0 -37 -34 -22 -48 22 -7 23 -18 47 -25 55 -26 29 -33 40 -44
69 -15 38 -23 103 -24 185 -1 54 2 67 19 78 18 12 19 18 11 40 -12 31 14 236
37 288 14 31 84 117 117 144 11 8 27 23 36 34 9 10 28 32 44 48 15 17 27 34
27 39 0 22 -26 4 -90 -61 -38 -38 -72 -70 -75 -70 -9 0 -6 38 6 67 6 15 15 37
19 48 27 68 36 85 42 85 5 0 8 12 8 26 0 27 14 46 43 57 15 6 16 10 5 27 -20
32 -20 32 -60 -57 -7 -16 -15 -30 -18 -33 -16 -14 -50 -84 -50 -101 0 -10 -2
-19 -5 -19 -16 0 -51 43 -77 94 -34 68 -40 76 -90 123 -21 20 -35 40 -32 44 7
11 64 12 64 1 0 -5 11 -14 25 -20 33 -15 36 -15 29 2 -3 7 -23 19 -45 26 -76
25 -79 80 -4 80 25 0 45 5 45 10 0 6 -27 10 -60 10 -33 0 -60 -4 -60 -9 0 -18
-69 -22 -99 -6 -34 17 -61 20 -61 5z m133 -56 c9 -10 -4 -34 -19 -34 -8 0 -14
9 -14 20 0 19 19 27 33 14z m585 -1249 c23 -26 42 -54 42 -61 0 -7 -11 -25
-25 -40 -14 -15 -35 -40 -47 -55 -19 -24 -23 -25 -37 -12 -16 17 -33 97 -40
194 -1 12 -16 19 -48 25 -39 7 -49 13 -51 32 -2 12 1 22 7 22 6 0 11 5 11 12
0 6 8 20 17 30 17 19 19 18 73 -39 30 -33 74 -81 98 -108z m29 103 c-3 -8 -6
-5 -6 6 -1 11 2 17 5 13 3 -3 4 -12 1 -19z m42 -197 c18 -11 19 -107 2 -124
-6 -6 -11 -19 -11 -29 0 -11 -7 -18 -20 -18 -11 0 -20 -4 -20 -10 0 -5 9 -10
20 -10 11 0 20 -4 20 -10 0 -5 -4 -10 -10 -10 -5 0 -10 -18 -10 -40 0 -22 -4
-40 -9 -40 -5 0 -11 -18 -15 -39 -3 -22 -14 -46 -24 -53 -11 -7 -24 -24 -31
-37 -9 -15 -16 -20 -23 -13 -14 14 0 52 17 46 19 -8 29 34 18 77 -7 27 -15 35
-36 37 -29 4 -37 29 -12 38 8 4 15 17 15 30 0 30 56 143 81 165 11 9 19 24 19
33 0 18 8 20 29 7z m-241 -126 c2 -50 -1 -76 -7 -70 -5 6 -11 19 -13 30 -2 11
-10 19 -17 17 -9 -2 -11 3 -7 13 3 9 6 35 6 57 0 32 3 39 17 36 15 -3 18 -17
21 -83z m602 -25 c0 -11 -7 -20 -15 -20 -8 0 -15 2 -15 4 0 2 -3 11 -6 20 -4
12 0 16 15 16 14 0 21 -6 21 -20z m-180 -21 c33 -21 150 -136 150 -149 0 -4
11 -13 25 -20 37 -20 32 -40 -10 -40 -30 0 -37 5 -49 33 l-14 32 -15 -36 c-9
-20 -15 -55 -14 -77 0 -23 -2 -44 -5 -48 -10 -9 -38 21 -38 40 0 9 -6 16 -14
16 -7 0 -22 11 -32 25 -10 14 -25 23 -34 20 -8 -3 -28 2 -44 10 -31 16 -56 20
-56 8 0 -5 27 -36 60 -71 33 -34 60 -68 60 -75 0 -7 9 -18 20 -25 11 -7 20
-17 20 -22 0 -5 18 -33 40 -62 43 -57 47 -73 25 -102 -10 -13 -21 -17 -39 -12
-25 6 -38 -8 -14 -16 15 -5 3 -38 -15 -38 -18 0 -57 34 -57 49 0 6 -4 11 -10
11 -5 0 -10 9 -10 20 0 11 -3 20 -8 20 -4 0 -13 15 -21 33 -8 17 -17 34 -20
37 -14 12 -30 50 -22 50 6 0 11 21 13 47 3 40 -1 51 -26 75 -16 16 -29 28 -30
26 -22 -37 -99 -339 -94 -370 5 -37 21 -27 48 29 29 60 60 72 60 24 0 -16 7
-34 15 -41 13 -11 19 -9 35 10 11 13 23 20 28 15 4 -4 1 -10 -5 -12 -20 -7
-15 -23 7 -23 13 0 20 -7 20 -20 0 -11 4 -28 9 -38 33 -65 36 -96 14 -136 -8
-15 -17 -17 -44 -11 -63 13 -162 17 -183 7 -12 -6 -36 -16 -53 -24 -18 -7 -33
-16 -33 -20 0 -5 -6 -8 -14 -8 -7 0 -27 -13 -44 -30 -18 -16 -37 -30 -43 -30
-7 0 -20 -10 -30 -21 -11 -12 -25 -19 -34 -15 -11 4 -15 -1 -15 -19 0 -30 11
-32 30 -5 8 11 21 20 29 20 7 0 21 8 30 18 43 46 185 93 227 73 14 -6 39 -11
55 -11 17 0 37 -6 45 -14 17 -17 19 -62 3 -72 -6 -3 -8 -17 -5 -29 4 -14 0
-29 -9 -39 -8 -8 -15 -21 -15 -28 0 -7 -14 -29 -30 -48 -24 -28 -29 -40 -23
-60 15 -50 -2 -186 -22 -184 -6 1 -20 18 -31 39 -12 20 -36 52 -53 70 -17 18
-31 36 -31 39 0 4 -13 20 -29 37 -27 28 -32 30 -80 23 -39 -5 -51 -11 -51 -24
0 -24 21 -62 58 -106 37 -43 38 -47 16 -69 -9 -9 -13 -19 -9 -23 4 -4 10 -1
12 6 3 6 12 12 20 12 18 0 63 -49 63 -67 0 -7 6 -13 13 -13 6 -1 34 -31 62
-68 45 -61 73 -127 75 -175 0 -10 8 -26 17 -35 15 -16 16 -15 10 16 -4 18 -2
32 3 32 6 0 10 50 10 125 l0 125 24 0 c18 0 29 -9 40 -32 9 -17 16 -37 16 -44
0 -7 9 -29 20 -49 11 -20 20 -44 20 -55 0 -10 5 -22 10 -25 6 -3 10 -17 10
-30 0 -13 -4 -27 -10 -30 -5 -3 -10 -15 -10 -26 0 -10 -4 -19 -10 -19 -6 0
-10 -31 -10 -73 0 -76 -18 -133 -46 -144 -8 -3 -14 -10 -14 -15 0 -11 -40 -47
-52 -48 -5 0 -8 7 -8 15 0 8 -9 15 -19 15 -11 0 -23 5 -26 10 -3 6 -13 10 -20
10 -11 0 -13 -8 -8 -32 6 -32 6 -33 -14 -15 -11 9 -31 39 -44 65 -13 26 -27
49 -31 50 -5 2 -8 10 -8 18 0 8 -4 14 -10 14 -5 0 -25 16 -44 35 -21 21 -45
35 -60 35 -14 0 -28 5 -31 10 -4 7 -12 7 -25 0 -29 -16 -30 -14 -30 49 0 33
-4 63 -10 66 -5 3 -10 26 -10 51 0 24 5 44 10 44 6 0 10 7 10 15 0 18 49 106
77 139 24 28 24 30 -1 20 -9 -3 -16 -11 -16 -18 0 -6 -9 -18 -20 -26 -11 -8
-20 -18 -20 -23 0 -14 -32 -42 -49 -42 -9 0 -15 -6 -14 -12 2 -7 -6 -27 -17
-45 -11 -18 -20 -41 -20 -50 0 -10 -4 -18 -10 -18 -5 0 -10 -9 -10 -20 0 -11
-4 -20 -8 -20 -5 0 -19 -24 -32 -52 -12 -29 -33 -77 -46 -106 -13 -29 -24 -60
-24 -69 0 -11 -3 -13 -9 -7 -14 14 -38 343 -27 370 6 15 9 14 24 -7 9 -13 19
-44 23 -69 5 -36 7 -27 7 40 1 78 0 83 -14 65 -14 -19 -15 -18 -14 20 3 74
-21 178 -47 202 -13 12 -23 31 -23 42 0 10 -5 21 -12 23 -14 5 -13 107 1 121
6 6 11 26 11 45 0 42 26 67 47 46 7 -7 13 -22 13 -32 0 -32 11 -52 27 -52 11
0 14 6 9 23 -4 12 -9 34 -12 50 -4 15 -10 27 -15 27 -5 0 -9 9 -9 20 0 11 -4
20 -10 20 -21 0 -1 98 27 132 7 7 19 36 28 63 28 87 37 106 57 116 19 10 48
-7 48 -30 0 -5 10 -18 23 -28 20 -16 22 -26 19 -87 -2 -49 1 -72 10 -77 22
-14 28 -10 28 19 0 16 3 32 7 35 4 4 8 26 10 50 3 23 9 46 14 52 12 12 12 85
0 85 -5 0 -9 27 -9 60 0 59 0 60 28 60 27 0 29 3 32 47 2 36 7 49 21 51 10 2
17 -3 17 -12 0 -9 5 -16 10 -16 6 0 10 20 10 44 0 39 3 44 25 48 26 5 45 -9
27 -21 -5 -3 -12 -17 -13 -31 -3 -20 1 -26 20 -28 21 -3 23 -1 19 23 -3 14 -1
44 5 66 8 32 12 37 23 28 11 -9 14 -8 14 3 0 8 16 31 35 52 19 21 35 42 35 47
0 5 13 23 30 41 23 24 28 34 19 45 -9 10 -7 24 11 58 13 25 27 45 32 45 4 0 8
-18 8 -40 0 -33 3 -40 20 -40 17 0 20 7 20 50 0 58 13 63 70 29z m379 9 c42
-15 103 -74 121 -117 7 -17 19 -31 26 -31 8 0 14 -8 14 -19 0 -15 -11 -19 -77
-25 -118 -10 -143 -8 -143 9 0 8 -4 15 -10 15 -6 0 -10 37 -10 90 0 101 3 104
79 78z m-731 -120 c7 -7 12 -31 12 -55 0 -38 -3 -43 -22 -44 -13 0 -17 -3 -10
-6 6 -2 12 -17 12 -32 0 -20 -7 -31 -25 -39 -38 -17 -42 -15 -37 18 5 36 -4
38 -35 8 -40 -37 -29 6 20 75 66 96 65 95 85 75z m175 -5 c-7 -2 -13 -11 -13
-19 0 -8 -4 -14 -10 -14 -5 0 -10 6 -10 14 0 14 15 24 35 24 6 0 4 -2 -2 -5z
m601 -90 c8 -8 -38 -50 -65 -58 -11 -4 -19 -11 -19 -16 0 -5 -4 -9 -10 -9 -5
0 -10 20 -10 45 l0 45 48 0 c27 0 52 -3 56 -7z m-175 -45 c35 -37 40 -76 14
-99 -10 -9 -22 -23 -28 -32 -13 -22 -52 -12 -61 15 -4 15 -8 17 -14 8 -4 -6
-16 -10 -26 -8 -15 3 -19 12 -17 41 1 21 10 53 19 72 23 48 70 49 113 3z
m-1119 8 c0 -7 -12 -16 -27 -19 -34 -6 -44 -1 -36 18 7 19 63 20 63 1z m-313
-161 c-10 -7 -17 -20 -17 -29 0 -9 -5 -16 -11 -16 -14 0 -2 52 14 62 19 11 31
-4 14 -17z m-97 -145 c0 -11 -4 -20 -10 -20 -5 0 -10 -9 -10 -21 0 -15 -5 -19
-19 -14 -14 4 -19 1 -17 -12 1 -12 -5 -17 -18 -16 -10 0 -28 -10 -40 -23 -29
-34 -50 -20 -34 23 10 28 16 31 40 26 23 -5 28 -2 28 15 0 12 8 23 19 27 11 3
22 12 25 20 8 22 36 18 36 -5z m1535 -39 c-7 -6 -35 27 -35 41 0 7 9 2 20 -12
10 -14 17 -26 15 -29z m-988 -3 c-3 -8 -6 -5 -6 6 -1 11 2 17 5 13 3 -3 4 -12
1 -19z m-1832 -8 c3 -5 -1 -10 -9 -10 -9 0 -16 5 -16 10 0 6 4 10 9 10 6 0 13
-4 16 -10z m2045 -29 c0 -27 -17 -35 -23 -11 -5 19 0 30 15 30 4 0 8 -9 8 -19z
m670 -45 c0 -8 -7 -16 -15 -20 -10 -4 -15 1 -15 14 0 11 7 20 15 20 8 0 15 -6
15 -14z m-2552 -86 c22 -21 29 -40 14 -40 -12 0 -52 39 -52 50 0 16 14 12 38
-10z m220 -70 c18 -16 36 -30 41 -30 5 0 16 -12 26 -26 45 -69 109 -134 133
-134 30 -1 54 -27 47 -49 -4 -13 -2 -21 5 -21 7 0 6 -5 -2 -14 -11 -11 -27 1
-98 75 -119 125 -182 195 -192 213 -15 26 6 19 40 -14z m2192 -5 c0 -8 -4 -15
-10 -15 -5 0 -10 7 -10 15 0 8 5 15 10 15 6 0 10 -7 10 -15z m448 -108 c2 -19
-1 -27 -12 -27 -18 0 -22 -25 -6 -35 6 -4 8 -11 4 -16 -3 -5 0 -16 6 -24 7 -9
9 -26 5 -45 -6 -26 -11 -31 -32 -28 -14 2 -31 12 -37 23 -6 11 -12 22 -13 24
-2 2 -9 -2 -18 -9 -10 -8 -15 -9 -15 -1 0 6 3 11 8 11 10 0 32 50 32 71 0 10
10 34 21 54 25 42 52 43 57 2z m-368 -8 c0 -14 -17 -10 -23 5 -4 10 -1 13 9 9
7 -3 14 -9 14 -14z m-90 -9 c14 -11 30 -20 36 -20 20 0 74 -31 83 -47 5 -10
16 -14 29 -11 14 4 28 -3 45 -21 41 -44 42 -65 4 -123 -59 -91 -127 -208 -127
-218 0 -6 -4 -18 -9 -28 -33 -65 -35 -72 -21 -97 16 -30 10 -38 -21 -30 -23 6
-49 44 -49 72 0 7 -3 13 -8 13 -4 0 -12 15 -18 34 -10 32 -9 36 18 56 15 11
28 29 28 39 0 10 7 24 16 31 34 29 37 50 10 71 -14 11 -26 25 -26 30 0 6 -7
17 -15 26 -14 14 -18 14 -34 -1 -32 -29 -51 -10 -51 48 1 51 19 139 33 152 4
4 7 16 7 26 0 24 37 23 70 -2z m-3940 -10 c0 -5 -4 -10 -10 -10 -5 0 -10 5
-10 10 0 6 5 10 10 10 6 0 10 -4 10 -10z m1997 -22 c-3 -7 -5 -2 -5 12 0 14 2
19 5 13 2 -7 2 -19 0 -25z m2620 13 c9 -15 9 -23 -2 -37 -18 -25 -35 -8 -28
29 6 32 14 34 30 8z m-3352 -11 c3 -5 1 -10 -4 -10 -6 0 -11 5 -11 10 0 6 2
10 4 10 3 0 8 -4 11 -10z m2890 -20 c3 -5 -3 -10 -15 -10 -12 0 -18 5 -15 10
3 6 10 10 15 10 5 0 12 -4 15 -10z m-4301 -59 c9 -14 -33 -61 -55 -61 -14 0
-19 7 -19 25 0 16 4 23 14 19 7 -3 16 2 19 10 7 17 32 21 41 7z m1623 -63 c18
-34 22 -52 15 -64 -9 -16 -10 -15 -16 4 -4 13 -16 22 -27 22 -21 0 -25 -21 -8
-52 8 -14 8 -23 0 -31 -6 -6 -11 -21 -11 -34 0 -16 -6 -23 -20 -23 -16 0 -20
-7 -20 -37 l-1 -38 -39 45 c-36 40 -40 50 -40 97 0 29 5 53 10 53 6 0 10 -9
10 -20 0 -11 7 -20 15 -20 9 0 12 -6 9 -15 -6 -16 12 -45 27 -45 5 0 9 9 9 20
0 11 -4 20 -10 20 -20 0 -9 31 14 40 18 7 22 14 19 34 -3 14 -9 26 -14 26 -5
0 -9 9 -9 19 0 11 -6 23 -12 27 -9 6 -5 10 12 15 46 13 62 5 87 -43z m-160 16
c10 -22 10 -25 -3 -20 -9 3 -18 6 -20 6 -2 0 -4 9 -4 20 0 28 13 25 27 -6z
m543 18 c0 -12 53 -67 83 -87 18 -12 27 -26 27 -44 0 -15 4 -31 9 -36 5 -6 13
-27 17 -49 l7 -38 -22 18 c-11 10 -21 24 -21 31 0 17 -17 17 -23 1 -3 -7 -3 2
0 20 3 20 1 32 -6 32 -6 0 -11 7 -11 16 0 20 -29 49 -38 39 -4 -4 -1 -10 6
-12 6 -3 12 -13 12 -24 0 -10 5 -19 10 -19 6 0 10 -6 10 -14 0 -9 -7 -12 -20
-9 -25 7 -25 -7 0 -40 11 -13 25 -49 31 -78 7 -30 18 -64 26 -75 9 -14 10 -24
4 -28 -12 -8 34 -56 52 -55 9 0 9 2 0 6 -7 2 -13 14 -13 26 0 12 -7 35 -15 51
-19 36 -19 52 0 36 8 -7 15 -23 15 -36 0 -19 5 -24 25 -24 22 0 23 3 15 24 -5
13 -6 27 -3 30 12 12 33 6 33 -9 0 -8 3 -15 8 -15 10 0 32 -50 32 -71 0 -15 6
-17 37 -12 27 5 34 3 29 -6 -4 -6 -16 -9 -27 -6 -10 4 -19 2 -19 -2 0 -5 -9
-18 -19 -30 -16 -17 -17 -25 -8 -56 7 -21 15 -37 19 -37 5 0 8 -6 8 -14 0 -8
9 -18 20 -21 23 -7 26 -21 6 -28 -8 -3 -20 1 -27 9 -10 12 -14 11 -29 -6 -24
-28 -36 -25 -54 12 -20 40 -20 45 4 51 14 3 20 14 20 31 0 19 -5 26 -20 26
-13 0 -20 7 -20 20 0 21 -15 27 -25 10 -12 -19 -33 3 -71 78 -21 42 -42 79
-46 80 -5 2 -8 14 -8 28 0 13 -9 39 -20 59 -11 20 -20 44 -20 55 0 11 -4 20
-10 20 -5 0 -10 6 -10 14 0 7 -13 27 -29 43 -35 37 -51 93 -27 93 9 0 16 -6
16 -12 1 -7 19 -31 40 -53 22 -22 40 -46 40 -52 0 -7 5 -13 10 -13 14 0 13 13
-5 46 -13 25 -13 29 0 37 19 10 10 25 -21 37 -29 11 -32 40 -4 40 11 0 20 -3
20 -8z m2420 -38 c0 -27 7 -42 30 -62 17 -15 30 -34 30 -42 0 -9 8 -25 18 -36
10 -10 24 -39 32 -64 8 -25 19 -48 24 -52 13 -9 -7 -32 -47 -53 -54 -28 -76
-41 -94 -56 -10 -8 -30 -21 -44 -28 -15 -7 -33 -24 -40 -37 -7 -14 -27 -33
-43 -44 -17 -10 -51 -39 -76 -64 -48 -50 -80 -60 -80 -24 0 20 30 118 50 163
5 11 17 47 26 80 19 69 47 129 75 158 10 12 19 26 19 32 0 7 18 40 40 74 22
34 40 66 40 71 0 8 16 17 33 19 4 1 7 -15 7 -35z m-3943 -40 c-3 -3 -12 -4
-19 -1 -8 3 -5 6 6 6 11 1 17 -2 13 -5z m938 -14 c-4 -11 -2 -20 4 -20 15 0
14 -33 -1 -48 -22 -22 -28 -13 -28 38 0 39 4 50 16 50 11 0 14 -6 9 -20z
m-1445 -9 c0 -5 -7 -14 -15 -21 -13 -10 -15 -9 -15 9 0 12 6 21 15 21 8 0 15
-4 15 -9z m3160 -31 c0 -11 -4 -20 -10 -20 -5 0 -10 9 -10 20 0 11 5 20 10 20
6 0 10 -9 10 -20z m-1450 -10 c0 -5 -4 -10 -10 -10 -5 0 -10 5 -10 10 0 6 5
10 10 10 6 0 10 -4 10 -10z m-690 -60 c0 -5 -7 -10 -15 -10 -8 0 -15 5 -15 10
0 6 7 10 15 10 8 0 15 -4 15 -10z m667 -10 c18 0 33 -4 33 -10 0 -5 -4 -10
-10 -10 -5 0 -10 -10 -10 -23 0 -21 -4 -23 -37 -20 -21 1 -39 7 -41 13 -2 5
-10 10 -18 10 -8 0 -14 5 -14 10 0 6 6 10 14 10 7 0 16 10 20 22 4 18 8 20 18
10 6 -6 27 -12 45 -12z m143 -4 c0 -3 -4 -8 -10 -11 -5 -3 -10 -1 -10 4 0 6 5
11 10 11 6 0 10 -2 10 -4z m-1540 -32 c0 -8 -4 -12 -10 -9 -5 3 -10 10 -10 16
0 5 5 9 10 9 6 0 10 -7 10 -16z m547 -6 c-3 -8 -6 -5 -6 6 -1 11 2 17 5 13 3
-3 4 -12 1 -19z m623 -18 c0 -22 -4 -40 -10 -40 -5 0 -10 18 -10 40 0 22 5 40
10 40 6 0 10 -18 10 -40z m510 30 c0 -5 -4 -10 -10 -10 -5 0 -10 5 -10 10 0 6
5 10 10 10 6 0 10 -4 10 -10z m-1482 -22 c16 -16 15 -38 -4 -59 -33 -36 -59 7
-32 51 15 23 20 24 36 8z m1325 -20 c4 -10 8 -10 15 1 7 10 14 11 28 2 11 -6
13 -11 7 -11 -7 0 -13 -5 -13 -11 0 -6 -10 -24 -21 -41 -17 -23 -19 -34 -12
-51 19 -40 33 -93 33 -120 0 -15 5 -27 12 -27 6 0 8 -3 5 -6 -4 -4 -18 1 -32
10 -18 12 -25 25 -25 47 0 22 -5 32 -20 36 -21 6 -28 47 -10 58 7 4 7 12 0 25
-5 10 -10 32 -10 47 0 41 31 70 43 41z m117 2 c0 -5 -2 -10 -4 -10 -3 0 -8 5
-11 10 -3 6 -1 10 4 10 6 0 11 -4 11 -10z m-1604 -47 c-11 -11 -19 6 -11 24 8
17 8 17 12 0 3 -10 2 -21 -1 -24z m350 8 c-7 -11 -36 -16 -36 -6 0 3 6 12 13
20 13 15 33 3 23 -14z m884 19 c0 -5 -4 -10 -10 -10 -5 0 -10 5 -10 10 0 6 5
10 10 10 6 0 10 -4 10 -10z m655 0 c3 -5 1 -10 -4 -10 -6 0 -11 5 -11 10 0 6
2 10 4 10 3 0 8 -4 11 -10z m-1768 -82 c-3 -7 -5 -2 -5 12 0 14 2 19 5 13 2
-7 2 -19 0 -25z m1093 22 c0 -5 -4 -10 -10 -10 -5 0 -10 5 -10 10 0 6 5 10 10
10 6 0 10 -4 10 -10z m395 -21 c16 -29 15 -31 -2 -27 -11 2 -19 14 -21 31 -4
35 4 34 23 -4z m388 5 c8 -8 -3 -34 -14 -34 -5 0 -9 9 -9 20 0 19 11 26 23 14z
m-1600 -20 c3 -3 3 -12 0 -20 -4 -10 -9 -11 -23 -1 -14 8 -16 13 -7 19 15 9
22 10 30 2z m-351 -84 c2 -49 -1 -71 -9 -75 -7 -2 -13 -18 -13 -35 0 -16 -4
-30 -10 -30 -5 0 -10 14 -10 30 0 17 -4 30 -10 30 -5 0 -10 22 -10 50 0 37 6
56 22 75 12 14 25 25 29 25 4 0 9 -31 11 -70z m196 58 c18 -18 15 -51 -4 -44
-9 3 -18 6 -20 6 -2 0 -4 11 -4 25 0 27 9 32 28 13z m74 -14 c-6 -28 -11 -30
-30 -11 -15 16 -15 19 -2 27 21 14 36 6 32 -16z m906 7 c8 -5 12 -21 10 -37
l-3 -29 -17 34 c-10 19 -18 36 -18 38 0 6 15 3 28 -6z m-348 -26 c-7 -8 -16
-15 -21 -15 -5 0 -9 7 -9 15 0 9 9 15 21 15 18 0 19 -2 9 -15z m850 5 c0 -5
-2 -10 -4 -10 -3 0 -8 5 -11 10 -3 6 -1 10 4 10 6 0 11 -4 11 -10z m-80 -20
c0 -5 -4 -10 -10 -10 -5 0 -10 5 -10 10 0 6 5 10 10 10 6 0 10 -4 10 -10z
m-1260 -29 c0 -38 -48 -55 -77 -26 -18 19 -13 26 30 41 37 13 47 10 47 -15z
m1646 -18 c-11 -11 -19 6 -11 24 8 17 8 17 12 0 3 -10 2 -21 -1 -24z m-1831
-61 c-3 -7 0 -23 6 -34 9 -16 7 -24 -5 -36 -14 -14 -17 -14 -36 8 -24 28 -25
42 -4 82 16 30 17 31 30 13 8 -11 12 -26 9 -33z m1059 22 c3 -8 3 -40 0 -71
-9 -69 -24 -50 -24 30 0 55 11 74 24 41z m836 6 c0 -5 -4 -10 -10 -10 -5 0
-10 5 -10 10 0 6 5 10 10 10 6 0 10 -4 10 -10z m-450 -30 c0 -11 -4 -20 -10
-20 -5 0 -10 9 -10 20 0 11 5 20 10 20 6 0 10 -9 10 -20z m-1720 -30 c0 -5 -4
-10 -10 -10 -5 0 -10 5 -10 10 0 6 5 10 10 10 6 0 10 -4 10 -10z m998 -114
c-13 -16 -9 -61 10 -108 10 -24 17 -59 17 -78 -2 -29 -6 -36 -31 -43 -18 -5
-40 -4 -57 2 -27 11 -28 12 -14 38 35 67 45 117 26 128 -21 14 -6 75 29 113 6
7 13 28 13 45 1 18 5 5 9 -28 4 -33 3 -64 -2 -69z m-278 89 c0 -14 -4 -25 -10
-25 -5 0 -10 11 -10 25 0 14 5 25 10 25 6 0 10 -11 10 -25z m1081 -39 c18 -30
20 -28 23 16 2 33 56 6 56 -28 0 -12 6 -27 14 -33 8 -7 12 -21 8 -33 -5 -20
-6 -19 -19 6 -13 26 -33 35 -33 16 0 -5 5 -10 10 -10 6 0 10 -9 10 -20 0 -11
6 -20 13 -20 18 0 50 -36 43 -48 -3 -6 1 -12 9 -16 18 -7 20 -36 2 -36 -7 0
-19 16 -27 35 -8 19 -20 35 -27 35 -18 0 -18 -116 0 -123 8 -3 6 -7 -6 -12
-10 -4 -28 -3 -40 3 -12 5 -30 13 -39 16 -10 3 -18 12 -18 19 0 8 -14 17 -31
21 -27 5 -31 10 -27 31 4 17 -1 29 -18 42 -18 13 -24 28 -24 55 0 21 -4 38
-10 38 -5 0 -10 14 -10 30 0 17 -4 30 -10 30 -5 0 -10 5 -10 10 0 19 17 10 31
-17 8 -16 23 -36 33 -46 15 -13 17 -20 8 -29 -7 -7 -12 -17 -12 -24 0 -14 52
-26 64 -14 14 14 -3 60 -22 61 -15 1 -15 2 -1 6 11 3 16 15 16 42 0 45 15 78
21 47 2 -10 13 -33 23 -50z m1459 7 c0 -10 -9 -29 -20 -43 l-20 -25 0 37 c0
32 8 45 33 47 4 1 7 -7 7 -16z m-4800 -3 c0 -5 -4 -10 -10 -10 -5 0 -10 5 -10
10 0 6 5 10 10 10 6 0 10 -4 10 -10z m-280 -20 c0 -5 -4 -10 -10 -10 -5 0 -10
5 -10 10 0 6 5 10 10 10 6 0 10 -4 10 -10z m163 -4 c9 -7 17 -21 17 -30 0 -18
-15 -22 -25 -6 -8 14 -35 13 -35 -1 0 -14 -30 -38 -47 -39 -20 0 -15 21 9 41
29 26 14 24 -22 -3 -16 -11 -27 -25 -25 -29 3 -4 -5 -5 -17 -1 -12 3 -17 7
-10 10 6 2 12 8 12 12 0 5 10 20 23 34 25 27 90 34 120 12z m471 -21 c8 -22
-4 -45 -23 -45 -22 0 -41 19 -41 42 0 23 55 25 64 3z m243 -19 c-4 -9 -13 -13
-21 -10 -12 5 -13 9 -3 25 13 21 33 9 24 -15z m1663 2 c0 -5 -4 -8 -10 -8 -5
0 -10 10 -10 23 0 18 2 19 10 7 5 -8 10 -18 10 -22z m2691 -4 c10 -9 15 -22
12 -30 -3 -8 0 -14 6 -14 6 0 11 -13 11 -29 0 -21 6 -32 20 -36 11 -3 20 -13
20 -21 0 -8 5 -14 10 -14 6 0 10 -5 10 -11 0 -6 9 -24 21 -41 24 -33 22 -39
-18 -41 -78 -3 -103 3 -103 23 0 11 -4 20 -10 20 -5 0 -10 13 -10 28 0 15 -5
33 -11 39 -5 5 -11 33 -11 62 -1 29 -5 54 -10 57 -14 9 2 24 24 24 12 0 29 -7
39 -16z m-107 -52 c20 -57 21 -168 2 -187 -7 -8 -31 -15 -52 -18 -34 -3 -36
-5 -16 -12 25 -8 26 -43 1 -36 -8 3 -36 7 -63 9 l-48 4 7 32 c3 17 10 58 15
91 12 78 37 123 70 127 14 2 29 12 34 24 14 32 32 19 50 -34z m-3836 32 c19
-13 20 -17 8 -30 -25 -24 -46 -17 -46 16 0 34 6 36 38 14z m-513 -14 c3 -5 1
-10 -4 -10 -6 0 -11 5 -11 10 0 6 2 10 4 10 3 0 8 -4 11 -10z m-705 -20 c0 -5
-5 -10 -11 -10 -5 0 -7 5 -4 10 3 6 8 10 11 10 2 0 4 -4 4 -10z m560 1 c0 -15
-15 -21 -38 -14 -32 8 -27 23 8 23 17 0 30 -4 30 -9z m1892 -64 c2 -26 6 -47
11 -47 4 0 7 -7 7 -15 0 -9 9 -15 22 -15 20 0 21 -2 7 -15 -23 -24 -69 -4 -69
30 0 14 -4 25 -10 25 -5 0 -10 -7 -10 -16 0 -23 -29 -49 -41 -37 -7 7 -2 28
15 65 14 30 26 60 26 66 0 13 22 22 32 13 4 -4 9 -28 10 -54z m-1378 32 c-3
-5 -10 -7 -15 -3 -5 3 -7 10 -3 15 3 5 10 7 15 3 5 -3 7 -10 3 -15z m2194 5
c5 -8 19 -21 32 -27 15 -8 27 -25 31 -46 11 -54 4 -61 -63 -61 -53 0 -59 2
-53 18 4 9 9 43 12 75 6 58 22 75 41 41z m-2095 -1 c-7 -2 -19 -2 -25 0 -7 3
-2 5 12 5 14 0 19 -2 13 -5z m304 1 c-3 -3 -12 -4 -19 -1 -8 3 -5 6 6 6 11 1
17 -2 13 -5z m3853 -103 c0 -8 -21 8 -48 35 -26 27 -46 55 -44 62 5 15 92 -76
92 -97z m-565 89 c14 -5 23 -14 20 -20 -3 -5 -1 -10 4 -10 6 0 11 5 11 10 0 6
5 10 11 10 11 0 8 -83 -6 -147 -7 -33 -33 -52 -46 -32 -4 6 -18 12 -33 12 -25
0 -26 1 -26 68 0 37 5 71 10 74 6 3 10 15 10 26 0 22 8 23 45 9z m-4131 -40
c9 0 16 -4 16 -10 0 -5 -14 -7 -32 -3 -41 7 -42 8 -34 30 7 17 8 17 20 1 7
-10 21 -18 30 -18z m816 16 c0 -11 -19 -15 -25 -6 -3 5 1 10 9 10 9 0 16 -2
16 -4z m240 -46 c0 -5 -4 -10 -10 -10 -5 0 -10 5 -10 10 0 6 5 10 10 10 6 0
10 -4 10 -10z m140 -10 c0 -5 -5 -10 -11 -10 -5 0 -7 5 -4 10 3 6 8 10 11 10
2 0 4 -4 4 -10z m1893 -10 c15 -17 15 -21 3 -26 -8 -3 -21 -2 -28 2 -7 5 -21
7 -31 6 -17 -3 -17 -3 0 17 22 26 34 26 56 1z m-2283 0 c0 -5 -2 -10 -4 -10
-3 0 -8 5 -11 10 -3 6 -1 10 4 10 6 0 11 -4 11 -10z m4120 -80 c0 -40 4 -70
10 -70 6 0 10 -38 10 -94 0 -53 4 -98 10 -101 6 -3 10 -21 10 -39 0 -35 -34
-81 -52 -70 -7 5 -7 9 1 13 10 7 -6 81 -22 97 -4 4 -7 19 -7 34 0 14 -4 30 -8
35 -16 18 -35 93 -27 105 5 7 9 29 11 48 4 47 36 111 57 112 4 0 7 -31 7 -70z
m-5060 40 c0 -5 -4 -10 -10 -10 -5 0 -10 5 -10 10 0 6 5 10 10 10 6 0 10 -4
10 -10z m1900 -80 c0 -5 -9 -10 -21 -10 -11 0 -17 5 -14 10 3 6 13 10 21 10 8
0 14 -4 14 -10z m-710 -20 c0 -5 -4 -10 -10 -10 -5 0 -10 5 -10 10 0 6 5 10
10 10 6 0 10 -4 10 -10z m-1535 -40 c4 -6 13 -5 25 2 34 22 88 -20 74 -57 -11
-28 -57 -17 -92 20 -17 20 -32 38 -32 40 0 9 19 5 25 -5z m775 -135 c0 -8 -4
-15 -10 -15 -5 0 -10 7 -10 15 0 8 5 15 10 15 6 0 10 -7 10 -15z m570 -50 c0
-2 -7 -5 -15 -9 -9 -3 -15 0 -15 9 0 9 6 12 15 9 8 -4 15 -7 15 -9z"/>
<path d="M6790 4470 c0 -5 7 -10 15 -10 8 0 15 5 15 10 0 6 -7 10 -15 10 -8 0
-15 -4 -15 -10z"/>
<path d="M6650 4020 c0 -5 5 -10 10 -10 6 0 10 5 10 10 0 6 -4 10 -10 10 -5 0
-10 -4 -10 -10z"/>
<path d="M7090 3999 c0 -5 5 -7 10 -4 6 3 10 8 10 11 0 2 -4 4 -10 4 -5 0 -10
-5 -10 -11z"/>
<path d="M6940 3840 c0 -16 5 -30 10 -30 6 0 10 -14 10 -31 0 -17 4 -28 10
-24 14 8 13 58 -2 90 -15 34 -28 32 -28 -5z"/>
<path d="M6563 3644 c-15 -16 -17 -64 -3 -64 11 0 23 41 18 63 -2 13 -5 13
-15 1z"/>
<path d="M6455 3510 c-3 -5 -2 -10 4 -10 5 0 13 5 16 10 3 6 2 10 -4 10 -5 0
-13 -4 -16 -10z"/>
<path d="M6550 2910 c0 -16 5 -30 10 -30 6 0 10 14 10 30 0 17 -4 30 -10 30
-5 0 -10 -13 -10 -30z"/>
<path d="M7060 3355 c0 -8 2 -15 4 -15 2 0 6 7 10 15 3 8 1 15 -4 15 -6 0 -10
-7 -10 -15z"/>
<path d="M7145 3270 c-3 -5 -1 -10 4 -10 6 0 11 5 11 10 0 6 -2 10 -4 10 -3 0
-8 -4 -11 -10z"/>
<path d="M5081 2604 c0 -11 3 -14 6 -6 3 7 2 16 -1 19 -3 4 -6 -2 -5 -13z"/>
<path d="M6636 2513 c-9 -10 -7 -43 3 -43 11 0 21 39 11 45 -4 2 -10 2 -14 -2z"/>
<path d="M6200 2510 c0 -11 5 -20 11 -20 6 0 8 -9 4 -20 -5 -14 -2 -20 9 -20
9 0 16 8 16 19 0 11 5 23 10 26 22 14 10 35 -20 35 -23 0 -30 -4 -30 -20z"/>
<path d="M6206 2431 c-4 -7 -5 -15 -2 -18 9 -9 19 4 14 18 -4 11 -6 11 -12 0z"/>
<path d="M7640 6070 c0 -6 7 -10 15 -10 8 0 15 2 15 4 0 2 -7 6 -15 10 -8 3
-15 1 -15 -4z"/>
<path d="M7475 6050 c-3 -5 -1 -10 4 -10 6 0 11 5 11 10 0 6 -2 10 -4 10 -3 0
-8 -4 -11 -10z"/>
<path d="M7571 6035 c-25 -13 -47 -28 -50 -33 -3 -5 -13 -12 -21 -15 -12 -4
-12 -6 2 -6 9 -1 20 4 23 9 3 6 13 10 21 10 8 0 24 9 36 20 12 11 28 20 35 20
7 0 13 5 13 10 0 14 -10 12 -59 -15z"/>
<path d="M6825 6030 c-11 -5 -34 -9 -52 -9 -51 -1 -50 -21 1 -21 24 0 51 -3
60 -6 20 -8 21 -43 1 -50 -19 -8 -20 -54 -1 -54 12 0 26 -20 26 -36 0 -14 -30
0 -35 16 -3 11 -14 20 -23 21 -31 2 -87 -3 -92 -8 -2 -2 10 -17 28 -33 29 -25
32 -31 22 -51 -9 -17 -9 -23 0 -29 24 -15 2 -40 -35 -40 -21 0 -35 -5 -35 -12
1 -21 26 -48 44 -48 19 0 22 -30 4 -48 -9 -9 -9 -12 0 -12 7 0 12 5 12 10 0
14 47 12 54 -2 3 -7 3 -3 0 9 -3 13 1 32 8 42 14 20 14 20 46 1 18 -11 39 -20
47 -20 8 0 15 -6 15 -12 0 -8 4 -7 10 3 10 17 -7 78 -24 91 -6 4 1 16 15 28
16 14 20 23 12 26 -7 3 -13 14 -13 25 0 10 -4 19 -10 19 -5 0 -10 14 -10 30 0
17 5 30 11 30 5 0 9 8 7 18 -1 10 9 30 23 46 26 27 27 28 57 12 35 -18 76 -57
92 -86 14 -25 30 -26 30 -1 0 27 -24 69 -60 108 -26 27 -39 33 -74 33 -24 0
-46 3 -50 7 -10 11 -89 13 -111 3z m2 -252 c36 -35 41 -53 17 -62 -33 -13 -45
-7 -38 20 5 19 1 29 -15 40 -11 8 -21 19 -21 25 0 18 25 8 57 -23z"/>
<path d="M7455 6017 c-4 -10 -5 -21 -1 -24 10 -10 18 4 13 24 -4 17 -4 17 -12
0z"/>
<path d="M7419 5963 c-8 -16 -22 -37 -31 -47 -10 -11 -18 -24 -18 -28 0 -5
-13 -23 -30 -41 -16 -18 -30 -40 -30 -50 0 -10 -5 -23 -10 -30 -53 -63 -61
-77 -40 -77 6 0 10 5 10 10 0 6 9 10 20 10 15 0 20 7 20 25 0 25 6 36 41 73 9
9 22 32 30 50 8 17 17 32 21 32 5 0 8 7 8 15 0 8 5 15 10 15 6 0 10 6 10 14 0
8 9 18 20 21 24 8 26 21 4 29 -9 3 -17 6 -18 6 -1 0 -9 -12 -17 -27z"/>
<path d="M6658 5963 c7 -3 16 -2 19 1 4 3 -2 6 -13 5 -11 0 -14 -3 -6 -6z"/>
<path d="M7696 5955 c4 -8 14 -15 24 -15 11 0 22 -4 25 -10 3 -5 15 -10 26
-10 11 0 22 -7 25 -15 6 -15 44 -22 44 -7 -1 10 -69 52 -85 52 -8 0 -17 5 -20
10 -10 17 -45 12 -39 -5z"/>
<path d="M7740 5873 c0 -13 5 -23 10 -23 13 0 13 11 0 30 -8 12 -10 11 -10 -7z"/>
<path d="M7855 5880 c3 -5 10 -10 16 -10 5 0 9 5 9 10 0 6 -7 10 -16 10 -8 0
-12 -4 -9 -10z"/>
<path d="M6335 5800 c3 -5 10 -10 16 -10 5 0 9 5 9 10 0 6 -7 10 -16 10 -8 0
-12 -4 -9 -10z"/>
<path d="M7413 5785 c-30 -31 -29 -35 7 -35 30 0 41 15 18 23 -10 3 -10 7 1
20 21 26 -1 19 -26 -8z"/>
<path d="M6680 5775 c0 -9 6 -12 15 -9 8 4 15 10 15 15 0 5 -7 9 -15 9 -8 0
-15 -7 -15 -15z"/>
<path d="M6292 5720 c0 -19 2 -27 5 -17 2 9 2 25 0 35 -3 9 -5 1 -5 -18z"/>
<path d="M7357 5736 c-21 -16 -22 -26 -3 -26 8 0 17 7 20 16 9 23 4 25 -17 10z"/>
<path d="M6590 5601 c0 -17 3 -31 8 -31 12 0 32 -52 32 -82 0 -21 6 -31 24
-38 23 -9 56 -59 56 -87 0 -17 29 -48 37 -39 3 3 0 33 -6 67 -7 33 -10 63 -8
66 12 12 69 -32 89 -69 46 -83 42 -79 60 -59 21 25 31 91 14 91 -8 0 -16 14
-18 30 -5 32 6 40 20 15 17 -31 42 -6 40 39 -2 54 -16 75 -55 82 -33 6 -114
-18 -144 -43 -20 -17 -58 -18 -41 -1 32 32 0 71 -70 83 -37 7 -38 7 -38 -24z
m270 -121 c0 -11 -4 -20 -10 -20 -5 0 -10 9 -10 20 0 11 5 20 10 20 6 0 10 -9
10 -20z"/>
<path d="M7185 5570 c4 -6 11 -8 16 -5 14 9 11 15 -7 15 -8 0 -12 -5 -9 -10z"/>
<path d="M6020 5525 c0 -8 5 -15 10 -15 6 0 10 7 10 15 0 8 -4 15 -10 15 -5 0
-10 -7 -10 -15z"/>
<path d="M6530 5485 c0 -19 46 -49 60 -40 8 5 4 15 -11 31 -25 27 -49 31 -49
9z"/>
<path d="M7106 5491 c-4 -7 -5 -15 -2 -18 9 -9 19 4 14 18 -4 11 -6 11 -12 0z"/>
<path d="M7860 5445 c0 -8 5 -15 10 -15 6 0 10 7 10 15 0 8 -4 15 -10 15 -5 0
-10 -7 -10 -15z"/>
<path d="M7065 5440 c-3 -5 -1 -10 4 -10 6 0 11 5 11 10 0 6 -2 10 -4 10 -3 0
-8 -4 -11 -10z"/>
<path d="M7699 5410 c-7 -17 -4 -139 4 -146 8 -9 12 49 7 106 -3 30 -8 48 -11
40z"/>
<path d="M7780 5386 c0 -15 18 -31 26 -23 7 7 -7 37 -17 37 -5 0 -9 -6 -9 -14z"/>
<path d="M7231 5374 c0 -11 3 -14 6 -6 3 7 2 16 -1 19 -3 4 -6 -2 -5 -13z"/>
<path d="M7650 5366 c0 -17 14 -29 23 -20 8 8 -3 34 -14 34 -5 0 -9 -6 -9 -14z"/>
<path d="M7390 5330 c0 -5 5 -10 10 -10 6 0 10 5 10 10 0 6 -4 10 -10 10 -5 0
-10 -4 -10 -10z"/>
<path d="M6271 5294 c0 -11 3 -14 6 -6 3 7 2 16 -1 19 -3 4 -6 -2 -5 -13z"/>
<path d="M6100 5264 c0 -8 5 -12 10 -9 6 4 8 11 5 16 -9 14 -15 11 -15 -7z"/>
<path d="M7621 5254 c0 -11 3 -14 6 -6 3 7 2 16 -1 19 -3 4 -6 -2 -5 -13z"/>
<path d="M7636 5155 c-3 -8 -1 -15 4 -15 6 0 10 7 10 15 0 8 -2 15 -4 15 -2 0
-6 -7 -10 -15z"/>
<path d="M6160 5135 c0 -8 -4 -15 -10 -15 -5 0 -10 -7 -10 -15 0 -8 -4 -15
-10 -15 -5 0 -10 -8 -10 -17 0 -10 -9 -33 -21 -52 -11 -18 -18 -41 -16 -50 2
-11 9 -4 22 22 10 20 22 37 27 37 4 0 8 6 8 13 0 18 24 67 33 67 4 0 7 9 7 20
0 11 -4 20 -10 20 -5 0 -10 -7 -10 -15z"/>
<path d="M7587 5116 c-10 -8 -14 -17 -9 -20 5 -3 20 3 32 14 26 23 6 28 -23 6z"/>
<path d="M6284 5099 c-3 -6 -1 -16 5 -22 8 -8 11 -5 11 11 0 24 -5 28 -16 11z"/>
<path d="M7714 5075 c8 -8 17 -15 20 -15 3 0 3 7 0 15 -4 8 -13 15 -21 15 -12
0 -12 -2 1 -15z"/>
<path d="M7030 5036 c0 -8 -3 -23 -7 -33 -6 -16 -5 -16 11 -4 9 8 22 23 27 33
8 15 6 18 -11 18 -11 0 -20 -6 -20 -14z"/>
<path d="M7485 5017 c-33 -34 -49 -57 -41 -57 7 0 86 77 86 84 0 13 -17 3 -45
-27z"/>
<path d="M7740 5030 c0 -11 5 -20 10 -20 6 0 10 -9 10 -20 0 -11 5 -20 10 -20
6 0 10 9 10 20 0 11 -4 20 -10 20 -5 0 -10 9 -10 20 0 11 -4 20 -10 20 -5 0
-10 -9 -10 -20z"/>
<path d="M7393 4925 c-13 -13 -23 -29 -23 -34 0 -5 -8 -12 -17 -15 -17 -6 -69
-87 -55 -86 4 1 27 27 52 58 25 31 53 63 63 70 17 13 23 33 10 31 -5 0 -18
-11 -30 -24z"/>
<path d="M7772 4938 c-19 -19 -14 -48 8 -48 15 0 20 7 20 24 0 30 -12 40 -28
24z"/>
<path d="M6040 4900 c0 -5 4 -10 9 -10 6 0 13 5 16 10 3 6 -1 10 -9 10 -9 0
-16 -4 -16 -10z"/>
<path d="M6200 4890 c0 -11 -4 -20 -10 -20 -5 0 -10 -9 -10 -20 0 -11 5 -20
10 -20 6 0 10 9 10 20 0 11 5 20 10 20 6 0 10 9 10 20 0 11 -4 20 -10 20 -5 0
-10 -9 -10 -20z"/>
<path d="M7510 4844 c0 -8 5 -12 10 -9 6 4 8 11 5 16 -9 14 -15 11 -15 -7z"/>
<path d="M6166 4811 c-4 -7 -5 -15 -2 -18 9 -9 19 4 14 18 -4 11 -6 11 -12 0z"/>
<path d="M6140 4765 c0 -8 5 -15 10 -15 6 0 10 7 10 15 0 8 -4 15 -10 15 -5 0
-10 -7 -10 -15z"/>
<path d="M4255 4756 c-36 -13 -66 -41 -90 -83 -17 -30 -21 -31 -71 -28 -29 2
-70 -1 -91 -7 -57 -14 -123 -28 -163 -34 -19 -3 -44 -9 -55 -14 -11 -5 -49
-11 -85 -14 -84 -6 -131 -16 -124 -27 3 -5 18 -9 35 -9 16 0 29 -4 29 -10 0
-5 -4 -10 -10 -10 -5 0 -10 -8 -10 -19 0 -23 -46 -35 -54 -15 -8 20 -26 17
-26 -4 0 -9 -13 -23 -30 -30 -29 -13 -41 -32 -20 -32 6 0 10 -9 10 -21 0 -19
4 -20 58 -15 31 4 111 9 177 11 65 3 124 10 129 15 6 6 40 10 76 10 54 0 70 4
85 20 19 21 45 27 45 10 0 -15 23 -12 61 7 18 9 28 18 21 21 -21 7 -2 22 27
22 35 0 91 19 91 31 0 5 6 9 14 9 20 0 28 -29 13 -45 -6 -7 -18 -21 -25 -32
-10 -14 -27 -19 -72 -20 -51 -2 -64 -6 -91 -33 -18 -16 -43 -30 -55 -30 -13 0
-24 -4 -24 -10 0 -6 -28 -10 -64 -10 -65 0 -94 -13 -56 -25 24 -7 26 -30 5
-39 -9 -3 -35 -3 -59 0 -24 4 -52 2 -62 -4 -17 -9 -16 -11 11 -18 17 -4 35
-11 41 -16 8 -5 18 -3 27 7 24 23 37 18 37 -15 0 -16 5 -30 10 -30 6 0 10 6
10 13 0 17 51 47 82 48 15 0 18 3 8 6 -8 3 -19 12 -23 19 -4 8 -17 14 -28 14
-11 0 -17 5 -14 10 3 6 26 10 51 10 24 0 44 5 44 10 0 15 117 13 123 -2 4 -10
8 -9 16 2 6 9 6 19 0 26 -13 16 19 40 64 47 27 4 37 2 37 -8 0 -7 -7 -16 -16
-19 -11 -4 -14 -13 -10 -31 5 -20 3 -25 -14 -25 -25 0 -25 -5 0 -32 10 -12 17
-25 14 -30 -6 -10 -80 -6 -91 5 -10 11 -83 8 -83 -3 0 -5 5 -10 10 -10 6 0 10
-15 10 -33 0 -18 6 -39 13 -46 10 -11 6 -13 -20 -8 -28 6 -33 4 -33 -13 0 -13
7 -20 20 -20 13 0 20 -7 20 -19 0 -11 6 -21 13 -24 20 -6 -11 -37 -38 -37 -52
0 -68 -19 -39 -47 13 -13 17 -14 24 -3 6 9 10 7 15 -9 6 -19 21 -26 52 -22 7
1 23 -7 35 -19 24 -22 34 -25 43 -10 3 6 15 10 26 10 18 0 20 5 17 45 -5 48
-30 76 -81 89 -16 4 -26 12 -24 19 2 7 11 11 18 9 8 -2 33 -4 56 -4 36 0 43
-3 53 -27 7 -17 25 -33 46 -41 18 -8 34 -17 34 -22 0 -4 5 -8 10 -8 21 0 9 19
-20 32 -33 14 -38 32 -16 54 17 16 29 18 54 5 44 -22 94 -33 105 -22 8 8 5 11
-11 11 -12 0 -22 5 -22 10 0 6 -9 10 -19 10 -11 0 -21 4 -23 8 -5 12 -65 52
-77 52 -17 0 -56 38 -48 47 4 3 18 1 32 -5 35 -16 96 -14 119 3 24 18 69 19
95 4 15 -10 22 -8 39 9 28 28 68 37 95 23 69 -38 88 -50 102 -61 22 -18 74
-47 118 -66 30 -13 37 -21 37 -45 0 -25 4 -29 29 -29 17 0 33 -4 36 -10 10
-17 35 -11 35 8 0 21 -43 62 -65 62 -8 0 -15 4 -15 9 0 5 -13 14 -30 21 -16 7
-30 16 -30 21 0 5 -9 9 -20 9 -11 0 -20 4 -20 9 0 5 -8 12 -18 16 -11 3 -43
23 -73 45 -30 22 -65 48 -79 58 -51 36 -220 200 -220 213 0 5 -4 9 -10 9 -5 0
-10 -9 -10 -20 0 -20 -34 -30 -42 -12 -6 14 -78 52 -99 52 -10 0 -19 3 -19 8
0 4 -25 18 -55 31 -53 23 -69 39 -42 43 47 6 84 1 98 -13 9 -10 39 -30 65 -45
27 -15 52 -33 56 -38 4 -6 10 -7 14 -4 3 4 -1 14 -10 23 -9 9 -16 21 -16 26 0
5 -5 9 -11 9 -7 0 -22 12 -35 28 -28 32 -32 87 -8 96 23 9 24 8 24 -18 0 -28
24 -41 40 -22 8 11 3 20 -20 40 -18 14 -42 26 -54 26 -12 0 -26 4 -31 8 -6 5
-23 4 -40 -2z m19 -60 c-19 -31 -54 -35 -54 -7 0 24 63 67 68 46 2 -7 -4 -25
-14 -39z m-434 -125 c0 -5 -7 -14 -15 -21 -8 -7 -15 -10 -15 -7 0 3 -3 12 -6
21 -4 12 0 16 15 16 12 0 21 -4 21 -9z m-190 -121 c0 -5 -11 -10 -25 -10 -14
0 -25 5 -25 10 0 6 11 10 25 10 14 0 25 -4 25 -10z m938 -110 c34 -21 42 -40
17 -40 -28 0 -65 24 -65 42 0 23 7 23 48 -2z m-68 -30 c0 -5 -9 -10 -20 -10
-11 0 -20 5 -20 10 0 6 9 10 20 10 11 0 20 -4 20 -10z m-193 -6 c-3 -3 -12 -4
-19 -1 -8 3 -5 6 6 6 11 1 17 -2 13 -5z m90 -10 c28 -8 20 -24 -12 -24 -25 0
-39 12 -28 24 8 7 12 7 40 0z"/>
<path d="M5992 4718 c2 -18 10 -23 33 -25 17 -1 22 1 13 3 -10 3 -18 14 -18
25 0 11 -7 19 -16 19 -10 0 -14 -7 -12 -22z"/>
<path d="M5790 4635 c0 -8 5 -15 10 -15 6 0 10 7 10 15 0 8 -4 15 -10 15 -5 0
-10 -7 -10 -15z"/>
<path d="M6370 4625 c-14 -16 -10 -18 14 -9 9 3 16 10 16 15 0 14 -16 11 -30
-6z"/>
<path d="M5941 4564 c0 -11 3 -14 6 -6 3 7 2 16 -1 19 -3 4 -6 -2 -5 -13z"/>
<path d="M6383 4504 c-7 -7 -13 -20 -13 -29 0 -15 1 -15 16 -1 8 9 14 22 12
30 -2 12 -5 12 -15 0z"/>
<path d="M5770 4490 c0 -5 5 -10 10 -10 6 0 10 5 10 10 0 6 -4 10 -10 10 -5 0
-10 -4 -10 -10z"/>
<path d="M5750 4450 c0 -5 5 -10 10 -10 6 0 10 5 10 10 0 6 -4 10 -10 10 -5 0
-10 -4 -10 -10z"/>
<path d="M6352 4440 c0 -14 2 -19 5 -12 2 6 2 18 0 25 -3 6 -5 1 -5 -13z"/>
<path d="M5758 4414 c-5 -4 -8 -17 -8 -30 0 -12 -4 -24 -9 -26 -8 -3 -15 -51
-12 -85 2 -25 21 -13 21 13 0 14 10 34 23 45 15 13 18 21 10 26 -6 5 -13 21
-15 36 -1 16 -6 25 -10 21z"/>
<path d="M6332 4400 c0 -14 2 -19 5 -12 2 6 2 18 0 25 -3 6 -5 1 -5 -13z"/>
<path d="M3260 4390 c-12 -8 -11 -10 8 -10 12 0 22 5 22 10 0 13 -11 13 -30 0z"/>
<path d="M5551 4334 c0 -11 3 -14 6 -6 3 7 2 16 -1 19 -3 4 -6 -2 -5 -13z"/>
<path d="M4070 4236 c0 -9 5 -16 10 -16 6 0 10 4 10 9 0 6 -4 13 -10 16 -5 3
-10 -1 -10 -9z"/>
<path d="M5512 4230 c0 -14 2 -19 5 -12 2 6 2 18 0 25 -3 6 -5 1 -5 -13z"/>
<path d="M3740 4232 c0 -16 31 -22 70 -13 22 6 27 9 14 10 -12 1 -36 4 -53 7
-19 4 -31 2 -31 -4z"/>
<path d="M5699 4214 c-12 -23 -14 -82 -3 -93 11 -12 33 39 34 77 0 48 -10 54
-31 16z"/>
<path d="M4660 4215 c-7 -8 -10 -21 -7 -29 6 -15 50 -26 78 -19 25 7 24 23 -1
23 -11 0 -20 3 -20 8 0 4 -9 13 -19 19 -15 10 -22 9 -31 -2z"/>
<path d="M6060 4179 c0 -5 5 -7 10 -4 6 3 10 8 10 11 0 2 -4 4 -10 4 -5 0 -10
-5 -10 -11z"/>
<path d="M7484 4176 c-3 -8 0 -25 7 -38 7 -13 16 -39 19 -58 4 -19 11 -43 15
-52 5 -14 2 -18 -14 -18 -12 0 -21 -4 -21 -10 0 -5 -6 -10 -12 -10 -7 0 -24
-9 -37 -19 l-24 -19 22 -7 c17 -5 27 0 42 19 29 36 55 33 75 -9 17 -37 21 -40
42 -27 19 13 33 116 21 155 -25 77 -31 87 -55 87 -12 0 -26 5 -29 10 -9 15
-45 12 -51 -4z"/>
<path d="M3848 4143 c-2 -18 -15 -35 -38 -50 -19 -12 -40 -27 -47 -33 -7 -5
-17 -10 -23 -10 -12 0 -40 -24 -40 -34 0 -3 11 -6 25 -6 14 0 25 -4 25 -10 0
-5 7 -10 16 -10 9 0 18 -9 21 -20 5 -18 9 -16 35 17 16 21 34 41 40 44 5 3 8
31 7 61 -1 30 1 60 5 66 4 7 1 12 -8 12 -9 0 -16 -11 -18 -27z"/>
<path d="M3915 4140 c3 -5 13 -10 21 -10 8 0 14 5 14 10 0 6 -9 10 -21 10 -11
0 -17 -4 -14 -10z"/>
<path d="M3966 4135 c-8 -8 -32 -19 -53 -23 l-38 -8 42 -7 c33 -6 53 -2 88 14
25 12 45 25 45 30 0 15 -68 10 -84 -6z"/>
<path d="M4790 4128 c0 -9 7 -19 16 -22 25 -10 27 -1 4 19 -17 15 -20 16 -20
3z"/>
<path d="M4852 4112 c-7 -2 -10 -8 -6 -13 7 -12 61 -12 68 0 6 9 -43 20 -62
13z"/>
<path d="M3640 4102 c0 -4 5 -13 12 -20 14 -14 78 -16 78 -2 0 6 -11 10 -25
10 -14 0 -25 5 -25 10 0 6 -9 10 -20 10 -11 0 -20 -4 -20 -8z"/>
<path d="M5795 4100 c3 -5 8 -10 11 -10 2 0 4 5 4 10 0 6 -5 10 -11 10 -5 0
-7 -4 -4 -10z"/>
<path d="M4010 4080 c0 -5 5 -10 11 -10 5 0 7 5 4 10 -3 6 -8 10 -11 10 -2 0
-4 -4 -4 -10z"/>
<path d="M4400 4060 c0 -5 7 -10 16 -10 8 0 12 5 9 10 -3 6 -10 10 -16 10 -5
0 -9 -4 -9 -10z"/>
<path d="M3996 4051 c-4 -7 -5 -15 -2 -18 9 -9 19 4 14 18 -4 11 -6 11 -12 0z"/>
<path d="M5992 4043 c-17 -30 -15 -37 4 -19 8 9 14 22 11 29 -2 7 -8 4 -15
-10z"/>
<path d="M4707 4044 c-20 -21 -5 -34 39 -34 27 0 43 4 39 10 -3 6 -16 10 -29
10 -12 0 -27 5 -32 10 -6 6 -13 7 -17 4z"/>
<path d="M4010 3980 c0 -5 5 -10 10 -10 6 0 10 5 10 10 0 6 -4 10 -10 10 -5 0
-10 -4 -10 -10z"/>
<path d="M4052 3981 c2 -7 7 -12 11 -12 12 1 9 15 -3 20 -7 2 -11 -2 -8 -8z"/>
<path d="M3683 3955 c-3 -9 -3 -19 1 -22 7 -8 56 17 56 29 0 15 -50 8 -57 -7z"/>
<path d="M3925 3960 c-3 -5 1 -10 9 -10 9 0 16 -4 16 -10 0 -5 8 -10 18 -10
10 0 23 -5 30 -12 9 -9 12 -8 12 6 0 34 -68 63 -85 36z"/>
<path d="M3880 3920 c-11 -7 -9 -11 13 -19 37 -14 44 -14 50 3 9 23 -35 34
-63 16z"/>
<path d="M7550 3890 c0 -11 6 -20 14 -20 9 0 12 7 9 20 -3 11 -9 20 -14 20 -5
0 -9 -9 -9 -20z"/>
<path d="M4671 3874 c0 -11 3 -14 6 -6 3 7 2 16 -1 19 -3 4 -6 -2 -5 -13z"/>
<path d="M828 3819 c-9 -6 -10 -11 -2 -19 7 -7 20 -6 44 3 l33 14 -31 5 c-18
2 -37 1 -44 -3z"/>
<path d="M976 3821 c-26 -5 -28 -7 -13 -20 10 -7 17 -20 17 -27 0 -8 5 -14 10
-14 6 0 10 6 10 14 0 8 9 21 20 29 18 13 19 15 5 21 -9 3 -17 5 -18 5 -1 -1
-15 -4 -31 -8z"/>
<path d="M1070 3800 c-11 -7 -4 -10 25 -10 29 0 36 3 25 10 -8 5 -19 10 -25
10 -5 0 -17 -5 -25 -10z"/>
<path d="M5861 3794 c0 -11 3 -14 6 -6 3 7 2 16 -1 19 -3 4 -6 -2 -5 -13z"/>
<path d="M3363 3786 c-23 -11 -38 -35 -28 -44 3 -3 16 0 29 7 13 8 28 11 33 8
15 -9 36 10 30 27 -7 18 -31 19 -64 2z"/>
<path d="M1182 3768 c3 -7 22 -17 44 -21 21 -5 47 -13 56 -18 10 -5 26 -9 36
-9 10 0 35 -9 57 -20 22 -11 56 -20 77 -20 21 0 38 -4 38 -9 0 -8 27 -13 155
-27 28 -3 59 -9 70 -14 11 -5 31 -11 45 -13 14 -2 33 -8 44 -12 14 -6 17 -4
14 11 -2 13 -13 20 -33 22 -17 1 -39 7 -50 12 -11 5 -46 12 -77 15 -137 12
-168 17 -168 26 0 5 -15 9 -34 9 -19 0 -38 5 -41 10 -3 6 -19 10 -36 10 -16 0
-29 5 -29 10 0 6 -16 10 -35 10 -19 0 -35 5 -35 10 0 6 -18 10 -40 10 -22 0
-40 5 -40 10 0 6 -5 10 -11 10 -6 0 -9 -6 -7 -12z"/>
<path d="M3930 3720 c0 -26 -4 -40 -13 -40 -7 0 -18 -5 -25 -12 -15 -15 -123
-13 -133 3 -6 10 -13 10 -34 1 -14 -7 -35 -12 -45 -12 -11 0 -20 -4 -20 -10 0
-5 -9 -10 -20 -10 -11 0 -20 5 -20 10 0 6 -4 10 -10 10 -5 0 -10 -9 -10 -20 0
-11 -4 -20 -10 -20 -5 0 -10 -7 -10 -16 0 -9 -7 -22 -17 -29 -22 -16 -8 -35
28 -35 22 0 29 5 29 20 0 11 5 20 10 20 6 0 10 9 10 20 0 11 5 20 10 20 6 0
10 -12 10 -26 0 -44 58 -82 93 -60 22 14 37 -5 37 -49 l0 -30 22 34 22 35 11
-44 11 -44 22 52 c23 52 52 70 52 32 0 -11 5 -20 10 -20 6 0 10 -9 10 -20 0
-13 7 -20 20 -20 24 0 27 31 5 54 -19 19 -19 41 1 61 10 9 14 26 11 40 -2 14
0 25 6 25 6 0 1 9 -11 20 -23 22 -29 40 -12 40 14 0 13 33 -2 48 -24 24 -38
13 -38 -28z"/>
<path d="M5886 3735 c8 -13 13 -29 9 -35 -3 -5 0 -13 8 -15 13 -6 17 -59 16
-231 0 -34 5 -55 16 -64 13 -11 15 -5 17 51 0 35 0 71 -1 79 -2 8 -5 31 -7 50
-8 68 -15 115 -21 130 -4 8 -5 19 -4 24 3 13 -20 36 -35 36 -12 0 -12 -4 2
-25z"/>
<path d="M3540 3731 c0 -5 4 -11 10 -13 11 -3 -32 -58 -45 -58 -4 0 -21 -13
-37 -30 -25 -27 -48 -39 -48 -25 0 3 15 21 33 39 72 74 80 101 17 54 -16 -12
-32 -19 -36 -16 -10 11 -94 -85 -94 -108 0 -22 38 -17 45 6 3 11 11 20 16 20
12 0 12 -2 -7 -39 -9 -18 -14 -42 -11 -53 3 -12 -1 -34 -9 -49 -21 -42 -18
-58 9 -51 33 8 49 29 43 54 -3 13 -3 17 0 11 3 -7 11 -13 17 -13 13 0 37 45
37 67 0 7 3 13 8 13 4 0 18 18 32 40 14 22 31 40 38 40 7 0 15 14 19 31 6 30
8 31 44 26 28 -4 39 -1 39 8 0 7 10 16 23 20 21 7 20 8 -8 12 -16 3 -33 10
-36 15 -4 7 -16 2 -30 -11 -24 -22 -24 -22 -27 -2 -3 21 -42 31 -42 12z"/>
<path d="M5551 3724 c0 -11 3 -14 6 -6 3 7 2 16 -1 19 -3 4 -6 -2 -5 -13z"/>
<path d="M5990 3625 c-18 -33 -10 -39 13 -10 9 13 13 26 9 29 -5 3 -15 -6 -22
-19z"/>
<path d="M4181 3606 c-14 -16 -4 -46 15 -46 9 0 14 11 14 30 0 32 -11 38 -29
16z"/>
<path d="M7657 3606 c-3 -8 -2 -18 4 -22 16 -9 22 2 11 21 -8 15 -10 16 -15 1z"/>
<path d="M7720 3609 c0 -5 5 -7 10 -4 6 3 10 8 10 11 0 2 -4 4 -10 4 -5 0 -10
-5 -10 -11z"/>
<path d="M1860 3592 c0 -4 5 -13 12 -20 14 -14 68 -16 68 -2 0 6 -13 10 -30
10 -16 0 -30 5 -30 10 0 6 -4 10 -10 10 -5 0 -10 -4 -10 -8z"/>
<path d="M5763 3573 c-16 -32 -17 -73 -3 -73 6 0 10 13 10 29 0 17 5 33 10 36
12 7 14 35 3 35 -5 0 -14 -12 -20 -27z"/>
<path d="M2090 3530 c0 -5 9 -10 19 -10 11 0 23 -4 26 -10 3 -5 22 -10 41 -10
19 0 34 -4 34 -10 0 -5 14 -10 30 -10 17 0 30 5 30 10 0 6 -11 10 -25 10 -14
0 -33 4 -43 9 -23 12 -86 31 -100 31 -7 0 -12 -4 -12 -10z"/>
<path d="M4217 3520 c-3 -11 -1 -23 4 -26 5 -3 9 6 9 20 0 31 -6 34 -13 6z"/>
<path d="M4175 3508 c-9 -22 4 -43 17 -30 7 7 7 16 0 29 -10 17 -11 17 -17 1z"/>
<path d="M3600 3475 c0 -8 5 -15 10 -15 6 0 10 7 10 15 0 8 -4 15 -10 15 -5 0
-10 -7 -10 -15z"/>
<path d="M2330 3470 c0 -5 7 -10 15 -10 8 0 15 -4 15 -9 0 -5 12 -11 28 -14
15 -3 86 -26 157 -52 72 -26 139 -48 150 -49 28 -2 30 18 3 25 -13 4 -43 12
-68 19 -55 15 -178 59 -202 71 -10 5 -29 9 -42 9 -14 0 -28 5 -31 10 -3 6 -10
10 -16 10 -5 0 -9 -4 -9 -10z"/>
<path d="M5723 3453 c-7 -15 -13 -53 -13 -85 0 -52 -2 -58 -21 -58 -18 0 -19
-2 -6 -20 9 -14 12 -37 9 -70 -2 -28 0 -50 5 -50 17 0 33 24 33 51 0 15 5 31
10 34 6 3 10 13 10 21 0 8 -4 14 -10 14 -5 0 -10 -9 -10 -20 0 -11 -4 -20 -10
-20 -5 0 -10 13 -10 29 0 17 5 33 10 36 6 3 10 26 10 50 0 24 5 47 10 50 12 7
14 65 3 65 -5 0 -14 -12 -20 -27z"/>
<path d="M5835 3470 c-3 -5 -1 -10 4 -10 6 0 11 5 11 10 0 6 -2 10 -4 10 -3 0
-8 -4 -11 -10z"/>
<path d="M4190 3450 c0 -5 7 -10 15 -10 8 0 15 5 15 10 0 6 -7 10 -15 10 -8 0
-15 -4 -15 -10z"/>
<path d="M3111 3447 c2 -1 13 -9 24 -17 19 -14 19 -14 6 3 -7 9 -18 17 -24 17
-6 0 -8 -1 -6 -3z"/>
<path d="M4240 3409 c0 -22 4 -38 8 -35 8 5 4 76 -4 76 -2 0 -4 -18 -4 -41z"/>
<path d="M5356 3360 c4 -14 11 -27 16 -28 16 -7 69 -135 58 -142 -6 -4 -8 -14
-4 -24 10 -25 34 0 34 36 0 16 5 38 10 49 9 15 7 19 -6 19 -21 0 -43 28 -44
56 0 15 -8 24 -27 29 -15 3 -32 12 -36 18 -5 7 -5 1 -1 -13z"/>
<path d="M5962 3340 c0 -19 2 -27 5 -17 2 9 2 25 0 35 -3 9 -5 1 -5 -18z"/>
<path d="M5756 3331 c-4 -7 -5 -15 -2 -18 9 -9 19 4 14 18 -4 11 -6 11 -12 0z"/>
<path d="M4010 3320 c0 -5 5 -10 10 -10 6 0 10 5 10 10 0 6 -4 10 -10 10 -5 0
-10 -4 -10 -10z"/>
<path d="M4240 3326 c0 -2 7 -6 15 -10 8 -3 15 -1 15 4 0 6 -7 10 -15 10 -8 0
-15 -2 -15 -4z"/>
<path d="M5440 3300 c0 -5 5 -10 10 -10 6 0 10 5 10 10 0 6 -4 10 -10 10 -5 0
-10 -4 -10 -10z"/>
<path d="M4262 3240 c0 -19 2 -27 5 -17 2 9 2 25 0 35 -3 9 -5 1 -5 -18z"/>
<path d="M5670 3134 c0 -8 5 -12 10 -9 6 3 10 10 10 16 0 5 -4 9 -10 9 -5 0
-10 -7 -10 -16z"/>
<path d="M5326 3131 c-4 -7 -5 -15 -2 -18 9 -9 19 4 14 18 -4 11 -6 11 -12 0z"/>
<path d="M3910 2989 c0 -5 5 -7 10 -4 6 3 10 8 10 11 0 2 -4 4 -10 4 -5 0 -10
-5 -10 -11z"/>
<path d="M5455 2969 c-11 -16 -1 -19 13 -3 7 8 8 14 3 14 -5 0 -13 -5 -16 -11z"/>
<path d="M5551 2924 c0 -11 3 -14 6 -6 3 7 2 16 -1 19 -3 4 -6 -2 -5 -13z"/>
<path d="M5471 2884 c0 -11 3 -14 6 -6 3 7 2 16 -1 19 -3 4 -6 -2 -5 -13z"/>
<path d="M5490 2841 c0 -25 6 -27 13 -6 4 8 2 17 -3 20 -6 4 -10 -3 -10 -14z"/>
<path d="M7410 2851 c0 -6 4 -11 9 -11 5 0 11 -13 13 -30 4 -27 2 -30 -24 -30
-36 0 -58 -20 -58 -52 0 -13 -4 -28 -9 -33 -9 -10 -12 -28 -31 -170 -5 -38
-12 -89 -16 -112 -4 -30 -3 -43 5 -43 6 0 11 5 11 11 0 8 5 8 15 -1 12 -10 16
-10 20 1 4 14 28 98 40 149 4 14 11 36 17 50 6 14 14 34 18 45 18 48 34 75 46
75 18 0 64 -102 64 -140 0 -31 6 -36 28 -21 10 6 12 28 7 92 -3 46 -6 112 -6
146 1 34 -3 64 -7 66 -19 11 -142 18 -142 8z"/>
<path d="M3786 2823 c-11 -11 -6 -23 9 -23 8 0 15 4 15 9 0 13 -16 22 -24 14z"/>
<path d="M5551 2484 c0 -11 3 -14 6 -6 3 7 2 16 -1 19 -3 4 -6 -2 -5 -13z"/>
<path d="M4415 2460 c3 -5 10 -10 16 -10 5 0 9 5 9 10 0 6 -7 10 -16 10 -8 0
-12 -4 -9 -10z"/>
<path d="M6000 2439 c0 -5 5 -7 10 -4 6 3 10 8 10 11 0 2 -4 4 -10 4 -5 0 -10
-5 -10 -11z"/>
<path d="M7272 2315 c0 -16 2 -22 5 -12 2 9 2 23 0 30 -3 6 -5 -1 -5 -18z"/>
<path d="M1365 2261 c-8 -14 78 -97 133 -128 28 -17 32 -16 32 2 0 8 -4 15 -8
15 -5 0 -24 14 -42 30 -18 17 -37 30 -41 30 -4 0 -11 10 -15 23 -10 33 -45 50
-59 28z"/>
<path d="M7720 2222 c-25 -27 -54 -61 -65 -75 -24 -32 -41 -34 -48 -7 -6 25
-26 26 -33 3 -3 -10 -10 -26 -15 -35 -17 -33 -10 -64 16 -76 14 -7 32 -12 39
-12 13 0 56 44 56 57 0 13 54 118 65 125 18 13 25 9 25 -15 0 -14 9 -28 23
-36 18 -10 22 -19 19 -42 -2 -16 -7 -29 -11 -29 -4 0 -13 -21 -20 -47 -11 -35
-11 -48 -3 -51 7 -2 12 -12 12 -23 0 -14 7 -19 30 -19 23 0 30 4 30 20 0 13 7
20 20 20 16 0 20 7 20 30 0 17 -4 30 -10 30 -5 0 -10 20 -10 44 0 25 5 48 10
51 15 9 12 68 -6 103 -14 28 -20 32 -58 32 -37 0 -47 -5 -86 -48z"/>
<path d="M6530 2210 c0 -11 4 -20 9 -20 5 0 11 -19 14 -42 9 -71 19 -108 28
-108 5 0 9 -7 9 -15 0 -17 18 -52 38 -73 7 -7 10 -18 7 -23 -4 -5 -73 -9 -155
-9 -88 0 -151 -4 -155 -10 -3 -5 -24 -10 -46 -10 -31 0 -39 -4 -39 -17 1 -48
46 -66 156 -59 156 9 192 16 197 37 7 26 80 27 108 1 21 -20 83 -42 117 -42
11 0 24 -4 27 -10 3 -5 26 -10 51 -10 36 0 44 3 44 18 0 18 -37 42 -65 42 -17
0 -20 26 -5 35 26 16 -9 25 -96 25 -87 0 -97 2 -119 25 -14 13 -25 31 -25 40
0 8 -4 15 -10 15 -5 0 -10 9 -10 20 0 11 -4 20 -10 20 -5 0 -10 13 -10 29 0
17 -4 33 -10 36 -5 3 -10 21 -10 40 0 37 -18 85 -32 85 -4 0 -8 -9 -8 -20z"/>
<path d="M1430 2101 c0 -6 5 -13 10 -16 6 -3 10 -17 10 -29 0 -25 44 -76 65
-76 7 0 27 -3 44 -6 21 -4 31 -3 31 5 0 15 -45 61 -60 61 -5 0 -27 16 -47 35
-38 35 -53 43 -53 26z"/>
<path d="M1792 2074 c3 -3 52 -7 109 -10 57 -3 120 -9 139 -14 47 -13 290 -13
290 0 0 6 -48 10 -124 10 -73 0 -127 4 -131 10 -4 6 -64 10 -147 10 -78 0
-139 -2 -136 -6z"/>
<path d="M7430 2047 c0 -8 -9 -22 -20 -32 -11 -10 -20 -22 -20 -27 0 -15 32
-8 46 10 16 20 18 62 4 62 -5 0 -10 -6 -10 -13z"/>
<path d="M3975 2033 c-89 -7 -108 -21 -55 -43 17 -7 30 -16 30 -21 0 -5 11 -9
24 -9 14 0 28 -4 31 -10 3 -5 16 -10 29 -10 12 0 26 -4 31 -9 6 -5 35 -12 65
-15 30 -4 93 -11 140 -17 165 -19 220 -21 235 -9 11 9 18 10 29 1 15 -13 394
-12 403 2 2 4 12 7 22 7 9 0 30 13 45 29 l27 29 -33 6 c-18 3 -50 8 -70 12
-21 3 -38 10 -38 15 0 5 -12 9 -26 9 -14 0 -33 4 -43 9 -9 5 -59 12 -111 16
-103 7 -670 13 -735 8z m431 -30 c18 -24 17 -43 -1 -43 -17 0 -34 29 -28 48 6
16 13 15 29 -5z m194 -44 c0 -14 -5 -19 -17 -17 -26 5 -29 38 -4 38 15 0 21
-6 21 -21z"/>
<path d="M266 1960 c-16 -10 -33 -26 -38 -34 -7 -12 -2 -14 29 -9 21 3 40 10
41 15 5 12 40 10 47 -2 5 -8 11 -7 21 1 20 16 17 26 -8 32 -13 3 -32 8 -43 11
-11 3 -33 -3 -49 -14z"/>
<path d="M3500 1974 c0 -23 94 -74 136 -74 13 0 24 -4 24 -9 0 -12 76 -21 238
-27 88 -4 132 -2 132 5 0 16 -35 31 -74 31 -19 0 -38 5 -41 10 -3 6 -24 10
-45 10 -21 0 -42 5 -45 10 -3 6 -24 10 -46 10 -21 0 -39 5 -39 10 0 6 -18 10
-39 10 -22 0 -43 5 -46 10 -7 11 -155 14 -155 4z"/>
<path d="M1960 1942 c0 -16 10 -20 53 -25 28 -3 66 -12 82 -21 40 -21 141 -22
149 -1 3 8 14 15 25 15 11 0 26 -7 35 -15 8 -8 22 -15 30 -15 9 0 16 -4 16
-10 0 -5 20 -10 44 -10 25 0 48 -4 51 -10 8 -14 55 -13 55 1 0 8 5 7 15 -1 12
-10 19 -10 27 -2 9 9 8 12 -5 12 -9 0 -17 4 -17 9 0 5 17 3 38 -5 49 -17 62
-17 62 1 0 8 5 15 10 15 6 0 10 -7 10 -15 0 -19 24 -30 42 -19 7 5 78 10 157
12 80 2 152 7 162 13 10 5 45 9 79 9 52 0 65 4 82 23 13 15 21 18 24 10 7 -15
44 -17 44 -3 0 6 9 10 20 10 11 0 20 4 20 9 0 11 -103 19 -333 27 -161 5 -169
4 -186 -15 -23 -26 -31 -26 -31 -1 0 22 -24 26 -76 11 -17 -5 -37 -5 -45 0 -7
4 -19 3 -26 -2 -8 -7 -18 -7 -32 0 -28 16 -39 14 -46 -9 -5 -17 -14 -20 -53
-18 -33 1 -51 7 -60 20 -14 19 -52 25 -52 8 0 -5 -9 -10 -20 -10 -11 0 -20 4
-20 9 0 6 -71 10 -165 10 -155 1 -165 0 -165 -17z m740 -32 c0 -5 -9 -10 -20
-10 -11 0 -20 5 -20 10 0 6 9 10 20 10 11 0 20 -4 20 -10z m-120 -20 c0 -5 -4
-10 -10 -10 -5 0 -10 5 -10 10 0 6 5 10 10 10 6 0 10 -4 10 -10z"/>
<path d="M5260 1948 c0 -15 43 -68 56 -68 5 0 24 -13 43 -29 19 -16 66 -39
105 -51 39 -13 76 -26 82 -31 6 -5 18 0 28 13 17 19 20 20 30 6 10 -14 19 -14
56 -6 74 18 275 10 305 -12 6 -4 46 -8 90 -9 77 -1 80 -1 92 25 10 21 10 29
-2 41 -11 10 -13 26 -9 54 l7 39 -59 -6 c-61 -5 -211 7 -324 27 -100 18 -500
23 -500 7z"/>
<path d="M32 1943 c-36 -5 -44 -31 -14 -49 22 -14 129 -16 137 -4 3 6 15 10
26 10 10 0 19 5 19 10 0 6 -9 10 -20 10 -11 0 -20 -4 -20 -10 0 -5 -13 -10
-30 -10 -36 0 -37 6 -8 31 l21 19 -39 -2 c-21 0 -54 -3 -72 -5z"/>
<path d="M3290 1930 c0 -5 7 -10 16 -10 8 0 12 5 9 10 -3 6 -10 10 -16 10 -5
0 -9 -4 -9 -10z"/>
<path d="M1765 1884 c2 -33 38 -94 50 -83 2 3 -4 15 -15 27 -24 25 -26 36 -5
28 8 -3 14 0 12 7 -1 6 9 13 22 15 23 4 51 24 51 36 0 3 -26 6 -58 6 l-59 0 2
-36z"/>
<path d="M1865 1850 c-3 -5 3 -10 15 -10 12 0 18 5 15 10 -3 6 -10 10 -15 10
-5 0 -12 -4 -15 -10z"/>
<path d="M6670 1810 c0 -5 16 -11 35 -12 19 -1 43 -2 52 -2 9 -1 18 5 21 12 3
9 -12 12 -52 12 -31 0 -56 -4 -56 -10z"/>
<path d="M7000 1770 c0 -5 5 -10 10 -10 6 0 10 5 10 10 0 6 -4 10 -10 10 -5 0
-10 -4 -10 -10z"/>
<path d="M1488 1743 c-21 -5 -24 -19 -5 -26 15 -5 47 10 47 23 0 10 -12 11
-42 3z"/>
<path d="M1363 1714 c-24 -10 -33 -20 -32 -37 l0 -22 11 23 c6 12 20 22 32 22
12 0 30 7 40 15 20 15 20 15 0 14 -10 0 -34 -7 -51 -15z"/>
<path d="M2210 1680 c0 -13 11 -13 30 0 12 8 11 10 -7 10 -13 0 -23 -4 -23
-10z"/>
<path d="M2270 1670 c0 -5 5 -10 10 -10 6 0 10 5 10 10 0 6 -4 10 -10 10 -5 0
-10 -4 -10 -10z"/>
<path d="M2418 1663 c6 -2 18 -2 25 0 6 3 1 5 -13 5 -14 0 -19 -2 -12 -5z"/>
<path d="M2740 1640 c0 -5 5 -10 10 -10 6 0 10 -7 10 -15 0 -8 5 -15 10 -15 6
0 10 4 10 9 0 6 17 12 38 14 34 3 33 4 -10 5 -27 1 -48 7 -48 12 0 6 -4 10
-10 10 -5 0 -10 -4 -10 -10z"/>
<path d="M2020 1520 c0 -5 9 -10 20 -10 11 0 20 -4 20 -10 0 -5 7 -10 15 -10
24 0 17 14 -12 28 -33 15 -43 15 -43 2z"/>
<path d="M2225 1520 c-4 -6 7 -10 25 -10 18 0 29 4 25 10 -3 6 -15 10 -25 10
-10 0 -22 -4 -25 -10z"/>
<path d="M2310 1499 c0 -5 5 -7 10 -4 6 3 10 8 10 11 0 2 -4 4 -10 4 -5 0 -10
-5 -10 -11z"/>
<path d="M6571 1349 l-24 -9 24 -21 c23 -20 32 -21 151 -16 82 4 138 12 155
21 l28 14 -25 6 c-47 10 -285 13 -309 5z"/>
<path d="M2740 1340 c0 -5 9 -10 20 -10 11 0 20 5 20 10 0 6 -9 10 -20 10 -11
0 -20 -4 -20 -10z"/>
<path d="M6325 1320 c-3 -5 1 -10 10 -10 9 0 13 5 10 10 -3 6 -8 10 -10 10 -2
0 -7 -4 -10 -10z"/>
<path d="M6120 1312 c-112 -6 -120 -30 -8 -26 40 1 93 3 118 3 33 1 41 4 33
12 -12 12 -63 16 -143 11z"/>
<path d="M5058 1293 c6 -2 18 -2 25 0 6 3 1 5 -13 5 -14 0 -19 -2 -12 -5z"/>
<path d="M5558 1253 c7 -3 16 -2 19 1 4 3 -2 6 -13 5 -11 0 -14 -3 -6 -6z"/>
<path d="M5598 1233 c6 -2 18 -2 25 0 6 3 1 5 -13 5 -14 0 -19 -2 -12 -5z"/>
<path d="M2398 1213 c6 -2 18 -2 25 0 6 3 1 5 -13 5 -14 0 -19 -2 -12 -5z"/>
<path d="M5648 1213 c7 -3 16 -2 19 1 4 3 -2 6 -13 5 -11 0 -14 -3 -6 -6z"/>
<path d="M2308 1193 c7 -3 16 -2 19 1 4 3 -2 6 -13 5 -11 0 -14 -3 -6 -6z"/>
<path d="M5680 1196 c0 -2 7 -6 15 -10 8 -3 15 -1 15 4 0 6 -7 10 -15 10 -8 0
-15 -2 -15 -4z"/>
<path d="M7647 1194 c-6 -7 -175 -19 -430 -32 l-137 -7 37 -40 c21 -22 46 -53
56 -68 9 -15 24 -27 31 -27 8 0 16 -5 18 -12 3 -7 24 -11 56 -9 28 1 61 -4 72
-11 15 -10 22 -10 32 0 6 6 22 12 34 12 13 0 25 4 28 9 6 9 51 21 104 26 47 6
59 15 37 32 -22 15 -115 18 -115 3 0 -5 -13 -10 -30 -10 -20 0 -30 5 -30 15 0
15 16 20 85 29 91 12 122 18 155 34 25 12 62 16 133 15 96 -1 97 -1 97 23 0
24 0 24 -113 24 -63 0 -117 -3 -120 -6z"/>
<path d="M5730 1180 c0 -5 5 -10 10 -10 6 0 10 5 10 10 0 6 -4 10 -10 10 -5 0
-10 -4 -10 -10z"/>
<path d="M725 1170 c-3 -5 -17 -10 -31 -10 -13 0 -24 -4 -24 -9 0 -9 82 -51
100 -51 6 0 19 -4 30 -10 11 -5 29 -14 40 -20 11 -5 38 -10 60 -10 22 0 40 5
40 10 0 6 -9 10 -19 10 -11 0 -23 5 -26 10 -3 6 -15 10 -26 10 -11 0 -19 7
-19 16 0 22 -23 42 -56 49 -16 4 -36 9 -46 11 -9 3 -19 0 -23 -6z"/>
<path d="M5818 1173 c7 -3 16 -2 19 1 4 3 -2 6 -13 5 -11 0 -14 -3 -6 -6z"/>
<path d="M1000 1150 c0 -5 -9 -10 -20 -10 -12 0 -20 -7 -20 -18 0 -28 112 -76
193 -80 63 -4 67 -3 67 17 0 14 -6 21 -20 21 -11 0 -20 5 -20 10 0 6 -6 10
-14 10 -8 0 -16 5 -18 11 -2 7 -31 12 -68 13 -55 2 -65 5 -62 19 2 9 -2 17 -8
17 -5 0 -10 -4 -10 -10z"/>
<path d="M918 1133 c7 -3 16 -2 19 1 4 3 -2 6 -13 5 -11 0 -14 -3 -6 -6z"/>
<path d="M1347 1070 c6 -24 30 -33 53 -20 13 7 21 7 25 0 3 -5 18 -10 32 -10
14 0 43 -5 64 -12 22 -6 42 -8 45 -5 13 13 -26 37 -59 37 -20 0 -37 4 -39 9
-1 4 -31 10 -64 13 -56 5 -61 4 -57 -12z"/>
<path d="M2965 1070 c-3 -5 3 -10 15 -10 12 0 18 5 15 10 -3 6 -10 10 -15 10
-5 0 -12 -4 -15 -10z"/>
<path d="M7640 1070 c0 -5 7 -10 16 -10 8 0 12 5 9 10 -3 6 -10 10 -16 10 -5
0 -9 -4 -9 -10z"/>
<path d="M3440 1050 c0 -13 50 -13 70 0 11 7 4 10 -27 10 -24 0 -43 -4 -43
-10z"/>
<path d="M7760 858 c-19 -6 -61 -8 -92 -5 -44 4 -58 2 -58 -8 0 -14 71 -55 96
-55 11 0 14 -6 10 -16 -3 -9 -6 -18 -6 -20 0 -2 -11 -4 -24 -4 -14 0 -28 -4
-31 -10 -3 -5 -16 -10 -28 -10 -20 -1 -20 -2 -5 -11 12 -7 30 -7 55 0 21 6 68
11 105 11 36 0 73 3 82 6 22 8 20 34 -2 34 -10 0 -26 14 -35 30 l-18 30 35 0
c29 0 36 4 36 20 0 17 -6 20 -42 19 -24 0 -59 -5 -78 -11z"/>
<path d="M6548 843 c12 -2 32 -2 45 0 12 2 2 4 -23 4 -25 0 -35 -2 -22 -4z"/>
<path d="M4498 763 c7 -3 16 -2 19 1 4 3 -2 6 -13 5 -11 0 -14 -3 -6 -6z"/>
<path d="M4568 743 c7 -3 16 -2 19 1 4 3 -2 6 -13 5 -11 0 -14 -3 -6 -6z"/>
<path d="M6920 734 c0 -17 22 -14 28 4 2 7 -3 12 -12 12 -9 0 -16 -7 -16 -16z"/>
<path d="M6868 723 c6 -2 18 -2 25 0 6 3 1 5 -13 5 -14 0 -19 -2 -12 -5z"/>
</g>
</svg>
