<?xml version="1.0" standalone="no"?>
<!DOCTYPE svg PUBLIC "-//W3C//DTD SVG 20010904//EN"
 "http://www.w3.org/TR/2001/REC-SVG-20010904/DTD/svg10.dtd">
<svg version="1.0" xmlns="http://www.w3.org/2000/svg"
 width="512.000000pt" height="512.000000pt" viewBox="0 0 512.000000 512.000000"
 preserveAspectRatio="xMidYMid meet">

<g transform="translate(0.000000,512.000000) scale(0.100000,-0.100000)"
fill="#000000" stroke="none">
<path d="M2397 4869 c-235 -706 -631 -1060 -1322 -1180 -93 -16 -180 -22 -388
-26 -147 -3 -267 -8 -267 -12 0 -4 23 -29 51 -56 69 -68 201 -232 265 -330
164 -253 236 -487 236 -770 1 -350 -115 -700 -376 -1130 -36 -60 -65 -109 -64
-111 2 -1 62 11 133 27 369 81 672 78 934 -11 99 -33 240 -106 332 -173 l84
-60 157 52 156 52 -54 163 -55 164 -87 22 c-474 118 -836 497 -939 982 -24
115 -24 371 0 486 54 253 170 467 351 647 192 190 414 307 684 357 37 7 135
13 217 13 83 0 180 -6 217 -13 527 -99 924 -485 1035 -1004 25 -116 24 -371
-1 -488 -25 -116 -69 -239 -122 -340 -46 -87 -140 -223 -178 -259 l-21 -20
-152 162 c-84 89 -167 177 -185 194 l-34 33 -49 -66 c-45 -60 -123 -134 -199
-189 l-28 -20 217 -393 c120 -215 221 -392 226 -392 13 0 202 192 267 272 149
184 287 430 351 627 107 328 105 668 -5 1001 -106 320 -343 683 -621 950 -195
188 -311 310 -368 387 -97 133 -191 289 -268 445 -39 81 -75 148 -78 148 -3 0
-27 -63 -52 -141z"/>
<path d="M2330 3915 c-8 -2 -49 -9 -90 -15 -230 -38 -477 -166 -651 -339 -383
-384 -468 -976 -209 -1459 111 -207 313 -399 535 -510 84 -42 231 -89 301 -97
33 -4 61 -9 63 -11 12 -11 121 -368 114 -374 -4 -4 -79 -31 -165 -60 -87 -28
-158 -54 -158 -57 0 -3 36 -43 79 -89 157 -162 309 -392 437 -657 35 -74 64
-140 64 -146 0 -6 3 -11 8 -11 4 0 24 63 46 139 88 317 214 565 379 747 52 56
55 63 43 85 -21 41 -105 193 -115 208 -7 11 -43 4 -200 -44 -104 -32 -196 -55
-203 -52 -7 2 -71 154 -143 336 l-130 331 -66 0 c-385 0 -725 256 -831 627
-32 112 -32 314 0 426 83 292 319 524 607 598 463 118 927 -144 1057 -598 18
-64 22 -103 22 -213 0 -140 -13 -211 -56 -312 -18 -43 -19 -49 -4 -69 22 -32
338 -369 345 -369 11 0 109 153 146 228 85 172 120 329 120 537 0 163 -11 239
-56 376 -135 419 -481 729 -921 825 -66 14 -331 28 -368 19z"/>
<path d="M4640 3884 c-151 -43 -372 -83 -516 -94 -239 -19 -484 16 -679 96
-12 5 -1 -14 31 -52 234 -273 401 -592 472 -899 132 -575 -66 -1184 -539
-1657 -102 -102 -110 -112 -65 -84 181 116 416 194 696 232 137 19 485 24 630
10 l84 -8 -57 64 c-304 335 -449 584 -513 878 -25 115 -25 359 0 483 59 303
219 613 500 972 53 68 64 86 49 84 -5 -1 -46 -12 -93 -25z"/>
<path d="M2130 3414 c-225 -43 -423 -191 -530 -396 -58 -110 -80 -206 -80
-343 0 -136 22 -233 80 -343 77 -149 185 -254 335 -327 121 -58 196 -75 335
-75 139 0 214 17 335 75 150 73 258 178 335 327 58 110 80 207 80 343 0 136
-22 233 -80 343 -93 180 -241 305 -440 372 -52 18 -93 23 -205 25 -77 2 -151
1 -165 -1z"/>
<path d="M2590 1900 c-25 -10 -78 -26 -117 -35 -40 -10 -73 -20 -73 -23 0 -5
230 -593 234 -599 2 -3 328 96 333 101 5 5 -312 569 -322 572 -5 2 -30 -6 -55
-16z"/>
</g>
</svg>
