<svg width="1180" height="1180" viewBox="0 0 1180 1180" fill="none" xmlns="http://www.w3.org/2000/svg">
<rect width="1180" height="1180" rx="191" fill="url(#paint0_linear_1914_109)"/>
<path d="M63.9866 841.954C63.9866 841.954 211.095 493.99 288.149 493.99C365.204 493.99 429.214 575.005 469.147 575.005C509.081 575.005 707.11 275.141 732.292 246.87C757.474 218.598 810.482 216.835 836.17 246.87C862.605 277.777 1118.88 810.944 1123.43 841.954C1129.01 880 1091.93 880 1091.93 880H88.5358C53.3013 880 49.3649 880 63.9866 841.954Z" fill="url(#paint1_linear_1914_109)"/>
<path d="M58.9207 839.812L58.8853 839.896L58.8527 839.981C55.2098 849.46 52.5582 856.974 51.3191 862.807C50.1303 868.403 49.8503 874.117 53.1624 878.541C56.4254 882.899 61.8983 884.257 67.1419 884.868C72.5567 885.5 79.6696 885.5 88.1815 885.5H88.5358H1091.93V880C1091.93 885.5 1091.93 885.5 1091.94 885.5H1091.94L1091.96 885.5L1092 885.5C1092.04 885.499 1092.08 885.499 1092.13 885.498C1092.23 885.496 1092.37 885.493 1092.54 885.487C1092.71 885.481 1092.93 885.472 1093.17 885.459C1093.4 885.447 1093.65 885.431 1093.92 885.411C1095.08 885.325 1096.69 885.156 1098.59 884.823C1102.35 884.162 1107.45 882.822 1112.44 880.054C1117.47 877.263 1122.48 872.963 1125.77 866.421C1129.07 859.87 1130.39 851.554 1128.87 841.156C1128.48 838.514 1126.97 834.033 1124.89 828.547C1122.72 822.834 1119.68 815.426 1115.93 806.594C1108.4 788.922 1097.89 765.38 1085.35 737.948C1060.25 683.077 1026.94 612.523 992.963 541.986C958.982 471.45 924.309 400.901 896.472 346.041C882.555 318.615 870.332 295.081 860.751 277.419C855.962 268.591 851.814 261.195 848.432 255.498C845.125 249.927 842.354 245.637 840.35 243.295C826.231 226.787 804.856 219.271 783.979 219.505C763.125 219.74 741.991 227.711 728.185 243.211C721.623 250.579 704.261 275.011 681.679 306.888C680.372 308.734 679.046 310.607 677.702 312.504C655.682 343.595 628.953 381.333 601.818 418.283C573.013 457.509 543.831 495.735 519.401 524.122C507.172 538.33 496.248 549.94 487.233 557.954C482.719 561.967 478.814 564.961 475.565 566.922C472.172 568.97 470.117 569.505 469.147 569.505C460.78 569.505 450.42 565.175 437.659 557.614C429.158 552.578 420.144 546.465 410.43 539.879C405.663 536.646 400.728 533.299 395.603 529.91C364.978 509.657 328.481 488.49 288.149 488.49C276.56 488.49 264.578 494.945 252.87 504.719C241.017 514.614 228.661 528.575 216.227 545.045C191.341 578.01 165.57 621.802 142.32 665.383C119.047 709.007 98.2013 752.607 83.179 785.287C75.6659 801.632 69.6053 815.254 65.4213 824.793C63.3293 829.563 61.7062 833.313 60.6051 835.873C60.0546 837.153 59.6345 838.135 59.3516 838.799C59.2101 839.131 59.1029 839.383 59.0309 839.553L58.9492 839.745L58.9283 839.795L58.9228 839.807C58.9215 839.811 58.9207 839.812 63.9866 841.954L58.9207 839.812Z" stroke="url(#paint2_linear_1914_109)" stroke-opacity="0.8" stroke-width="11"/>
<path d="M63.9866 847.747C63.9866 847.747 220.147 543.477 297.202 543.477C374.256 543.477 429.376 638.416 469.309 638.416C509.243 638.416 715.224 343.506 740.406 319.539C765.588 295.573 800.771 294.078 826.459 319.539C852.894 345.741 1118.88 821.459 1123.43 847.747C1129.01 880 1091.93 880 1091.93 880H88.5358C53.3013 880 49.3649 880 63.9866 847.747Z" fill="url(#paint3_linear_1914_109)"/>
<ellipse cx="372.726" cy="373.947" rx="58.1345" ry="63.854" transform="rotate(23.2611 372.726 373.947)" fill="url(#paint4_linear_1914_109)" fill-opacity="0.95"/>
<defs>
<linearGradient id="paint0_linear_1914_109" x1="590" y1="-9.39251e-07" x2="590" y2="1135.5" gradientUnits="userSpaceOnUse">
<stop stop-color="white"/>
<stop offset="1" stop-color="#DBD6D6"/>
</linearGradient>
<linearGradient id="paint1_linear_1914_109" x1="589.213" y1="196.995" x2="589.213" y2="879.996" gradientUnits="userSpaceOnUse">
<stop stop-color="white"/>
<stop offset="1" stop-color="white" stop-opacity="0"/>
</linearGradient>
<linearGradient id="paint2_linear_1914_109" x1="470.973" y1="361.049" x2="485.045" y2="789.087" gradientUnits="userSpaceOnUse">
<stop stop-color="#00858B"/>
<stop offset="1" stop-color="#07A1A8" stop-opacity="0"/>
</linearGradient>
<linearGradient id="paint3_linear_1914_109" x1="589.213" y1="301" x2="589.213" y2="880" gradientUnits="userSpaceOnUse">
<stop stop-color="#21A4B1"/>
<stop offset="1" stop-color="#177E89"/>
</linearGradient>
<linearGradient id="paint4_linear_1914_109" x1="419.765" y1="413.903" x2="334.775" y2="340.88" gradientUnits="userSpaceOnUse">
<stop stop-color="#FFEEC5" stop-opacity="0.7"/>
<stop offset="0.807292" stop-color="#F3C95E"/>
</linearGradient>
</defs>
</svg>
