<svg width="32" height="32" viewBox="0 0 32 32" fill="none" xmlns="http://www.w3.org/2000/svg">
<g clip-path="url(#clip0_241_87)">
<path fill-rule="evenodd" clip-rule="evenodd" d="M18.1879 24.8121C23.2149 23.9359 27 20.0997 27 15.5C27 10.2533 22.0751 6 16 6C9.92487 6 5 10.2533 5 15.5C5 20.0997 8.78513 23.9359 13.8121 24.8121L16 27L18.1879 24.8121Z" fill="#FF9500"/>
<path opacity="0.87" d="M24.7436 14.9857C23.697 17.7572 21.4198 14.8773 17.7872 13.5056C14.1546 12.1339 10.5422 12.7897 11.5888 10.0182C12.6353 7.24673 16.4285 6.11201 20.0611 7.48373C23.6937 8.85546 25.7901 12.2142 24.7436 14.9857Z" fill="url(#paint0_linear_241_87)" fill-opacity="0.4"/>
<path opacity="0.87" fill-rule="evenodd" clip-rule="evenodd" d="M9.76337 22.553C11.6066 22.8376 13.7342 23 16 23C18.2658 23 20.3934 22.8376 22.2366 22.553C23.8582 21.6765 25.1648 20.4678 25.9966 19.0521C23.4549 19.7903 19.9151 20.2482 16 20.2482C12.085 20.2482 8.54507 19.7903 6.00344 19.0521C6.83516 20.4678 8.14183 21.6765 9.76337 22.553ZM5.12311 16.7434C7.89801 17.5415 11.7465 18.0359 16 18.0359C20.2535 18.0359 24.102 17.5415 26.8769 16.7434C26.958 16.3212 27 15.8889 27 15.449C27 14.5983 26.8428 13.7763 26.55 13C23.8036 13.7444 20.089 14.2012 16 14.2012C11.911 14.2012 8.19641 13.7444 5.44997 13C5.15716 13.7763 5 14.5983 5 15.449C5 15.8889 5.04203 16.3212 5.12311 16.7434Z" fill="url(#paint1_linear_241_87)" fill-opacity="0.4"/>
</g>
<defs>
<linearGradient id="paint0_linear_241_87" x1="20.0611" y1="7.48373" x2="17.5774" y2="14.0611" gradientUnits="userSpaceOnUse">
<stop stop-color="white"/>
<stop offset="1" stop-color="#FFE600" stop-opacity="0.1"/>
</linearGradient>
<linearGradient id="paint1_linear_241_87" x1="16" y1="11.7535" x2="16" y2="23" gradientUnits="userSpaceOnUse">
<stop stop-color="white"/>
<stop offset="1" stop-color="#FFE600" stop-opacity="0.1"/>
</linearGradient>
<clipPath id="clip0_241_87">
<path d="M0 12.8C0 8.31958 0 6.07937 0.871948 4.36808C1.63893 2.86278 2.86278 1.63893 4.36808 0.871948C6.07937 0 8.31958 0 12.8 0H19.2C23.6804 0 25.9206 0 27.6319 0.871948C29.1372 1.63893 30.3611 2.86278 31.1281 4.36808C32 6.07937 32 8.31958 32 12.8V19.2C32 23.6804 32 25.9206 31.1281 27.6319C30.3611 29.1372 29.1372 30.3611 27.6319 31.1281C25.9206 32 23.6804 32 19.2 32H12.8C8.31958 32 6.07937 32 4.36808 31.1281C2.86278 30.3611 1.63893 29.1372 0.871948 27.6319C0 25.9206 0 23.6804 0 19.2V12.8Z" fill="white"/>
</clipPath>
</defs>
</svg>
