<svg t="1722526748247" class="icon" viewBox="0 0 1024 1024" version="1.1" xmlns="http://www.w3.org/2000/svg" p-id="14746" width="200" height="200"><path d="M471.701901 44.775665C271.768821 64.243346 107.072243 204.21597 58.403042 395.972624c-11.291255 45.165019-14.406084 69.49962-14.406084 117.00076s3.114829 71.835741 14.406084 117.00076c41.855513 165.085932 172.48365 295.714068 337.569582 337.569582 45.165019 11.291255 69.49962 14.406084 117.00076 14.406084s71.835741-3.114829 117.00076-14.406084c165.085932-41.855513 295.714068-172.48365 337.569582-337.569582 11.291255-45.165019 14.406084-69.49962 14.406084-117.00076s-3.114829-71.835741-14.406084-117.00076C921.210646 212.781749 767.026616 74.95057 578.190114 47.695817c-26.670722-3.698859-81.569582-5.256274-106.488213-2.920152z m264.760456 159.829658c23.945247 5.061597 43.412928 23.945247 51.784031 50.226616 6.424335 19.662357-1.557414 48.085171-18.494297 66.384791-3.309506 3.698859-28.03346 32.121673-54.704182 63.269962-26.476046 30.953612-61.907224 72.225095-78.454753 91.498099-16.547529 19.273004-31.537643 36.793916-33.484411 38.935361-1.752091 2.141445-35.236502 41.076806-74.36654 86.631179-38.935361 45.554373-70.667681 82.932319-70.473003 83.321673 0.389354 0.194677 60.739163 0.389354 134.326996 0.389353 88.772624 0 137.052471 0.778707 143.866159 2.141445 36.59924 7.592395 61.128517 46.722433 51.784031 82.542966-5.256274 20.441065-19.467681 37.7673-38.546008 47.306464l-10.901901 5.256274h-449.703422l-9.539163-4.477567c-5.256274-2.530798-10.707224-5.645627-12.264639-6.813688-10.123194-8.371103-17.910266-17.910266-22.777187-27.838783-5.061597-10.123194-5.840304-13.4327-5.840304-29.006844 0-20.830418 4.86692-33.095057 18.88365-48.669202 4.86692-5.450951 63.269962-73.198479 129.84943-150.874525s122.841065-142.892776 124.787833-145.03422c1.946768-2.141445 15.963498-18.29962 31.148289-36.015209l27.449429-32.121673-140.946007-0.973384-140.751331-0.973384-10.707224-5.061597c-14.01673-6.619011-27.838783-20.441065-34.263118-34.457795-4.28289-9.344487-5.256274-14.01673-5.256274-28.617491-0.194677-15.184791 0.58403-19.078327 5.061597-28.61749 9.344487-19.467681 29.006844-35.236502 48.085171-38.546008 14.406084-2.530798 432.571863-2.336122 444.447148 0.194677z" p-id="14747" fill="#2c2c2c"></path></svg>