<?xml version="1.0" standalone="no"?><!DOCTYPE svg PUBLIC "-//W3C//DTD SVG 1.1//EN" "http://www.w3.org/Graphics/SVG/1.1/DTD/svg11.dtd"><svg t="1669312051336" class="icon" viewBox="0 0 1024 1024" version="1.1" xmlns="http://www.w3.org/2000/svg" p-id="15170" width="32" height="32" xmlns:xlink="http://www.w3.org/1999/xlink"><path d="M1000.54917 375.939734a39.38653 39.38653 0 0 0-33.095605-18.018785h-0.076999-0.095999c-25.618694 0-48.220425-3.454959-65.760215-7.431912l42.356494-88.124948a39.35953 39.35953 0 0 0-2.153974-38.018546 39.40753 39.40753 0 0 0-33.345602-18.42278c-43.345483 0-70.070164-4.528946-85.046985-8.4309l62.067259-142.355301c6.749919-15.480815 2.884966-33.5576-9.614885-44.903464-12.53885-11.384864-30.903631-13.460839-45.614456-5.268937C689.495882 83.136228 525.305841 94.809089 439.94186 94.809089c-49.864405 0-81.864023-3.826954-82.191019-3.864954-16.326805-1.999976-32.134617 6.364924-39.730526 20.92275L26.758791 671.742204c-0.103999 0.197998-0.206998 0.394995-0.306997 0.594993-0.102999 0.202998-0.196998 0.410995-0.295996 0.615992-0.166998 0.346996-0.335996 0.691992-0.492994 1.044988-0.218997 0.488994-0.422995 0.983988-0.621993 1.481982-0.03 0.076999-0.063999 0.150998-0.093999 0.227997a39.314531 39.314531 0 0 0-0.878989 2.498971l-0.05 0.164998a39.469529 39.469529 0 0 0-0.555993 1.966976l-0.008 0.031-0.032 0.121998c-13.353841 49.019415-5.259937 96.619847 23.48972 137.748356 94.036878 134.555394 401.936203 185.747783 643.663319 204.977554l7.807907 0.634993c1.095987 0.095999 2.172974 0.134998 3.249961 0.134998 15.345817 0 29.441649-8.980893 35.864572-23.134724l265.841828-587.298991a39.440529 39.440529 0 0 0-2.789967-37.614551z m-153.286171-94.401874L597.708977 800.779664c-146.972246 3.437959-336.719982-12.477851-433.884822-55.417339 47.010439 5.495934 104.553752 10.225878 163.40805 10.225878 131.171435 0 225.227312-23.903715 279.572664-71.076152a39.35453 39.35453 0 0 0 10.287877-13.999833l174.511917-400.257223c13.199842 4.300949 31.288627 8.527898 55.658336 11.282865z m-471.493373-109.998687c15.749812 1.057987 37.653551 2.037976 64.172234 2.037976 89.440933 0 211.727473-10.730872 332.110037-55.557337L548.748561 630.1857c-40.922512 30.537636-117.190601 46.633443-221.516356 46.633443-78.633062 0-156.440133-9.268889-205.689545-16.595802l254.226966-488.684168z m301.399403 771.545793c-210.920483-18.102784-374.747528-53.575361-474.128342-101.307791 114.469634 32.285615 257.309929 38.327543 348.110846 38.327542 32.114617 0 57.710311-0.768991 73.249126-1.384983a39.37253 39.37253 0 0 0 33.941595-22.287734l208.367513-433.518827a375.733516 375.733516 0 0 0 41.801501 9.082892L677.169029 943.084966z" p-id="15171" fill="#758e61"></path></svg>