<svg xmlns="http://www.w3.org/2000/svg" viewBox="0 0 64 64"><path fill-rule="evenodd" d="M46.41 18.58l-4.83 4.82v0c-.38.37-.89.58-1.42.58H23.81v0c-.54 0-1.04-.22-1.42-.59l-4.83-4.83 -.001 0c-.38-.38-.59-.89-.59-1.42v-6.18 0c0-.56.44-1 1-1h4.21v0c.45 0 .85.31.97.75l.62 2.48v0c.11.44.51.75.97.75h2.43v0c.45-.01.85-.32.97-.76l.62-2.49v0c.11-.45.51-.76.97-.76h4.43v0c.45 0 .85.31.97.75l.62 2.48v0c.11.44.51.75.97.75h2.43v0c.45-.01.85-.32.97-.76l.62-2.49v0c.11-.45.51-.76.97-.76h4.22v0c.55 0 1 .44 1 1v6.17 0c-.01.53-.22 1.03-.59 1.41ZM23.99 43.99v0c-.56 0-1-.45-1-1v-16 0c0-.56.44-1 1-1h16v0c.55 0 1 .44 1 1v16 0c0 .55-.45 1-1 1Zm-6.42 7.41l4.82-4.83v0c.37-.38.88-.59 1.41-.59H40.14v0c.53-.01 1.03.21 1.41.58l4.82 4.82v0c.37.37.58.88.58 1.41v2.17 0c0 .55-.45 1-1 1h-28v0c-.56 0-1-.45-1-1v-2.18 0c0-.54.21-1.04.58-1.42Z" fill="#337ea9" /></svg>