<svg width="32" height="32" xmlns="http://www.w3.org/2000/svg" version="1.1" enable-background="new 0 0 256 256" xml:space="preserve">
 <g>
  <title>Layer 1</title>
  <g stroke="null" id="svg_10">
   <path stroke="null" fill="#009739" d="m8.1536,23.07965c-0.00064,-1.24076 -0.01699,-2.4187 0.0053,-3.59591c0.00981,-0.51802 -0.18823,-0.72065 -0.70392,-0.70041c-0.66468,0.02607 -1.33115,0.00634 -2.21194,0.00634c1.33868,-1.94319 2.56529,-3.72371 3.84699,-5.5842c-0.25834,-0.04396 -0.4119,-0.09031 -0.56616,-0.09275c-0.58868,-0.00931 -1.17759,-0.00469 -1.76641,-0.00486c-1.36736,-0.0004 -1.71726,-0.44042 -1.33752,-1.77397c0.0476,-0.16714 0.39509,-0.34722 0.60806,-0.35283c1.28193,-0.03375 2.56578,-0.04197 3.84765,-0.00821c0.54374,0.01432 0.94629,-0.11831 1.17251,-0.62869c0.23942,-0.54017 0.6589,-0.67247 1.22175,-0.65398c1.08321,0.03557 2.16843,0.01037 3.35894,0.01037c-0.25821,0.45289 -0.44817,0.78607 -0.71923,1.26149c0.39112,0 0.65209,-0.00001 0.91307,0c3.30162,0.00019 6.60324,-0.00135 9.90487,0.00182c0.82363,0.00079 0.84494,0.02914 0.85345,0.85338c0.01332,1.29011 0.01332,1.29043 -1.30251,1.29052c-3.68015,0.00024 -7.3603,-0.00034 -11.04046,0.00066c-0.8602,0.00024 -1.86922,0.9025 -1.90294,1.77073c-0.03996,1.02887 -0.00484,2.06049 -0.01392,3.09081c-0.00354,0.40187 0.17914,0.56491 0.57357,0.56409c2.6076,-0.00542 5.21528,0.0033 7.82274,-0.01689c0.17937,-0.00139 0.48608,-0.17517 0.51178,-0.3108c0.07956,-0.41986 0.18889,-0.92579 -0.29026,-1.19012c-0.2783,-0.15353 -0.63198,-0.23329 -0.95286,-0.23655c-2.06068,-0.0209 -4.12167,-0.009 -6.18254,-0.01316c-0.82344,-0.00166 -0.8516,-0.02921 -0.85191,-0.85345c-0.00053,-1.4219 -0.09375,-1.28654 1.29821,-1.28898c2.90205,-0.00507 5.80413,-0.00373 8.70618,-0.00044c1.70992,0.00194 2.47715,0.74809 2.48636,2.43694c0.01066,1.95568 0.0755,3.91524 -0.02538,5.86576c-0.05874,1.13575 -0.36346,2.26458 -0.62042,3.38206c-0.15329,0.66664 -0.61297,0.98323 -1.34913,0.9499c-1.04454,-0.0473 -2.09283,-0.01201 -3.26874,-0.01201c0.11057,-0.27698 0.17669,-0.43509 0.23712,-0.59536c0.21307,-0.56508 0.42367,-1.13108 0.63618,-1.69638c0.176,-0.46818 -0.04991,-0.61136 -0.47949,-0.61034c-1.1566,0.00273 -2.31322,-0.00167 -3.46983,-0.00218c-1.28279,-0.00057 -2.5656,-0.00204 -3.84839,0.00082c-0.93056,0.00208 -0.93071,0.00493 -0.93523,0.96227c-0.00209,0.4416 -0.01057,0.88333 -0.00303,1.32478c0.00716,0.41944 -0.18022,0.61749 -0.60614,0.61428c-0.96727,-0.00732 -1.93483,-0.01278 -2.90189,0.00344c-0.50064,0.00839 -0.66082,-0.23392 -0.65586,-0.69832c0.01212,-1.13538 0.00233,-2.271 0.00136,-3.46964m11.54627,-2.52442c-2.20668,0.00038 -4.41372,0.02328 -6.61983,-0.01192c-0.70643,-0.01127 -0.77189,0.33719 -0.7722,0.8959c-0.00031,0.55977 0.06782,0.90474 0.77307,0.89501c2.43739,-0.0336 4.87554,-0.01064 7.31339,-0.01336c0.85898,-0.00095 0.88562,-0.03301 0.88549,-0.88327c-0.00012,-0.84825 -0.02664,-0.87486 -0.88785,-0.88173c-0.18913,-0.00151 -0.37829,-0.00048 -0.69206,-0.00062l0,0z" id="svg_2"/>
   <path stroke="null" fill="#009739" d="m10.59815,7.92729c-0.21982,-0.17396 -0.50204,-0.33073 -0.52543,-0.51956c-0.19502,-1.57451 -0.14088,-1.62024 1.44955,-1.62035c0.66571,-0.00005 1.33142,-0.00001 2.08633,-0.00001c-0.08923,-0.21343 -0.12729,-0.31997 -0.17704,-0.42074c-0.19182,-0.38856 -0.10277,-0.59134 0.3597,-0.58842c1.05169,0.00665 2.10503,-0.02808 3.15402,0.02577c0.25131,0.0129 0.57771,0.25395 0.71167,0.48258c0.22517,0.38432 0.49265,0.50913 0.91564,0.50603c1.93513,-0.01417 3.87044,-0.00668 5.80567,-0.00475c1.56563,0.00156 2.29416,0.6371 2.43706,2.17185c0.04856,0.52144 0.00697,1.05094 0.01485,1.57663c0.0055,0.36643 -0.16001,0.54004 -0.53123,0.53813c-1.03065,-0.00531 -2.06136,-0.00537 -3.092,0.00016c-0.3694,0.00198 -0.54192,-0.1664 -0.53406,-0.53507c0.00402,-0.189 0.00329,-0.37983 -0.01762,-0.56733c-0.08248,-0.73974 -0.40144,-1.03509 -1.14537,-1.0362c-3.61805,-0.0054 -7.2361,-0.00483 -10.91172,-0.00871l0,0z" id="svg_3"/>
   <path stroke="null" fill="#009739" d="m24.63808,27.81448c-0.94763,1.21878 -2.28161,1.62329 -3.73534,1.83613c-0.79714,0.11671 -1.64374,0.22599 -2.34846,0.57801c-1.71579,0.85707 -3.39439,0.92966 -5.06257,0.02167c-0.9833,-0.5352 -2.04216,-0.57203 -3.09339,-0.72614c-1.64277,-0.24083 -2.80299,-1.17007 -3.77043,-2.48335c-0.52149,-0.70791 -1.20212,-1.33574 -1.91492,-1.85772c-1.42005,-1.0399 -2.21925,-2.41431 -2.32704,-4.12893c-0.05858,-0.93182 -0.27742,-1.77862 -0.67777,-2.59149c-0.80686,-1.63826 -0.86147,-3.28641 0.01726,-4.88787c0.5819,-1.0605 0.55046,-2.21728 0.76149,-3.34085c0.21773,-1.15927 0.76531,-2.15127 1.73266,-2.95713c0.219,0.45558 0.21377,0.82963 -0.0738,1.1961c-0.63276,0.80638 -0.85049,1.73052 -0.94624,2.74652c-0.07894,0.83764 -0.30584,1.70237 -0.66158,2.46434c-0.73674,1.57808 -0.76617,3.06374 -0.00795,4.6532c0.38626,0.80971 0.59043,1.74971 0.67536,2.64984c0.13746,1.45686 0.68779,2.64046 1.89371,3.45244c1.06528,0.71728 1.8537,1.59994 2.54793,2.70602c0.4406,0.70199 1.49532,1.07641 2.34115,1.44514c0.53354,0.23259 1.2029,0.13045 1.78775,0.27436c0.72626,0.17871 1.4588,0.39063 2.13412,0.70523c1.37132,0.63884 2.72936,0.6635 4.06586,0.00629c1.03889,-0.51086 2.10164,-0.80939 3.26016,-0.83511c0.4095,-0.0091 0.82404,-0.14848 1.22122,-0.27549c0.6736,-0.21542 1.33523,-0.46825 2.06997,-0.69653c0.06808,0.00884 0.11086,0.04532 0.11086,0.04532l0,0z" id="svg_4"/>
   <path stroke="null" fill="#009739" d="m5.25031,9.94912c-0.06312,-1.27532 -0.10174,-2.5114 -0.09089,-3.74705c0.00119,-0.13632 0.28207,-0.38237 0.439,-0.38713c1.11311,-0.03378 2.22839,-0.03662 3.34112,0.00296c0.16059,0.00571 0.44006,0.28678 0.44574,0.44813c0.0392,1.11275 0.03621,2.22803 0.00188,3.34111c-0.00482,0.15614 -0.25367,0.43531 -0.39132,0.4364c-1.2353,0.0098 -2.47099,-0.02991 -3.74555,-0.09443l0,0z" id="svg_5"/>
   <path stroke="null" fill="#009739" d="m29.49582,10.45582c0.04025,1.46811 0.57072,2.72853 1.10106,4.01681c0.49429,1.20071 0.41048,2.49547 -0.23205,3.65422c-0.60121,1.08426 -0.73746,2.25414 -0.87251,3.4424c-0.16665,1.46634 -0.95732,2.57744 -2.07596,3.47377c-0.50334,0.40331 -1.05046,0.75197 -1.68295,1.19996c0.16327,-0.61219 0.12726,-1.16993 0.71726,-1.52935c1.48789,-0.90639 2.24758,-2.20966 2.31596,-3.99736c0.03169,-0.82842 0.33401,-1.6905 0.69272,-2.45307c0.71392,-1.51768 0.77295,-2.98341 -0.01032,-4.46646c-0.48108,-0.91088 -0.62265,-1.88851 -0.75279,-2.8976c-0.09592,-0.74374 -0.45157,-1.45693 -0.71508,-2.17507c-0.17305,-0.47163 -0.38812,-0.92785 -0.63,-1.49865c1.02407,0.31254 1.93998,1.7703 2.14466,3.23039l-0.00001,0z" id="svg_6"/>
   <path stroke="null" fill="#009739" d="m23.29331,4.0188c-0.76443,-0.26564 -1.47276,-0.62687 -2.21595,-0.7255c-0.98524,-0.13076 -1.94776,-0.25569 -2.83604,-0.72896c-1.50005,-0.7992 -3.00526,-0.80822 -4.50731,-0.00826c-0.90813,0.48366 -1.879,0.6828 -2.90083,0.71361c-1.14871,0.03464 -2.11683,0.53437 -2.88385,1.3512c-0.34315,0.36544 -0.65296,0.46958 -1.17502,0.32813c0.29312,-0.67663 0.79819,-1.12766 1.34207,-1.53306c0.84725,-0.63153 1.83259,-1.00006 2.86602,-1.00063c1.08395,-0.0006 1.99664,-0.42093 2.93044,-0.8363c1.40653,-0.62565 2.81985,-0.67207 4.18208,0.04635c1.12849,0.59515 2.33853,0.7187 3.562,0.89252c1.53228,0.2177 2.67967,1.06362 3.56019,2.39547c-0.51384,0.2013 -0.87301,0.1182 -1.19523,-0.22774c-0.21386,-0.2296 -0.45762,-0.43133 -0.72857,-0.66683z" id="svg_7"/>
   <path stroke="null" fill="#009739" d="m24.57483,27.75871c0.01508,-0.00332 0.05062,0.01265 0.07471,0.04218c-0.01146,0.01358 -0.05425,-0.0229 -0.07471,-0.04218z" id="svg_8"/>
  </g>
 </g>

</svg>