<?xml version="1.0" standalone="no"?><!DOCTYPE svg PUBLIC "-//W3C//DTD SVG 1.1//EN" "http://www.w3.org/Graphics/SVG/1.1/DTD/svg11.dtd"><svg t="1665142517946" class="icon" viewBox="0 0 1024 1024" version="1.1" xmlns="http://www.w3.org/2000/svg" p-id="5658" xmlns:xlink="http://www.w3.org/1999/xlink" width="128" height="128"><path d="M896 195.8V96a32 32 0 0 0-32-32H160a32 32 0 0 0-32 32v256a32 32 0 0 0 32 32h229.39L148.33 759A127.75 127.75 0 0 0 128 828.2V928a32 32 0 0 0 32 32h704a32 32 0 0 0 32-32V672a32 32 0 0 0-32-32H634.61l241.06-375A127.75 127.75 0 0 0 896 195.8zM832 128v64H192v-64zM192 896v-67.8a63.78 63.78 0 0 1 10.17-34.61L465.47 384h83.92L293.08 782.7A32 32 0 0 0 320 832h512v64z m640-128H378.61l41.15-64H832zM460.9 640l174-270.7A32 32 0 0 0 608 320H192v-64h613.39L558.53 640z" fill="#1296db" p-id="5659"></path></svg>