<?xml version="1.0" encoding="utf-8"?>
<!-- Generator: Adobe Illustrator 17.0.0, SVG Export Plug-In . SVG Version: 6.00 Build 0)  -->
<!DOCTYPE svg PUBLIC "-//W3C//DTD SVG 1.1//EN" "http://www.w3.org/Graphics/SVG/1.1/DTD/svg11.dtd">
<svg version="1.1" id="图层_1" xmlns="http://www.w3.org/2000/svg" xmlns:xlink="http://www.w3.org/1999/xlink" x="0px" y="0px"
	 width="800px" height="800px" viewBox="0 0 800 800" enable-background="new 0 0 800 800" xml:space="preserve">
<g>
	<path fill="#00A0FF" d="M282.639,281.223L282.639,281.223L282.639,281.223L282.639,281.223L282.639,281.223
		c-2.473-1.861-5.034-3.52-7.664-4.983c-1.904-1.059-4.295-0.564-5.604,1.177l-16.492,21.912l-1.176,1.563
		c-1.786,2.373-4.638,3.665-7.605,3.529c-1.082-0.049-2.164-0.039-3.242,0.029c-8.289,0.525-16.308,4.525-21.694,11.681
		c-4.33,5.753-6.229,12.576-5.879,19.245c0.063,1.201,0.757,2.298,1.851,2.796c2.27,1.032,4.017,3.137,4.454,5.83
		c0.618,3.809-1.722,7.551-5.418,8.659c-4.357,1.306-8.832-1.363-9.814-5.724c-0.532-2.362,0.079-4.711,1.463-6.48
		c0.768-0.981,1.154-2.203,1.044-3.444c-0.758-8.552,1.52-17.402,7.09-24.802c7.026-9.334,17.717-14.274,28.562-14.337
		c2.09-0.012,4.052-1.011,5.309-2.681l15.188-20.178c1.189-1.579,0.421-3.848-1.476-4.405c-25.43-7.46-53.905,0.934-70.96,23.146
		c-22.099,28.781-16.729,70.279,11.987,92.462c2.687,2.076,5.482,3.909,8.36,5.508c1.893,1.052,4.274,0.537,5.577-1.193
		l16.492-21.911l1.176-1.563c1.786-2.373,4.638-3.665,7.605-3.529c1.082,0.049,2.164,0.039,3.242-0.029
		c8.289-0.525,16.308-4.525,21.694-11.681c4.33-5.753,6.229-12.576,5.879-19.245c-0.063-1.201-0.757-2.298-1.851-2.796
		c-2.27-1.032-4.017-3.137-4.454-5.83c-0.618-3.809,1.722-7.551,5.418-8.658c4.357-1.306,8.832,1.363,9.814,5.724
		c0.532,2.362-0.079,4.711-1.463,6.48c-0.768,0.981-1.154,2.203-1.044,3.444c0.758,8.552-1.52,17.402-7.09,24.802
		c-7.026,9.334-17.717,14.274-28.562,14.337c-2.09,0.012-4.052,1.011-5.309,2.681l-15.187,20.177
		c-1.18,1.568-0.439,3.842,1.444,4.396c25.633,7.534,54.368-1.045,71.384-23.652C317.614,344.545,311.773,303.151,282.639,281.223z"
		/>
	<g>
		<path fill="#00A0FF" d="M391.613,299.257l-0.001-1.567c-0.001-1.133-0.92-2.052-2.053-2.052h-51.424
			c-1.134,0-2.053,0.919-2.053,2.053v3.137c0,1.134,0.919,2.053,2.053,2.053h43.629c1.255,0,2.221,1.107,2.034,2.348
			c-1.224,8.113-5.061,23.285-17.051,37.854c-0.847,1.029-2.419,1.011-3.241-0.039c-10.032-12.828-13.119-25.98-13.962-30.826
			c-0.184-1.061-1.166-1.792-2.237-1.678l-1.643,0.174l-1.449,0.151c-1.188,0.124-2.026,1.228-1.808,2.403
			c1.028,5.558,4.773,20.841,16.549,35.388c0.683,0.843,0.625,2.076-0.175,2.81c-14.336,13.149-27.229,16.031-31.841,16.657
			c-1.027,0.14-1.794,1.009-1.789,2.046l0.015,3.169c0.006,1.22,1.065,2.174,2.276,2.032c5.484-0.645,20.116-3.743,36.284-18.613
			c0.799-0.734,2.014-0.734,2.81,0.003c7.813,7.235,17.799,14.211,31.266,18.495c1.091,0.347,2.259-0.287,2.582-1.385l0.887-3.007
			c0.318-1.078-0.297-2.198-1.367-2.539c-12.252-3.908-21.285-10.2-28.378-16.651c-0.818-0.744-0.859-2.006-0.141-2.846
			C391.369,325.431,391.615,300.395,391.613,299.257z"/>
		<path fill="#00A0FF" d="M427.31,292.355h-3.137c-1.134,0-2.053,0.919-2.053,2.053v10.999c0,1.134-0.919,2.053-2.053,2.053h-7.379
			c-1.134,0-2.053,0.919-2.053,2.053v3.137c0,1.134,0.919,2.053,2.053,2.053h7.379c1.134,0,2.053,0.919,2.053,2.053v15.933
			c0,1.134-0.919,2.053-2.053,2.053h-7.379c-1.134,0-2.053,0.919-2.053,2.053v3.137c0,1.134,0.919,2.053,2.053,2.053h7.379
			c1.134,0,2.053,0.919,2.053,2.053v15.065c0,3.27-1.307,8.606-9.648,9.31c-1.078,0.091-1.921,0.965-1.921,2.047v3.125
			c0,1.196,1.017,2.157,2.209,2.055c8.099-0.693,16.603-5.292,16.603-16.537v-15.065c0-1.134,0.919-2.053,2.053-2.053h6.557
			c1.134,0,2.053-0.919,2.053-2.053v-3.137c0-1.134-0.919-2.053-2.053-2.053h-6.557c-1.134,0-2.053-0.919-2.053-2.053v-15.933
			c0-1.134,0.919-2.053,2.053-2.053h6.557c1.134,0,2.053-0.919,2.053-2.053v-3.137c0-1.134-0.919-2.053-2.053-2.053h-6.557
			c-1.134,0-2.053-0.919-2.053-2.053v-10.999C429.363,293.274,428.444,292.355,427.31,292.355z"/>
		<path fill="#00A0FF" d="M443.648,373.092c0,1.134,0.919,2.053,2.053,2.053h23.138c10.239,0,18.569-7.94,18.569-17.7v-48.63
			c0-1.134-0.919-2.053-2.053-2.053h-39.654c-1.134,0-2.053,0.919-2.053,2.053V373.092z M468.839,367.902h-15.895
			c-1.134,0-2.053-0.919-2.053-2.053v-21.81c0-1.134,0.919-2.053,2.053-2.053h25.167c1.134,0,2.053,0.919,2.053,2.053v13.406
			C480.165,363.211,475.084,367.902,468.839,367.902z M480.165,316.059v16.631c0,1.134-0.919,2.053-2.053,2.053h-25.167
			c-1.134,0-2.053-0.919-2.053-2.053v-16.631c0-1.134,0.919-2.053,2.053-2.053h25.167
			C479.246,314.006,480.165,314.925,480.165,316.059z"/>
		<path fill="#00A0FF" d="M475.171,292.301h-20.44c-1.134,0-2.053,0.919-2.053,2.053v3.137c0,1.134,0.919,2.053,2.053,2.053h20.44
			c1.134,0,2.053-0.919,2.053-2.053v-3.137C477.224,293.22,476.305,292.301,475.171,292.301z"/>
		<path fill="#00A0FF" d="M553.303,295.487H510.73c-1.134,0-2.053,0.919-2.053,2.053v3.137c0,1.134,0.919,2.053,2.053,2.053h42.573
			c1.134,0,2.053-0.919,2.053-2.053v-3.137C555.356,296.406,554.437,295.487,553.303,295.487z"/>
		<path fill="#00A0FF" d="M535.11,331.8h29.657c1.134,0,2.053-0.919,2.053-2.053v-3.137c0-1.134-0.919-2.053-2.053-2.053h-65.51
			c-1.134,0-2.053,0.919-2.053,2.053v3.137c0,1.134,0.919,2.053,2.053,2.053h20.274c1.638,0,2.617,1.824,1.711,3.189l-13.492,24.343
			c-0.363,0.545-0.632,1.08-0.821,1.633c-1.129,3.299-0.601,6.838,1.451,9.71c2.15,3.01,5.706,4.806,9.509,4.806h36.976
			c1.662,0,3.181-0.829,4.061-2.218c0.863-1.359,0.969-3.039,0.283-4.495l-8.586-16.643c-0.52-1.008-1.759-1.403-2.766-0.883
			l-2.788,1.439c-1.008,0.52-1.403,1.758-0.883,2.766l5.055,9.796c0.705,1.367-0.287,2.995-1.825,2.995h-29.528
			c-1.492,0-2.81-0.647-3.616-1.775c-0.367-0.512-0.899-1.53-0.589-2.798c0.052-0.212,0.157-0.413,0.278-0.596l16.397-28.72
			C531.416,332.757,533.199,331.8,535.11,331.8z"/>
	</g>
</g>
</svg>
