<?xml version="1.0" standalone="no"?>
<!DOCTYPE svg PUBLIC "-//W3C//DTD SVG 20010904//EN"
 "http://www.w3.org/TR/2001/REC-SVG-20010904/DTD/svg10.dtd">
<svg version="1.0" xmlns="http://www.w3.org/2000/svg"
 width="352.000000pt" height="284.000000pt" viewBox="0 0 352.000000 284.000000"
 preserveAspectRatio="xMidYMid meet">
<metadata>
Created by potrace 1.16, written by Peter Selinger 2001-2019
</metadata>
<g transform="translate(0.000000,284.000000) scale(0.100000,-0.100000)"
fill="#FFFFFF" stroke="none">
<path d="M1543 2650 c-109 -88 -199 -164 -201 -168 -2 -6 314 -266 390 -320
17 -12 39 3 221 148 111 89 202 166 202 170 0 9 -395 330 -406 330 -4 0 -97
-72 -206 -160z"/>
<path d="M810 2061 c-74 -60 -135 -112 -137 -117 -1 -5 84 -76 189 -159 185
-145 265 -208 676 -533 106 -84 198 -155 205 -157 10 -4 1013 778 1070 834 17
16 11 22 -123 129 -77 62 -142 112 -145 112 -4 0 -183 -140 -480 -375 -49 -39
-139 -111 -200 -159 -60 -47 -115 -84 -122 -82 -7 3 -184 141 -393 306 -210
166 -386 303 -393 305 -7 2 -73 -44 -147 -104z"/>
<path d="M142 1523 c-79 -63 -140 -119 -135 -123 40 -38 1730 -1363 1739
-1364 6 -1 398 303 869 674 472 371 865 680 873 686 11 8 -15 33 -131 126
l-145 116 -731 -574 c-478 -377 -735 -573 -743 -568 -9 6 -1072 841 -1443
1134 -6 5 -71 -41 -153 -107z"/>
</g>
</svg>
