<svg t="1717576439356" class="icon" viewBox="0 0 1024 1024" version="1.1" xmlns="http://www.w3.org/2000/svg" p-id="6277" width="200" height="200"><path d="M512 512m-512 0a512 512 0 1 0 1024 0 512 512 0 1 0-1024 0Z" fill="#333333" p-id="6278"></path><path d="M199.936 439.04H147.456c4.608 68.352-12.288 120.064-12.288 120.064l28.16 51.456c37.376-15.872 36.608-171.52 36.608-171.52m169.984 0H317.44s-0.768 155.648 36.352 171.52l28.16-51.456c0.256 0.256-16.64-51.712-12.032-120.064M232.96 595.712H199.936c0 38.656 32.512 41.984 32.512 41.984h16.64c33.536 0 34.816-38.4 34.816-38.4v-228.352H232.96v224.768z m176.128-109.568h34.048L417.28 539.392s-15.104 29.952 9.216 30.976h56.576l22.528-41.216h-28.416c-2.56 0-4.864-2.048-4.864-4.864 0-0.768 0.256-1.536 0.512-2.048l42.24-82.944H465.92l-2.816 5.888h-3.328c-2.56 0-4.864-2.048-4.864-4.864 0-0.768 0.256-1.536 0.512-2.048l35.328-67.328h-49.152l-41.984 84.48c0.512 0-14.592 29.696 9.472 30.72m7.68 100.608s-6.4 0.512-10.496-3.584l-25.344 48.896s4.096 5.632 12.8 5.632h62.976l26.88-50.944h-66.816z" fill="#FFFFFF" p-id="6279"></path><path d="M606.976 439.04h32.512v-52.224h-115.968v52.224h32.768v149.248h-48.64l-24.32 49.152h172.8v-49.152h-49.152v-149.248z m232.192 38.656h-5.888v-33.792c0-31.488-25.6-57.088-57.088-57.088h-19.712v-15.872h-50.176v15.872h-31.488v51.2h31.488v39.68h-50.176v51.2h50.176v109.056h50.176v-108.8h68.864c6.656 0 12.288 5.376 12.288 12.288v53.76h-47.872c0 23.808 19.2 43.008 43.008 43.008h13.056c23.808 0 43.008-19.2 43.008-43.008v-67.584c-0.256-27.904-22.272-49.92-49.664-49.92M756.48 437.76h17.92c4.352 0 7.68 3.584 7.68 7.68v32h-25.856V437.76z" fill="#FFFFFF" p-id="6280"></path><path d="M888.064 411.904c0-13.824-11.008-24.832-24.832-24.832-13.824 0-24.832 11.008-24.832 24.832v24.832h24.832c13.568 0 24.832-11.264 24.832-24.832" fill="#FFFFFF" p-id="6281"></path></svg>