<svg t="1717576376677" class="icon" viewBox="0 0 1024 1024" version="1.1" xmlns="http://www.w3.org/2000/svg" p-id="5034" width="200" height="200"><path d="M511.061333 801.92a291.157333 291.157333 0 0 1-290.858666-290.858667 291.157333 291.157333 0 0 1 338.517333-286.933333 26.752 26.752 0 0 1-8.704 52.736 237.653333 237.653333 0 0 0-276.309333 234.24 237.653333 237.653333 0 0 0 237.354666 237.354667 237.653333 237.653333 0 0 0 233.258667-281.770667 26.709333 26.709333 0 1 1 52.48-9.941333 291.157333 291.157333 0 0 1-285.781333 345.173333M694.613333 275.328a53.333333 53.333333 0 1 1 0 106.666667 53.333333 53.333333 0 0 1 0-106.666667M511.061333 0C228.821333 0 0 228.821333 0 511.061333c0 282.24 228.821333 511.061333 511.061333 511.061334 282.24 0 511.061333-228.821333 511.061334-511.061334C1022.122667 228.821333 793.301333 0 511.061333 0" fill="#ffffff" p-id="5035"></path></svg>