<svg class="lds-midorikappa" width="80px"  height="80px"  xmlns="http://www.w3.org/2000/svg" viewBox="0 0 100 100" preserveAspectRatio="xMidYMid">
      <g transform="rotate(262.659 50 50)">
        <animateTransform attributeName="transform" type="rotate" values="360 50 50;0 50 50" keyTimes="0;1" dur="1.5s" repeatCount="indefinite" calcMode="spline" keySplines="0.5 0 0.5 1" begin="-0.15000000000000002s"></animateTransform>
        <circle cx="50" cy="50" r="39.891" stroke="#8cc63f" stroke-width="14.4" fill="none" stroke-dasharray="0 300">
          <animate attributeName="stroke-dasharray" values="15 300;55.1413599195142 300;15 300" keyTimes="0;0.5;1" dur="1.5s" repeatCount="indefinite" calcMode="linear" keySplines="0 0.4 0.6 1;0.4 0 1 0.6" begin="-0.069s"></animate>
        </circle>
        <circle cx="50" cy="50" r="39.891" stroke="#fff794" stroke-width="7.2" fill="none" stroke-dasharray="0 300">
          <animate attributeName="stroke-dasharray" values="15 300;55.1413599195142 300;15 300" keyTimes="0;0.5;1" dur="1.5s" repeatCount="indefinite" calcMode="linear" keySplines="0 0.4 0.6 1;0.4 0 1 0.6" begin="-0.069s"></animate>
        </circle>
        <circle cx="50" cy="50" r="32.771" stroke="#000000" stroke-width="1" fill="none" stroke-dasharray="0 300">
          <animate attributeName="stroke-dasharray" values="15 300;45.299378454348094 300;15 300" keyTimes="0;0.5;1" dur="1.5s" repeatCount="indefinite" calcMode="linear" keySplines="0 0.4 0.6 1;0.4 0 1 0.6" begin="-0.069s"></animate>
        </circle>
        <circle cx="50" cy="50" r="47.171" stroke="#000000" stroke-width="1" fill="none" stroke-dasharray="0 300">
          <animate attributeName="stroke-dasharray" values="15 300;66.03388996804073 300;15 300" keyTimes="0;0.5;1" dur="1.5s" repeatCount="indefinite" calcMode="linear" keySplines="0 0.4 0.6 1;0.4 0 1 0.6" begin="-0.069s"></animate>
        </circle>
      </g>
      <g transform="rotate(312.338 50 50)">
        <animateTransform attributeName="transform" type="rotate" values="360 50 50;0 50 50" keyTimes="0;1" dur="1.5s" repeatCount="indefinite" calcMode="spline" keySplines="0.5 0 0.5 1"></animateTransform>

        <path fill="#009245" stroke="#000000" d="M87.6,67.8c0.5,0,1.1-0.2,1.4-0.7c0.2-0.4,0.3-0.8,0.4-1.2c-1.6-0.7-3.3-1.4-4.9-2c-0.2-0.1-0.6,1.2-0.5,1.5 c0,0.4,0.2,0.6,0.5,0.9C85.2,67.2,86.4,67.9,87.6,67.8z"></path>
        <path fill="#8cc63f" stroke="#000000" d="M97.2,50c0,6.1-1.2,12.2-3.5,17.8l-13.3-5.4c1.6-3.9,2.4-8.2,2.4-12.4"></path>
        <path fill="#fff794" transform="translate(0,-0.2)" d="M93.6,50c0,1.2,0,2.4-0.1,3.6L93,57.2c-0.4,2-2.3,3.3-4.1,2.8l-0.2-0.1c-1.8-0.5-3.1-2.3-2.7-3.9l0.4-3 c0.1-1,0.1-2,0.1-3"></path>
        <path fill="#8cc63f" stroke="#000000" d="M85.4,62.5c-0.2,0.7-0.5,1.4-0.8,2.1c-0.3,0.7-0.6,1.4-0.9,2c-0.6,1.1-2,1.4-3.2,0.8v0c-1.1-0.7-1.7-2-1.2-2.9 c0.3-0.6,0.5-1.2,0.8-1.8c0.2-0.6,0.6-1.2,0.7-1.8"></path>
        <path fill="#8cc63f" stroke="#000000" d="M94.5,65.7c-0.3,0.9-0.7,1.7-1,2.6c-0.4,0.8-0.7,1.7-1.1,2.5c-0.7,1.4-2.3,1.9-3.4,1.3l0,0 c-1.1-0.7-1.5-2.2-0.9-3.4c0.4-0.8,0.7-1.5,1-2.3c0.3-0.8,0.7-1.5,0.9-2.3"></path>

      </g>
      <g transform="rotate(262.659 50 50)">
        <animateTransform attributeName="transform" type="rotate" values="360 50 50;0 50 50" keyTimes="0;1" dur="1.5s" repeatCount="indefinite" calcMode="spline" keySplines="0.5 0 0.5 1" begin="-0.15000000000000002s"></animateTransform>

        <path fill="#8cc63f" stroke="#000000" d="M82.8,50c0-3.4-0.5-6.8-1.5-10c-0.2-0.8-0.4-1.5-0.3-2.3c0.1-0.8,0.4-1.6,0.7-2.4c0.7-1.5,1.9-3.1,3.7-4l0,0 c1.8-0.9,3.7-1,5.6-0.3c0.9,0.4,1.7,1,2.4,1.8c0.7,0.8,1.3,1.7,1.7,2.8c1.5,4.6,2.2,9.5,2.2,14.4"></path>
        <path fill="#fff794" transform="translate(0,0.2)" d="M86.4,50l0-0.9l-0.1-0.9l-0.1-1.9c0-0.9,0.2-1.7,0.7-2.3c0.5-0.7,1.3-1.2,2.3-1.4l0.3,0c0.9-0.2,1.9,0,2.6,0.6 c0.7,0.5,1.3,1.4,1.4,2.4l0.2,2.2l0.1,1.1l0,1.1"></path>
        <path fill="#ff7bac" d="M93.5,35.1c0.1,0.3-0.3,0.8-0.9,1c-0.6,0.2-1.2,0.1-1.4-0.2c-0.1-0.3,0.3-0.8,0.9-1 C92.7,34.6,93.4,34.7,93.5,35.1z"></path>
        <path fill="#ff7bac" d="M82.1,39c0.1,0.3,0.7,0.3,1.3,0.1c0.6-0.2,1.1-0.6,1-0.9c-0.1-0.3-0.7-0.3-1.3-0.1C82.5,38.3,82,38.7,82.1,39z "></path>
        <path fill="#8cc63f" stroke="#000000" d="M86.9,43c0.2,1.2,0.5,2.4,0.5,3.7c0.1,1.2-0.9,2.3-2.2,2.3h0c-1.3,0-2.5-0.8-2.5-1.9l-0.1-1 c0-0.3-0.1-0.6-0.2-1l-0.3-1.9"></path>
        <path fill="#8cc63f" stroke="#000000" d="M96.2,40.3l0.5,2.7c0.1,0.5,0.2,0.9,0.2,1.4l0.1,1.4c0.1,1.5-0.9,2.8-2.2,2.8c-1.3,0-2.5-1.1-2.6-2.4 c0-1.4-0.3-2.8-0.6-4.1"></path>
        <path fill="#000000" d="M91.4,34.6c0.3,0.7,0,1.4-0.7,1.6c-0.6,0.2-1.3-0.1-1.6-0.8c-0.2-0.6,0.1-1.3,0.7-1.6C90.4,33.6,91.1,33.9,91.4,34.6z"></path>
        <path fill="#000000" d="M85.7,36.7c0.2,0.6-0.1,1.2-0.7,1.4c-0.6,0.2-1.3-0.1-1.5-0.6c-0.2-0.5,0.1-1.2,0.7-1.4C84.8,35.8,85.5,36.1,85.7,36.7z"></path>
        <path fill="#fceca6" stroke="#000000" d="M86,39.5c0,0.1,0,0.2,0,0.3c0.2,0.8,1.5,1.2,2.9,0.9c1.4-0.3,2.3-1.3,2-2.3c0-0.1-0.1-0.2-0.2-0.4 c-0.5,0.5-1.3,0.9-2.2,1.2C87.6,39.5,86.7,39.6,86,39.5z"></path>
        <path fill="#fceca6" stroke="#000000" d="M88,37.6c-1.1,0.4-2,1.2-2,1.9c0.7,0.1,1.6,0,2.5-0.2c0.9-0.3,1.7-0.7,2.2-1.2C90.3,37.4,89.2,37.2,88,37.6z"></path>
        <path fill="#009245" stroke="#000000" d="M81.9,33.7c-0.3,0.9-0.7,1.4-1.3,2.2c0.8-0.2,1.5-0.4,2.2-0.9c0.2,0.5,0.2,1,0.1,1.6c0.6-0.6,1.3-1.3,1.9-2 c0.3,0.4,0.4,0.9,0.5,1.4c0.4-0.6,0.8-1.3,1-2.1c0.6,0.3,1.3,0.7,1.7,1.2c0-0.6,0-1.3,0-1.9c0.6,0.1,1.6,0.3,2.2,0.7 c-0.2-0.6-0.2-1.6-0.5-2.2c1,0.2,1.9-0.6,2.3-1c-0.9-0.3-2.1-0.6-2.9-1.1"></path>
        <path fill="#fceca6" stroke="#000000" d="M89.2,29.7c0.4,0.8-0.9,2.3-3,3.3c-2.1,1-4.1,1.2-4.4,0.6c-0.3-0.7,1-2.1,3-3.3C86.8,29.1,88.8,28.9,89.2,29.7 z"></path>

      </g></svg>