<svg fill="none" height="100" viewBox="0 0 526 100" width="526" xmlns="http://www.w3.org/2000/svg" xmlns:xlink="http://www.w3.org/1999/xlink"><clipPath id="a"><path d="m142 20h100v60.16h-100z"/></clipPath><clipPath id="b"><path d="m0 10h100v79.68h-100z"/></clipPath><g fill="#fff"><path d="m472.675.0268854c-.215.0195293-.898.0878816-1.513.1367056-14.188 1.279169-27.478 8.934679-35.895 20.701109-4.687 6.5423-7.685 13.9635-8.818 21.824-.4 2.7439-.449 3.5544-.449 7.2747 0 3.7204.049 4.5308.449 7.2747 2.715 18.7579 16.063 34.5181 34.167 40.3574 3.242 1.0448 6.659 1.7576 10.546 2.1873 1.513.166 8.055.166 9.569 0 6.708-.7421 12.391-2.4021 17.996-5.2632.86-.4394 1.026-.5566.908-.6542-.078-.0586-3.739-4.9702-8.134-10.9072l-7.987-10.7899-10.009-14.813c-5.507-8.1438-10.038-14.8033-10.077-14.8033-.039-.0097-.078 6.5717-.098 14.608-.029 14.0709-.039 14.6372-.214 14.9692-.254.4785-.45.6738-.86.8886-.312.1562-.586.1855-2.06.1855h-1.689l-.45-.2831c-.293-.1856-.507-.4297-.654-.7129l-.205-.4394.02-19.5781.029-19.588.303-.3808c.156-.2051.488-.4687.722-.5956.401-.1953.557-.2149 2.246-.2149 1.992 0 2.324.0782 2.842.6445.146.1562 5.565 8.3195 12.049 18.1525 6.484 9.8331 15.35 23.2595 19.705 29.8506l7.91 11.9813.4-.2637c3.545-2.3044 7.294-5.5854 10.263-9.003 6.317-7.2551 10.389-16.1019 11.756-25.5346.401-2.7439.45-3.5543.45-7.2747 0-3.7203-.049-4.5308-.45-7.2747-2.714-18.7579-16.062-34.51808-34.166-40.35735-3.193-1.03506-6.591-1.747878-10.4-2.177524-.937-.0976466-7.391-.205058-8.202-.1269406zm20.447 30.2119146c.469.2343.85.6835.987 1.1522.078.2539.097 5.683.078 17.9182l-.03 17.5569-3.095-4.7457-3.105-4.7456v-12.7624c0-8.2512.039-12.8894.097-13.114.157-.5468.498-.9764.967-1.2303.401-.2051.547-.2246 2.08-.2246 1.445 0 1.699.0195 2.021.1953z"/><path d="m384 49.5373c0-6.6245-8.296-12.9026-21.015-16.7958 2.935-12.9637 1.631-23.27758-4.117-26.57966-1.325-.77456-2.875-1.14146-4.566-1.14146v4.54546c.937 0 1.691.18345 2.323.52996 2.772 1.5899 3.975 7.6437 3.037 15.4301-.224 1.916-.591 3.9339-1.039 5.9926-3.995-.9783-8.357-1.7325-12.943-2.2217-2.752-3.7709-5.606-7.1953-8.48-10.1916 6.645-6.1761 12.882-9.55975 17.122-9.55975v-4.54545c-5.605 0-12.943 3.99511-20.363 10.9254-7.419-6.88952-14.757-10.84387-20.363-10.84387v4.54546c4.22 0 10.477 3.36321 17.122 9.49861-2.853 2.9963-5.707 6.4003-8.418 10.1712-4.607.4892-8.969 1.2434-12.964 2.2421-.468-2.0383-.815-4.0155-1.06-5.9111-.958-7.7864.225-13.8402 2.976-15.4505.612-.36686 1.407-.52993 2.344-.52993v-4.54545c-1.712 0-3.261.36689-4.606 1.14146-5.728 3.30207-7.012 13.59562-4.056 26.51852-12.679 3.9136-20.934 10.1712-20.934 16.7754 0 6.6245 8.296 12.9026 21.015 16.7958-2.935 12.9637-1.631 23.2776 4.117 26.5797 1.325.7745 2.875 1.1414 4.587 1.1414 5.605 0 12.943-3.9951 20.363-10.9254 7.419 6.8895 14.757 10.8439 20.362 10.8439 1.713 0 3.262-.3669 4.607-1.1415 5.728-3.3021 7.012-13.5956 4.056-26.5185 12.638-3.8932 20.893-10.1712 20.893-16.7754zm-26.539-13.5956c-.754 2.6294-1.692 5.3404-2.752 8.0514-.835-1.6307-1.712-3.2613-2.67-4.892-.937-1.6307-1.936-3.2205-2.935-4.7697 2.894.4281 5.687.958 8.357 1.6103zm-9.335 21.7081c-1.59 2.7517-3.221 5.3608-4.913 7.7864-3.037.265-6.115.4077-9.213.4077-3.078 0-6.156-.1427-9.172-.3873-1.692-2.4256-3.343-5.0143-4.933-7.7456-1.549-2.6702-2.956-5.3812-4.24-8.1126 1.264-2.7313 2.691-5.4627 4.219-8.1329 1.59-2.7517 3.221-5.3607 4.913-7.7863 3.037-.265 6.115-.4077 9.213-.4077 3.078 0 6.156.1427 9.172.3873 1.692 2.4256 3.343 5.0143 4.933 7.7456 1.549 2.6702 2.956 5.3812 4.24 8.1125-1.284 2.7314-2.691 5.4627-4.219 8.1329zm6.583-2.6498c1.101 2.7313 2.039 5.4627 2.813 8.1125-2.67.6523-5.483 1.2026-8.398 1.6307.999-1.5695 1.998-3.1798 2.936-4.8309.937-1.6306 1.814-3.2817 2.649-4.9123zm-20.668 21.7489c-1.896-1.9568-3.792-4.1378-5.667-6.5227 1.835.0816 3.71.1427 5.606.1427 1.916 0 3.811-.0407 5.666-.1427-1.834 2.3849-3.73 4.5659-5.605 6.5227zm-15.165-12.0057c-2.895-.4281-5.687-.958-8.357-1.6103.754-2.6294 1.691-5.3404 2.751-8.0514.836 1.6307 1.712 3.2613 2.67 4.892s1.937 3.2205 2.936 4.7697zm15.063-42.4175c1.895 1.9568 3.791 4.1378 5.666 6.5226-1.834-.0815-3.709-.1426-5.605-.1426-1.916 0-3.812.0407-5.667.1426 1.835-2.3848 3.731-4.5658 5.606-6.5226zm-15.084 12.0057c-.998 1.5695-1.997 3.1798-2.935 4.8309-.938 1.6306-1.814 3.2613-2.65 4.8919-1.1-2.7313-2.038-5.4627-2.813-8.1125 2.671-.6319 5.483-1.1822 8.398-1.6103zm-18.447 25.5198c-7.215-3.0779-11.883-7.1137-11.883-10.3139s4.668-7.2564 11.883-10.3139c1.753-.7542 3.669-1.4268 5.647-2.0587 1.161 3.9951 2.69 8.1533 4.586 12.4134-1.875 4.2397-3.384 8.3775-4.525 12.3522-2.018-.6319-3.934-1.3249-5.708-2.0791zm10.967 29.1276c-2.772-1.5899-3.975-7.6437-3.037-15.4301.224-1.916.591-3.9339 1.039-5.9927 3.995.9784 8.357 1.7326 12.943 2.2218 2.752 3.7709 5.606 7.1953 8.48 10.1916-6.645 6.1761-12.882 9.5597-17.122 9.5597-.917-.0203-1.692-.2038-2.303-.5503zm48.349-15.532c.958 7.7864-.225 13.8402-2.976 15.4505-.612.3669-1.407.5299-2.344.5299-4.22 0-10.477-3.3632-17.122-9.4985 2.853-2.9964 5.707-6.4004 8.418-10.1713 4.607-.4892 8.969-1.2433 12.964-2.2421.468 2.0587.835 4.0359 1.06 5.9315zm7.847-13.5956c-1.753.7542-3.669 1.4268-5.646 2.0587-1.162-3.9951-2.691-8.1533-4.586-12.4134 1.875-4.2397 3.383-8.3775 4.525-12.3522 2.018.6319 3.934 1.3249 5.728 2.0791 7.215 3.0779 11.883 7.1137 11.883 10.3139-.02 3.2002-4.688 7.2564-11.904 10.3139z"/><path d="m333.98 58.8568c5.145 0 9.315-4.1705 9.315-9.3151s-4.17-9.3151-9.315-9.3151c-5.144 0-9.315 4.1705-9.315 9.3151s4.171 9.3151 9.315 9.3151z"/></g><g clip-path="url(#a)"><path d="m192 20.0781c-13.333 0-21.667 6.6668-25 20 5-6.6668 10.833-9.1668 17.5-7.5 3.804.9508 6.522 3.7106 9.532 6.7649 4.902 4.9761 10.575 10.7351 22.968 10.7351 13.333 0 21.667-6.6668 25-20-5 6.6668-10.833 9.1668-17.5 7.5-3.804-.9508-6.522-3.7105-9.532-6.7648-4.902-4.9762-10.575-10.7352-22.968-10.7352zm-25 30c-13.333 0-21.667 6.6668-25 20 5-6.6668 10.833-9.1668 17.5-7.5 3.804.9508 6.522 3.7106 9.532 6.7649 4.902 4.9761 10.575 10.7351 22.968 10.7351 13.333 0 21.667-6.6668 25-20-5 6.6668-10.833 9.1668-17.5 7.5-3.804-.9508-6.522-3.7105-9.532-6.7648-4.902-4.9762-10.575-10.7352-22.968-10.7352z" fill="#fff"/></g><g clip-path="url(#b)"><path clip-rule="evenodd" d="m20.7703 10.0078c-5.7058 0-9.9279 4.9942-9.7389 10.4102.1815 5.2033-.0543 11.9424-1.75074 17.4381-1.70254 5.5111-4.57988 9.0035-9.28066 9.4517v5.061c4.70078.4492 7.57812 3.9398 9.28047 9.4517 1.69663 5.4957 1.93223 12.2348 1.75073 17.4381-.189 5.4152 4.0331 10.4102 9.7399 10.4102h58.4662c5.7059 0 9.9272-4.9942 9.7381-10.4102-.1815-5.2033.0543-11.9424 1.7508-17.4381 1.7025-5.5119 4.5728-9.0039 9.2738-9.4517v-5.061c-4.7008-.4492-7.5711-3.9398-9.2738-9.4517-1.6967-5.495-1.9323-12.2348-1.7508-17.4381.1891-5.4153-4.0322-10.4102-9.7381-10.4102h-58.4678zm47.0264 49.0365c0 7.4577-5.5627 11.9805-14.7942 11.9805h-15.7144c-.4495 0-.8806-.1786-1.1985-.4964-.3179-.3179-.4964-.749-.4964-1.1985v-38.983c0-.4495.1785-.8807.4964-1.1985.3179-.3179.749-.4964 1.1985-.4964h15.625c7.6974 0 12.7492 4.1695 12.7492 10.571 0 4.4932-3.3984 8.5157-7.7279 9.2204v.2343c5.8937.6465 9.8623 4.7286 9.8623 10.3666zm-16.5076-25.0195h-8.9602v12.6563h7.5467c5.834 0 9.0508-2.3493 9.0508-6.5483-.0006-3.9351-2.7662-6.108-7.6373-6.108zm-8.9602 17.6779v13.9475h9.2898c6.0743 0 9.2917-2.4373 9.2917-7.0178 0-4.5804-3.3077-6.9304-9.6823-6.9304h-8.8992z" fill="#fff" fill-rule="evenodd"/></g></svg>