<svg fill="none" height="46" viewBox="0 0 46 46" width="46" xmlns="http://www.w3.org/2000/svg"><g fill="#fff" fill-opacity=".44"><circle cx="1.39737" cy="44.6026" r="1.39737" transform="matrix(0 -1 1 0 -43.20523 45.99997)"/><circle cx="1.39737" cy="7.99124" r="1.39737" transform="matrix(0 -1 1 0 -6.59387 9.38861)"/><circle cx="13.6943" cy="44.6026" r="1.39737" transform="matrix(0 -1 1 0 -30.9083 58.2969)"/><circle cx="13.6943" cy="7.99124" r="1.39737" transform="matrix(0 -1 1 0 5.70306 21.68554)"/><circle cx="25.9911" cy="44.6026" r="1.39737" transform="matrix(0 -1 1 0 -18.6115 70.5937)"/><circle cx="25.9911" cy="7.99124" r="1.39737" transform="matrix(0 -1 1 0 17.99986 33.98234)"/><circle cx="38.288" cy="44.6026" r="1.39737" transform="matrix(0 -1 1 0 -6.3146 82.8906)"/><circle cx="38.288" cy="7.99124" r="1.39737" transform="matrix(0 -1 1 0 30.29676 46.27924)"/><circle cx="1.39737" cy="32.3058" r="1.39737" transform="matrix(0 -1 1 0 -30.90843 33.70317)"/><circle cx="13.6943" cy="32.3058" r="1.39737" transform="matrix(0 -1 1 0 -18.6115 46.0001)"/><circle cx="25.9911" cy="32.3058" r="1.39737" transform="matrix(0 -1 1 0 -6.3147 58.2969)"/><circle cx="38.288" cy="32.3058" r="1.39737" transform="matrix(0 -1 1 0 5.9822 70.5938)"/><circle cx="1.39737" cy="20.0087" r="1.39737" transform="matrix(0 -1 1 0 -18.61133 21.40607)"/><circle cx="13.6943" cy="20.0087" r="1.39737" transform="matrix(0 -1 1 0 -6.3144 33.703)"/><circle cx="25.9911" cy="20.0087" r="1.39737" transform="matrix(0 -1 1 0 5.9824 45.9998)"/><circle cx="38.288" cy="20.0087" r="1.39737" transform="matrix(0 -1 1 0 18.2793 58.2967)"/></g></svg>